<svg xmlns="http://www.w3.org/2000/svg" xmlns:xlink="http://www.w3.org/1999/xlink" contentStyleType="text/css" data-diagram-type="SEQUENCE" height="737px" preserveAspectRatio="none" style="width:841px;height:737px;background:#FFFFFF;" version="1.1" viewBox="0 0 841 737" width="841px" zoomAndPan="magnify"><defs><filter height="300%" id="f1txldq7vy072q" width="300%" x="-1" y="-1"><feGaussianBlur result="blurOut" stdDeviation="2"/><feColorMatrix in="blurOut" result="blurOut2" type="matrix" values="0 0 0 0 0 0 0 0 0 0 0 0 0 0 0 0 0 0 .4 0"/><feOffset dx="4" dy="4" in="blurOut2" result="blurOut3"/><feBlend in="SourceGraphic" in2="blurOut3" mode="normal"/></filter></defs><g><rect fill="none" filter="url(#f1txldq7vy072q)" height="43.5977" rx="7.5" ry="7.5" style="stroke:#000000;stroke-width:1.5;" width="615.1846" x="214.0889" y="235.793"/><rect fill="none" filter="url(#f1txldq7vy072q)" height="43.5977" rx="7.5" ry="7.5" style="stroke:#000000;stroke-width:1.5;" width="615.1846" x="214.0889" y="348.9883"/><rect fill="none" filter="url(#f1txldq7vy072q)" height="43.5977" rx="7.5" ry="7.5" style="stroke:#000000;stroke-width:1.5;" width="615.1846" x="214.0889" y="502.9824"/><g><title>Usuario</title><rect fill="#000000" fill-opacity="0.00000" height="650.5742" width="8" x="28.5" y="79.7988"/><line style="stroke:#154360;stroke-width:0.5;stroke-dasharray:5,5;" x1="32" x2="32" y1="79.7988" y2="730.373"/></g><g><title>ScriptShell</title><rect fill="#000000" fill-opacity="0.00000" height="650.5742" width="8" x="257.2676" y="79.7988"/><line style="stroke:#154360;stroke-width:0.5;stroke-dasharray:5,5;" x1="261.0889" x2="261.0889" y1="79.7988" y2="730.373"/></g><g><title>HostRemoto</title><rect fill="#000000" fill-opacity="0.00000" height="650.5742" width="8" x="379.3203" y="79.7988"/><line style="stroke:#154360;stroke-width:0.5;stroke-dasharray:5,5;" x1="382.4746" x2="382.4746" y1="79.7988" y2="730.373"/></g><g><title>OracleDB</title><rect fill="#000000" fill-opacity="0.00000" height="650.5742" width="8" x="465.6729" y="79.7988"/><line style="stroke:#154360;stroke-width:0.5;stroke-dasharray:5,5;" x1="469.166" x2="469.166" y1="79.7988" y2="730.373"/></g><g><title>Log</title><rect fill="#000000" fill-opacity="0.00000" height="650.5742" width="8" x="528.6904" y="79.7988"/><line style="stroke:#154360;stroke-width:0.5;stroke-dasharray:5,5;" x1="532.1797" x2="532.1797" y1="79.7988" y2="730.373"/></g><g><title>Correo</title><rect fill="#000000" fill-opacity="0.00000" height="650.5742" width="8" x="584.041" y="79.7988"/><line style="stroke:#154360;stroke-width:0.5;stroke-dasharray:5,5;" x1="587.2012" x2="587.2012" y1="79.7988" y2="730.373"/></g><g><title>Log</title><rect fill="#000000" fill-opacity="0.00000" height="650.5742" width="8" x="639.3916" y="79.7988"/><line style="stroke:#154360;stroke-width:0.5;stroke-dasharray:5,5;" x1="642.8809" x2="642.8809" y1="79.7988" y2="730.373"/></g><g><title>HostRemoto</title><rect fill="#000000" fill-opacity="0.00000" height="650.5742" width="8" x="709.748" y="79.7988"/><line style="stroke:#154360;stroke-width:0.5;stroke-dasharray:5,5;" x1="712.9023" x2="712.9023" y1="79.7988" y2="730.373"/></g><g><title>Correo</title><rect fill="#000000" fill-opacity="0.00000" height="650.5742" width="8" x="788.4336" y="79.7988"/><line style="stroke:#154360;stroke-width:0.5;stroke-dasharray:5,5;" x1="791.5938" x2="791.5938" y1="79.7988" y2="730.373"/></g><g class="participant participant-head" data-participant="user"><text fill="#154360" font-family="Arial" font-size="12" lengthAdjust="spacing" textLength="41.3496" x="8.8252" y="77.2559">Usuario</text><ellipse cx="32.5" cy="21.5" fill="#D4E6F1" filter="url(#f1txldq7vy072q)" rx="16" ry="16" style="stroke:#2874A6;stroke-width:0.5;"/><path d="M32.5,41.5 C36.5,41.5 39.5,41.5 43.5,37.5 C51.5,37.5 59.5,45.5 59.5,53.5 L59.5,57.5 C59.5,61.5 55.5,65.5 51.5,65.5 L13.5,65.5 C9.5,65.5 5.5,61.5 5.5,57.5 L5.5,53.5 C5.5,45.5 13.5,37.5 21.5,37.5 C25.5,41.5 28.5,41.5 32.5,41.5" fill="#D4E6F1" filter="url(#f1txldq7vy072q)" style="stroke:#2874A6;stroke-width:0.5;"/></g><g class="participant participant-head" data-participant="ScriptShell"><rect fill="#EBF5FB" filter="url(#f1txldq7vy072q)" height="27.7988" rx="7.5" ry="7.5" style="stroke:#1B4F72;stroke-width:0.5;" width="71.3574" x="224.0889" y="48"/><text fill="#000000" font-family="Arial" font-size="12" lengthAdjust="spacing" textLength="57.3574" x="231.0889" y="66.2559">ScriptShell</text></g><g class="participant participant-head" data-participant="Remoto"><rect fill="#EBF5FB" filter="url(#f1txldq7vy072q)" height="27.7988" rx="7.5" ry="7.5" style="stroke:#1B4F72;stroke-width:0.5;" width="80.6914" x="341.4746" y="48"/><text fill="#000000" font-family="Arial" font-size="12" lengthAdjust="spacing" textLength="66.6914" x="348.4746" y="66.2559">HostRemoto</text></g><g class="participant participant-head" data-participant="Base"><rect fill="#EBF5FB" filter="url(#f1txldq7vy072q)" height="27.7988" rx="7.5" ry="7.5" style="stroke:#1B4F72;stroke-width:0.5;" width="66.0137" x="435.166" y="48"/><text fill="#000000" font-family="Arial" font-size="12" lengthAdjust="spacing" textLength="52.0137" x="442.166" y="66.2559">OracleDB</text></g><g class="participant participant-head" data-participant="Logging"><rect fill="#EBF5FB" filter="url(#f1txldq7vy072q)" height="27.7988" rx="7.5" ry="7.5" style="stroke:#1B4F72;stroke-width:0.5;" width="34.0215" x="514.1797" y="48"/><text fill="#000000" font-family="Arial" font-size="12" lengthAdjust="spacing" textLength="20.0215" x="521.1797" y="66.2559">Log</text></g><g class="participant participant-head" data-participant="Correos"><rect fill="#EBF5FB" filter="url(#f1txldq7vy072q)" height="27.7988" rx="7.5" ry="7.5" style="stroke:#1B4F72;stroke-width:0.5;" width="50.6797" x="561.2012" y="48"/><text fill="#000000" font-family="Arial" font-size="12" lengthAdjust="spacing" textLength="36.6797" x="568.2012" y="66.2559">Correo</text></g><g class="participant participant-head" data-participant="Log"><rect fill="#EBF5FB" filter="url(#f1txldq7vy072q)" height="27.7988" rx="7.5" ry="7.5" style="stroke:#1B4F72;stroke-width:0.5;" width="34.0215" x="624.8809" y="48"/><text fill="#000000" font-family="Arial" font-size="12" lengthAdjust="spacing" textLength="20.0215" x="631.8809" y="66.2559">Log</text></g><g class="participant participant-head" data-participant="HostRemoto"><rect fill="#EBF5FB" filter="url(#f1txldq7vy072q)" height="27.7988" rx="7.5" ry="7.5" style="stroke:#1B4F72;stroke-width:0.5;" width="80.6914" x="671.9023" y="48"/><text fill="#000000" font-family="Arial" font-size="12" lengthAdjust="spacing" textLength="66.6914" x="678.9023" y="66.2559">HostRemoto</text></g><g class="participant participant-head" data-participant="Correo"><rect fill="#EBF5FB" filter="url(#f1txldq7vy072q)" height="27.7988" rx="7.5" ry="7.5" style="stroke:#1B4F72;stroke-width:0.5;" width="50.6797" x="765.5938" y="48"/><text fill="#000000" font-family="Arial" font-size="12" lengthAdjust="spacing" textLength="36.6797" x="772.5938" y="66.2559">Correo</text></g><g class="message" data-participant-1="user" data-participant-2="ScriptShell"><polygon fill="#2E4053" points="249.2676,105.5977,259.2676,109.5977,249.2676,113.5977" style="stroke:#2E4053;stroke-width:1;"/><line style="stroke:#2E4053;stroke-width:2.2;" x1="32.5" x2="255.2676" y1="109.5977" y2="109.5977"/><text fill="#000000" font-family="Arial" font-size="12" lengthAdjust="spacing" textLength="204.7676" x="39.5" y="105.0547">Ejecuta script con (periodo, escenario)</text></g><g class="message" data-participant-1="ScriptShell" data-participant-2="Log"><polygon fill="#2E4053" points="631.3916,133.3965,641.3916,137.3965,631.3916,141.3965" style="stroke:#2E4053;stroke-width:1;"/><line style="stroke:#2E4053;stroke-width:2.2;" x1="261.2676" x2="637.3916" y1="137.3965" y2="137.3965"/><text fill="#000000" font-family="Arial" font-size="12" lengthAdjust="spacing" textLength="50.7012" x="268.2676" y="132.8535">Log inicio</text></g><g class="message" data-participant-1="ScriptShell" data-participant-2="HostRemoto"><polygon fill="#2E4053" points="701.748,161.1953,711.748,165.1953,701.748,169.1953" style="stroke:#2E4053;stroke-width:1;"/><line style="stroke:#2E4053;stroke-width:2.2;" x1="261.2676" x2="707.748" y1="165.1953" y2="165.1953"/><text fill="#000000" font-family="Arial" font-size="12" lengthAdjust="spacing" textLength="148.0723" x="268.2676" y="160.6523">ejecutar comandos remotos</text></g><g class="message" data-participant-1="HostRemoto" data-participant-2="ScriptShell"><polygon fill="#2E4053" points="272.2676,188.9941,262.2676,192.9941,272.2676,196.9941" style="stroke:#2E4053;stroke-width:1;"/><line style="stroke:#2E4053;stroke-width:2.2;" x1="266.2676" x2="712.748" y1="192.9941" y2="192.9941"/><text fill="#000000" font-family="Arial" font-size="12" lengthAdjust="spacing" textLength="110.0684" x="278.2676" y="188.4512">Respuesta comando</text></g><g class="message" data-participant-1="ScriptShell" data-participant-2="Log"><polygon fill="#2E4053" points="631.3916,216.793,641.3916,220.793,631.3916,224.793" style="stroke:#2E4053;stroke-width:1;"/><line style="stroke:#2E4053;stroke-width:2.2;" x1="261.2676" x2="637.3916" y1="220.793" y2="220.793"/><text fill="#000000" font-family="Arial" font-size="12" lengthAdjust="spacing" textLength="96.709" x="268.2676" y="216.25">registrar resultado</text></g><path d="M221.5889,235.793 L273.0928,235.793 L273.0928,241.5918 L263.0928,251.5918 L214.0889,251.5918 L214.0889,243.293 A7.5,7.5 0 0 1 221.5889,235.793" fill="#EEEEEE" style="stroke:#000000;stroke-width:1.5;"/><rect fill="none" height="43.5977" rx="7.5" ry="7.5" style="stroke:#000000;stroke-width:1.5;" width="615.1846" x="214.0889" y="235.793"/><text fill="#000000" font-family="Arial" font-size="12" font-weight="bold" lengthAdjust="spacing" textLength="14.0039" x="229.0889" y="248.0488">alt</text><text fill="#000000" font-family="Arial" font-size="12" font-weight="bold" lengthAdjust="spacing" textLength="97.3477" x="288.0928" y="249.0488">[error en remoto]</text><g class="message" data-participant-1="ScriptShell" data-participant-2="Correo"><polygon fill="#2E4053" points="780.4336,267.3906,790.4336,271.3906,780.4336,275.3906" style="stroke:#2E4053;stroke-width:1;"/><line style="stroke:#2E4053;stroke-width:2.2;" x1="261.2676" x2="786.4336" y1="271.3906" y2="271.3906"/><text fill="#000000" font-family="Arial" font-size="12" lengthAdjust="spacing" textLength="112.7168" x="268.2676" y="266.8477">Enviar alerta de error</text></g><g class="message" data-participant-1="ScriptShell" data-participant-2="HostRemoto"><polygon fill="#2E4053" points="701.748,302.1895,711.748,306.1895,701.748,310.1895" style="stroke:#2E4053;stroke-width:1;"/><line style="stroke:#2E4053;stroke-width:2.2;" x1="261.2676" x2="707.748" y1="306.1895" y2="306.1895"/><text fill="#000000" font-family="Arial" font-size="12" lengthAdjust="spacing" textLength="119.3906" x="268.2676" y="301.6465">copia archivos con rcp</text></g><g class="message" data-participant-1="HostRemoto" data-participant-2="ScriptShell"><polygon fill="#2E4053" points="272.2676,329.9883,262.2676,333.9883,272.2676,337.9883" style="stroke:#2E4053;stroke-width:1;"/><line style="stroke:#2E4053;stroke-width:2.2;" x1="266.2676" x2="712.748" y1="333.9883" y2="333.9883"/><text fill="#000000" font-family="Arial" font-size="12" lengthAdjust="spacing" textLength="73.3535" x="278.2676" y="329.4453">confirmaci&#195;&#179;n</text></g><path d="M221.5889,348.9883 L273.0928,348.9883 L273.0928,354.7871 L263.0928,364.7871 L214.0889,364.7871 L214.0889,356.4883 A7.5,7.5 0 0 1 221.5889,348.9883" fill="#EEEEEE" style="stroke:#000000;stroke-width:1.5;"/><rect fill="none" height="43.5977" rx="7.5" ry="7.5" style="stroke:#000000;stroke-width:1.5;" width="615.1846" x="214.0889" y="348.9883"/><text fill="#000000" font-family="Arial" font-size="12" font-weight="bold" lengthAdjust="spacing" textLength="14.0039" x="229.0889" y="361.2441">alt</text><text fill="#000000" font-family="Arial" font-size="12" font-weight="bold" lengthAdjust="spacing" textLength="75.3516" x="288.0928" y="362.2441">[error en rcp]</text><g class="message" data-participant-1="ScriptShell" data-participant-2="Correo"><polygon fill="#2E4053" points="780.4336,380.5859,790.4336,384.5859,780.4336,388.5859" style="stroke:#2E4053;stroke-width:1;"/><line style="stroke:#2E4053;stroke-width:2.2;" x1="261.2676" x2="786.4336" y1="384.5859" y2="384.5859"/><text fill="#000000" font-family="Arial" font-size="12" lengthAdjust="spacing" textLength="112.7168" x="268.2676" y="380.043">Enviar alerta de error</text></g><g class="message" data-participant-1="ScriptShell" data-participant-2="Log"><polygon fill="#2E4053" points="631.3916,415.3848,641.3916,419.3848,631.3916,423.3848" style="stroke:#2E4053;stroke-width:1;"/><line style="stroke:#2E4053;stroke-width:2.2;" x1="261.2676" x2="637.3916" y1="419.3848" y2="419.3848"/><text fill="#000000" font-family="Arial" font-size="12" lengthAdjust="spacing" textLength="215.4434" x="268.2676" y="414.8418">validar que archivos tengan mismo largo</text></g><g class="message" data-participant-1="Log" data-participant-2="ScriptShell"><polygon fill="#2E4053" points="272.2676,443.1836,262.2676,447.1836,272.2676,451.1836" style="stroke:#2E4053;stroke-width:1;"/><line style="stroke:#2E4053;stroke-width:2.2;stroke-dasharray:2,2;" x1="266.2676" x2="642.3916" y1="447.1836" y2="447.1836"/><text fill="#000000" font-family="Arial" font-size="12" lengthAdjust="spacing" textLength="111.3926" x="278.2676" y="442.6406">resultado validaci&#195;&#179;n</text></g><g class="message" data-participant-1="ScriptShell" data-participant-2="ScriptShell"><line style="stroke:#2E4053;stroke-width:2.2;" x1="261.2676" x2="303.2676" y1="474.9824" y2="474.9824"/><line style="stroke:#2E4053;stroke-width:2.2;" x1="303.2676" x2="303.2676" y1="474.9824" y2="487.9824"/><line style="stroke:#2E4053;stroke-width:2.2;" x1="262.2676" x2="303.2676" y1="487.9824" y2="487.9824"/><polygon fill="#2E4053" points="272.2676,483.9824,262.2676,487.9824,272.2676,491.9824" style="stroke:#2E4053;stroke-width:1;"/><text fill="#000000" font-family="Arial" font-size="12" lengthAdjust="spacing" textLength="108.0527" x="268.2676" y="470.4395">ejecutar DeclaroF29</text></g><path d="M221.5889,502.9824 L273.0928,502.9824 L273.0928,508.7813 L263.0928,518.7813 L214.0889,518.7813 L214.0889,510.4824 A7.5,7.5 0 0 1 221.5889,502.9824" fill="#EEEEEE" style="stroke:#000000;stroke-width:1.5;"/><rect fill="none" height="43.5977" rx="7.5" ry="7.5" style="stroke:#000000;stroke-width:1.5;" width="615.1846" x="214.0889" y="502.9824"/><text fill="#000000" font-family="Arial" font-size="12" font-weight="bold" lengthAdjust="spacing" textLength="14.0039" x="229.0889" y="515.2383">alt</text><text fill="#000000" font-family="Arial" font-size="12" font-weight="bold" lengthAdjust="spacing" textLength="121.377" x="288.0928" y="516.2383">[error en DeclaroF29]</text><g class="message" data-participant-1="ScriptShell" data-participant-2="Correo"><polygon fill="#2E4053" points="780.4336,534.5801,790.4336,538.5801,780.4336,542.5801" style="stroke:#2E4053;stroke-width:1;"/><line style="stroke:#2E4053;stroke-width:2.2;" x1="261.2676" x2="786.4336" y1="538.5801" y2="538.5801"/><text fill="#000000" font-family="Arial" font-size="12" lengthAdjust="spacing" textLength="67.3652" x="268.2676" y="534.0371">Enviar alerta</text></g><g class="message" data-participant-1="ScriptShell" data-participant-2="Log"><polygon fill="#2E4053" points="631.3916,569.3789,641.3916,573.3789,631.3916,577.3789" style="stroke:#2E4053;stroke-width:1;"/><line style="stroke:#2E4053;stroke-width:2.2;" x1="261.2676" x2="637.3916" y1="573.3789" y2="573.3789"/><text fill="#000000" font-family="Arial" font-size="12" lengthAdjust="spacing" textLength="154.7578" x="268.2676" y="568.8359">validar archivos de obligados</text></g><g class="message" data-participant-1="ScriptShell" data-participant-2="Log"><polygon fill="#2E4053" points="631.3916,597.1777,641.3916,601.1777,631.3916,605.1777" style="stroke:#2E4053;stroke-width:1;"/><line style="stroke:#2E4053;stroke-width:2.2;" x1="261.2676" x2="637.3916" y1="601.1777" y2="601.1777"/><text fill="#000000" font-family="Arial" font-size="12" lengthAdjust="spacing" textLength="187.4238" x="268.2676" y="596.6348">ejecutar escenarios (7, 10 o varios)</text></g><g class="message" data-participant-1="ScriptShell" data-participant-2="HostRemoto"><polygon fill="#2E4053" points="701.748,624.9766,711.748,628.9766,701.748,632.9766" style="stroke:#2E4053;stroke-width:1;"/><line style="stroke:#2E4053;stroke-width:2.2;" x1="261.2676" x2="707.748" y1="628.9766" y2="628.9766"/><text fill="#000000" font-family="Arial" font-size="12" lengthAdjust="spacing" textLength="220.7988" x="268.2676" y="624.4336">ejecutar en remoto atributos, anotaciones</text></g><g class="message" data-participant-1="HostRemoto" data-participant-2="ScriptShell"><polygon fill="#2E4053" points="272.2676,652.7754,262.2676,656.7754,272.2676,660.7754" style="stroke:#2E4053;stroke-width:1;"/><line style="stroke:#2E4053;stroke-width:2.2;" x1="266.2676" x2="712.748" y1="656.7754" y2="656.7754"/><text fill="#000000" font-family="Arial" font-size="12" lengthAdjust="spacing" textLength="158.748" x="278.2676" y="652.2324">respuestas de tareas remotas</text></g><g class="message" data-participant-1="ScriptShell" data-participant-2="Log"><polygon fill="#2E4053" points="631.3916,680.5742,641.3916,684.5742,631.3916,688.5742" style="stroke:#2E4053;stroke-width:1;"/><line style="stroke:#2E4053;stroke-width:2.2;" x1="261.2676" x2="637.3916" y1="684.5742" y2="684.5742"/><text fill="#000000" font-family="Arial" font-size="12" lengthAdjust="spacing" textLength="210.7793" x="268.2676" y="680.0313">recuperar archivos atributos y anotados</text></g><g class="message" data-participant-1="ScriptShell" data-participant-2="Correo"><polygon fill="#2E4053" points="780.4336,708.373,790.4336,712.373,780.4336,716.373" style="stroke:#2E4053;stroke-width:1;"/><line style="stroke:#2E4053;stroke-width:2.2;" x1="261.2676" x2="786.4336" y1="712.373" y2="712.373"/><text fill="#000000" font-family="Arial" font-size="12" lengthAdjust="spacing" textLength="206.0801" x="268.2676" y="707.8301">enviar log final y archivos comprimidos</text></g><!--SRC=[hLDBRjj03DtFALYl4i1nFvkYNdIHfaKN1Geaw06O4QCm6Csev8o1h7katg2zM2d9bYNNTRE85lgHZtoFVFE2em-b8bYjNcf-3AIhjZJ1EVGv2Io-QK7Xj01KA4hYMfJCdbkC6HOtNhZDD_SKGfyn-PudVawQhwb9UQWqlCvJlWhwG5UNVS8bAit3NrBTH-nPSwpdmGz9X8RImwiwrx65Y_TJJclu-42-P0JjVu9F4SvQCe5LMWAffzYfFNSJK5V3cgwx6t2qdkaml5Ut1XewYDLkC5P9GVg8kdtMNxIkITj2QiIsgAC4X6hMB5PRI4l8Q7aOCf28hOhYjfC3kmxmmrHCVzomuJ6GM3DRUuzr5AjJcdng6G75t_F617LJ4z-U4cGfTomDUlxzuzVFU43JiC_2iP_A1WDNbl-zq9vYfbXZX8QrIH1GwkIwzLqSyXm7kIsputlGQ8OPDtn5tagdJs_UpVLD_ZzLvd_LZSfi7kasS6sSzIXYf3VQMU7ixH9Ulu9EPVTz_YG3ZuO2pCAtnJoy18mfsvHIf9E6bfsXUy9MZN1x453_uMrVx21EbOvTuN5eUqJnRfWq33FOZkyuOkWWUxishN331ly3]--></g></svg>