<svg xmlns="http://www.w3.org/2000/svg" xmlns:xlink="http://www.w3.org/1999/xlink" contentStyleType="text/css" data-diagram-type="ACTIVITY" height="521px" preserveAspectRatio="none" style="width:639px;height:521px;background:#FFFFFF;" version="1.1" viewBox="0 0 639 521" width="639px" zoomAndPan="magnify"><defs/><g><ellipse cx="319.5527" cy="20" fill="#222222" rx="10" ry="10" style="stroke:#222222;stroke-width:1;"/><rect fill="#F1F1F1" height="35.0938" rx="12.5" ry="12.5" style="stroke:#181818;stroke-width:0.5;" width="251.3281" x="193.8887" y="50"/><text fill="#000000" font-family="sans-serif" font-size="12" lengthAdjust="spacing" textLength="231.3281" x="203.8887" y="72.457">Log "rcp Sal_Nominas_Iva_${nPeriodo}.txt"</text><rect fill="#F1F1F1" height="35.0938" rx="12.5" ry="12.5" style="stroke:#181818;stroke-width:0.5;" width="617.1055" x="11" y="105.0938"/><text fill="#000000" font-family="sans-serif" font-size="12" lengthAdjust="spacing" textLength="597.1055" x="21" y="127.5508">rcp ${CUENTA_REMOTA}@${MAQUINA_REMOTA}:${DIR_OBLIG_SALIDA}/Sal_Nominas_Iva_${nPeriodo}.txt</text><rect fill="#F1F1F1" height="35.0938" rx="12.5" ry="12.5" style="stroke:#181818;stroke-width:0.5;" width="181.373" x="228.8662" y="209.1055"/><text fill="#000000" font-family="sans-serif" font-size="12" lengthAdjust="spacing" textLength="161.373" x="238.8662" y="231.5625">Enviar correo de error (siimail)</text><rect fill="#F1F1F1" height="35.0938" rx="12.5" ry="12.5" style="stroke:#181818;stroke-width:0.5;" width="75.0137" x="282.0459" y="279.1992"/><text fill="#000000" font-family="sans-serif" font-size="12" lengthAdjust="spacing" textLength="55.0137" x="292.0459" y="301.6563">swError=1</text><polygon fill="#F1F1F1" points="286.9905,160.1875,352.115,160.1875,364.115,172.1875,352.115,184.1875,286.9905,184.1875,274.9905,172.1875,286.9905,160.1875" style="stroke:#181818;stroke-width:0.5;"/><text fill="#000000" font-family="sans-serif" font-size="11" lengthAdjust="spacing" textLength="18.3369" x="323.5527" y="195.6064">S&#195;&#173;</text><text fill="#000000" font-family="sans-serif" font-size="11" lengthAdjust="spacing" textLength="65.1245" x="286.9905" y="176.6885">CodRet != 0?</text><polygon fill="#F1F1F1" points="319.5527,334.293,331.5527,346.293,319.5527,358.293,307.5527,346.293,319.5527,334.293" style="stroke:#181818;stroke-width:0.5;"/><rect fill="#F1F1F1" height="35.0938" rx="12.5" ry="12.5" style="stroke:#181818;stroke-width:0.5;" width="160.0684" x="239.5186" y="378.293"/><text fill="#000000" font-family="sans-serif" font-size="12" lengthAdjust="spacing" textLength="140.0684" x="249.5186" y="400.75">Ordenar y depurar archivo</text><rect fill="#F1F1F1" height="35.0938" rx="12.5" ry="12.5" style="stroke:#181818;stroke-width:0.5;" width="201.9453" x="218.5801" y="433.3867"/><text fill="#000000" font-family="sans-serif" font-size="12" lengthAdjust="spacing" textLength="181.9453" x="228.5801" y="455.8438">Renombrar &#226;&#8224;&#8217; obl_${nPeriodo}.txt</text><ellipse cx="319.5527" cy="499.4805" fill="none" rx="11" ry="11" style="stroke:#222222;stroke-width:1;"/><ellipse cx="319.5527" cy="499.4805" fill="#222222" rx="6" ry="6" style="stroke:#222222;stroke-width:1;"/><line style="stroke:#181818;stroke-width:1;" x1="319.5527" x2="319.5527" y1="30" y2="50"/><polygon fill="#181818" points="315.5527,40,319.5527,50,323.5527,40,319.5527,44" style="stroke:#181818;stroke-width:1;"/><line style="stroke:#181818;stroke-width:1;" x1="319.5527" x2="319.5527" y1="85.0938" y2="105.0938"/><polygon fill="#181818" points="315.5527,95.0938,319.5527,105.0938,323.5527,95.0938,319.5527,99.0938" style="stroke:#181818;stroke-width:1;"/><line style="stroke:#181818;stroke-width:1;" x1="319.5527" x2="319.5527" y1="244.1992" y2="279.1992"/><polygon fill="#181818" points="315.5527,269.1992,319.5527,279.1992,323.5527,269.1992,319.5527,273.1992" style="stroke:#181818;stroke-width:1;"/><line style="stroke:#181818;stroke-width:1;" x1="319.5527" x2="319.5527" y1="184.1875" y2="209.1055"/><polygon fill="#181818" points="315.5527,199.1055,319.5527,209.1055,323.5527,199.1055,319.5527,203.1055" style="stroke:#181818;stroke-width:1;"/><line style="stroke:#181818;stroke-width:1;" x1="364.115" x2="420.2393" y1="172.1875" y2="172.1875"/><polygon fill="#181818" points="416.2393,251.6992,420.2393,261.6992,424.2393,251.6992,420.2393,255.6992" style="stroke:#181818;stroke-width:1;"/><line style="stroke:#181818;stroke-width:1;" x1="420.2393" x2="420.2393" y1="172.1875" y2="346.293"/><line style="stroke:#181818;stroke-width:1;" x1="420.2393" x2="331.5527" y1="346.293" y2="346.293"/><polygon fill="#181818" points="341.5527,342.293,331.5527,346.293,341.5527,350.293,337.5527,346.293" style="stroke:#181818;stroke-width:1;"/><line style="stroke:#181818;stroke-width:1;" x1="319.5527" x2="319.5527" y1="314.293" y2="334.293"/><polygon fill="#181818" points="315.5527,324.293,319.5527,334.293,323.5527,324.293,319.5527,328.293" style="stroke:#181818;stroke-width:1;"/><line style="stroke:#181818;stroke-width:1;" x1="319.5527" x2="319.5527" y1="140.1875" y2="160.1875"/><polygon fill="#181818" points="315.5527,150.1875,319.5527,160.1875,323.5527,150.1875,319.5527,154.1875" style="stroke:#181818;stroke-width:1;"/><line style="stroke:#181818;stroke-width:1;" x1="319.5527" x2="319.5527" y1="358.293" y2="378.293"/><polygon fill="#181818" points="315.5527,368.293,319.5527,378.293,323.5527,368.293,319.5527,372.293" style="stroke:#181818;stroke-width:1;"/><line style="stroke:#181818;stroke-width:1;" x1="319.5527" x2="319.5527" y1="413.3867" y2="433.3867"/><polygon fill="#181818" points="315.5527,423.3867,319.5527,433.3867,323.5527,423.3867,319.5527,427.3867" style="stroke:#181818;stroke-width:1;"/><line style="stroke:#181818;stroke-width:1;" x1="319.5527" x2="319.5527" y1="468.4805" y2="488.4805"/><polygon fill="#181818" points="315.5527,478.4805,319.5527,488.4805,323.5527,478.4805,319.5527,482.4805" style="stroke:#181818;stroke-width:1;"/><!--SRC=[XO_FJeD06CJl-nIV3GUu-ESAQHHROaWeABJdpHQsTXFOZtoxeeQGDF4fl1dlleHzapw9SF7YmTlabvd9ZB62BFCJV8GPbIqKekOfDaeBm-DESAVNzv8KLZYSsnSx2vW_sPn-iOdITSZpQ9Mjm-76wLVXmoPEVudlzCiuvzbj4j_n8apYPJXS_DCUCAPsu2wmogM5ipbSNdjWzrA3MnpVlhyy1k17kbE2e4GYYL19a4H8u1gb6g5gBvXCvZcQwFmgO59NQiUOdr4bzHXy7JFj4urAKBbN7OwNSgcnsKxi-7awV9mExu3R-kyyOx7z0G00]--></g></svg>