<svg xmlns="http://www.w3.org/2000/svg" xmlns:xlink="http://www.w3.org/1999/xlink" contentStyleType="text/css" data-diagram-type="SEQUENCE" height="523px" preserveAspectRatio="none" style="width:1134px;height:523px;background:#FFFFFF;" version="1.1" viewBox="0 0 1134 523" width="1134px" zoomAndPan="magnify"><defs><filter height="300%" id="fgqcdyb23ycip" width="300%" x="-1" y="-1"><feGaussianBlur result="blurOut" stdDeviation="2"/><feColorMatrix in="blurOut" result="blurOut2" type="matrix" values="0 0 0 0 0 0 0 0 0 0 0 0 0 0 0 0 0 0 .4 0"/><feOffset dx="4" dy="4" in="blurOut2" result="blurOut3"/><feBlend in="SourceGraphic" in2="blurOut3" mode="normal"/></filter></defs><g><g><title>Usuario</title><rect fill="#000000" fill-opacity="0.00000" height="436.9824" width="8" x="28.5" y="79.7988"/><line style="stroke:#154360;stroke-width:0.5;stroke-dasharray:5,5;" x1="32" x2="32" y1="79.7988" y2="516.7813"/></g><g><title>main</title><rect fill="#000000" fill-opacity="0.00000" height="436.9824" width="8" x="236.6016" y="79.7988"/><line style="stroke:#154360;stroke-width:0.5;stroke-dasharray:5,5;" x1="240.0967" x2="240.0967" y1="79.7988" y2="516.7813"/></g><g><title>conectaBD</title><rect fill="#000000" fill-opacity="0.00000" height="436.9824" width="8" x="404.3496" y="79.7988"/><line style="stroke:#154360;stroke-width:0.5;stroke-dasharray:5,5;" x1="407.5" x2="407.5" y1="79.7988" y2="516.7813"/></g><g><title>conectaBD_DTE</title><rect fill="#000000" fill-opacity="0.00000" height="436.9824" width="8" x="505.3857" y="79.7988"/><line style="stroke:#154360;stroke-width:0.5;stroke-dasharray:5,5;" x1="509.1992" x2="509.1992" y1="79.7988" y2="516.7813"/></g><g><title>abreArchivo</title><rect fill="#000000" fill-opacity="0.00000" height="436.9824" width="8" x="609.0879" y="79.7988"/><line style="stroke:#154360;stroke-width:0.5;stroke-dasharray:5,5;" x1="612.5723" x2="612.5723" y1="79.7988" y2="516.7813"/></g><g><title>cargaArchivoAlertas</title><rect fill="#000000" fill-opacity="0.00000" height="436.9824" width="8" x="721.793" y="79.7988"/><line style="stroke:#154360;stroke-width:0.5;stroke-dasharray:5,5;" x1="725.6035" x2="725.6035" y1="79.7988" y2="516.7813"/></g><g><title>cargaArchivoAtributos</title><rect fill="#000000" fill-opacity="0.00000" height="436.9824" width="8" x="861.1758" y="79.7988"/><line style="stroke:#154360;stroke-width:0.5;stroke-dasharray:5,5;" x1="864.9824" x2="864.9824" y1="79.7988" y2="516.7813"/></g><g><title>poblarDatos</title><rect fill="#000000" fill-opacity="0.00000" height="436.9824" width="8" x="979.2217" y="79.7988"/><line style="stroke:#154360;stroke-width:0.5;stroke-dasharray:5,5;" x1="982.3691" x2="982.3691" y1="79.7988" y2="516.7813"/></g><g><title>nominaAnotar</title><rect fill="#000000" fill-opacity="0.00000" height="436.9824" width="8" x="1075.9307" y="79.7988"/><line style="stroke:#154360;stroke-width:0.5;stroke-dasharray:5,5;" x1="1079.0742" x2="1079.0742" y1="79.7988" y2="516.7813"/></g><g class="participant participant-head" data-participant="Usuario"><text fill="#154360" font-family="Arial" font-size="12" lengthAdjust="spacing" textLength="41.3496" x="8.8252" y="77.2559">Usuario</text><ellipse cx="32.5" cy="21.5" fill="#D4E6F1" filter="url(#fgqcdyb23ycip)" rx="16" ry="16" style="stroke:#2874A6;stroke-width:0.5;"/><path d="M32.5,41.5 C36.5,41.5 39.5,41.5 43.5,37.5 C51.5,37.5 59.5,45.5 59.5,53.5 L59.5,57.5 C59.5,61.5 55.5,65.5 51.5,65.5 L13.5,65.5 C9.5,65.5 5.5,61.5 5.5,57.5 L5.5,53.5 C5.5,45.5 13.5,37.5 21.5,37.5 C25.5,41.5 28.5,41.5 32.5,41.5" fill="#D4E6F1" filter="url(#fgqcdyb23ycip)" style="stroke:#2874A6;stroke-width:0.5;"/></g><g class="participant participant-head" data-participant="Main"><rect fill="#EBF5FB" filter="url(#fgqcdyb23ycip)" height="27.7988" rx="7.5" ry="7.5" style="stroke:#1B4F72;stroke-width:0.5;" width="40.0098" x="219.0967" y="48"/><text fill="#000000" font-family="Arial" font-size="12" lengthAdjust="spacing" textLength="26.0098" x="226.0967" y="66.2559">main</text></g><g class="participant participant-head" data-participant="ConectarBD"><rect fill="#EBF5FB" filter="url(#fgqcdyb23ycip)" height="27.7988" rx="7.5" ry="7.5" style="stroke:#1B4F72;stroke-width:0.5;" width="72.6992" x="370.5" y="48"/><text fill="#000000" font-family="Arial" font-size="12" lengthAdjust="spacing" textLength="58.6992" x="377.5" y="66.2559">conectaBD</text></g><g class="participant participant-head" data-participant="ConectarBD_DTE"><rect fill="#EBF5FB" filter="url(#fgqcdyb23ycip)" height="27.7988" rx="7.5" ry="7.5" style="stroke:#1B4F72;stroke-width:0.5;" width="103.373" x="456.1992" y="48"/><text fill="#000000" font-family="Arial" font-size="12" lengthAdjust="spacing" textLength="89.373" x="463.1992" y="66.2559">conectaBD_DTE</text></g><g class="participant participant-head" data-participant="AbreArchivo"><rect fill="#EBF5FB" filter="url(#fgqcdyb23ycip)" height="27.7988" rx="7.5" ry="7.5" style="stroke:#1B4F72;stroke-width:0.5;" width="78.0313" x="572.5723" y="48"/><text fill="#000000" font-family="Arial" font-size="12" lengthAdjust="spacing" textLength="64.0313" x="579.5723" y="66.2559">abreArchivo</text></g><g class="participant participant-head" data-participant="CargaAlertas"><rect fill="#EBF5FB" filter="url(#fgqcdyb23ycip)" height="27.7988" rx="7.5" ry="7.5" style="stroke:#1B4F72;stroke-width:0.5;" width="121.3789" x="663.6035" y="48"/><text fill="#000000" font-family="Arial" font-size="12" lengthAdjust="spacing" textLength="107.3789" x="670.6035" y="66.2559">cargaArchivoAlertas</text></g><g class="participant participant-head" data-participant="CargaAtributos"><rect fill="#EBF5FB" filter="url(#fgqcdyb23ycip)" height="27.7988" rx="7.5" ry="7.5" style="stroke:#1B4F72;stroke-width:0.5;" width="131.3867" x="797.9824" y="48"/><text fill="#000000" font-family="Arial" font-size="12" lengthAdjust="spacing" textLength="117.3867" x="804.9824" y="66.2559">cargaArchivoAtributos</text></g><g class="participant participant-head" data-participant="PoblarDatos"><rect fill="#EBF5FB" filter="url(#fgqcdyb23ycip)" height="27.7988" rx="7.5" ry="7.5" style="stroke:#1B4F72;stroke-width:0.5;" width="78.7051" x="942.3691" y="48"/><text fill="#000000" font-family="Arial" font-size="12" lengthAdjust="spacing" textLength="64.7051" x="949.3691" y="66.2559">poblarDatos</text></g><g class="participant participant-head" data-participant="NominaAnotar"><rect fill="#EBF5FB" filter="url(#fgqcdyb23ycip)" height="27.7988" rx="7.5" ry="7.5" style="stroke:#1B4F72;stroke-width:0.5;" width="88.7129" x="1034.0742" y="48"/><text fill="#000000" font-family="Arial" font-size="12" lengthAdjust="spacing" textLength="74.7129" x="1041.0742" y="66.2559">nominaAnotar</text></g><g class="message" data-participant-1="Usuario" data-participant-2="Main"><polygon fill="#2E4053" points="228.6016,105.5977,238.6016,109.5977,228.6016,113.5977" style="stroke:#2E4053;stroke-width:1;"/><line style="stroke:#2E4053;stroke-width:2.2;" x1="32.5" x2="234.6016" y1="109.5977" y2="109.5977"/><text fill="#000000" font-family="Arial" font-size="12" lengthAdjust="spacing" textLength="184.1016" x="39.5" y="105.0547">Ejecuta programa con argumentos</text></g><g class="message" data-participant-1="Main" data-participant-2="AbreArchivo"><polygon fill="#2E4053" points="601.0879,133.3965,611.0879,137.3965,601.0879,141.3965" style="stroke:#2E4053;stroke-width:1;"/><line style="stroke:#2E4053;stroke-width:2.2;" x1="240.6016" x2="607.0879" y1="137.3965" y2="137.3965"/><text fill="#000000" font-family="Arial" font-size="12" lengthAdjust="spacing" textLength="239.2793" x="247.6016" y="132.8535">abreArchivo(argv[2], "r") // Archivo Ruts 7503</text></g><g class="message" data-participant-1="Main" data-participant-2="AbreArchivo"><polygon fill="#2E4053" points="601.0879,161.1953,611.0879,165.1953,601.0879,169.1953" style="stroke:#2E4053;stroke-width:1;"/><line style="stroke:#2E4053;stroke-width:2.2;" x1="240.6016" x2="607.0879" y1="165.1953" y2="165.1953"/><text fill="#000000" font-family="Arial" font-size="12" lengthAdjust="spacing" textLength="221.9238" x="247.6016" y="160.6523">abreArchivo(argv[3], "r") // Archivo Alertas</text></g><g class="message" data-participant-1="Main" data-participant-2="AbreArchivo"><polygon fill="#2E4053" points="601.0879,188.9941,611.0879,192.9941,601.0879,196.9941" style="stroke:#2E4053;stroke-width:1;"/><line style="stroke:#2E4053;stroke-width:2.2;" x1="240.6016" x2="607.0879" y1="192.9941" y2="192.9941"/><text fill="#000000" font-family="Arial" font-size="12" lengthAdjust="spacing" textLength="231.9316" x="247.6016" y="188.4512">abreArchivo(argv[4], "r") // Archivo Atributos</text></g><g class="message" data-participant-1="Main" data-participant-2="ConectarBD"><polygon fill="#2E4053" points="396.3496,216.793,406.3496,220.793,396.3496,224.793" style="stroke:#2E4053;stroke-width:1;"/><line style="stroke:#2E4053;stroke-width:2.2;" x1="240.6016" x2="402.3496" y1="220.793" y2="220.793"/><text fill="#000000" font-family="Arial" font-size="12" lengthAdjust="spacing" textLength="143.748" x="247.6016" y="216.25">conectaBD("SID", 1, "SID")</text></g><g class="message" data-participant-1="Main" data-participant-2="ConectarBD_DTE"><polygon fill="#2E4053" points="497.3857,244.5918,507.3857,248.5918,497.3857,252.5918" style="stroke:#2E4053;stroke-width:1;"/><line style="stroke:#2E4053;stroke-width:2.2;" x1="240.6016" x2="503.3857" y1="248.5918" y2="248.5918"/><text fill="#000000" font-family="Arial" font-size="12" lengthAdjust="spacing" textLength="182.4141" x="247.6016" y="244.0488">conectaBD_DTE("DTE", 1, "DTE")</text></g><g class="message" data-participant-1="Main" data-participant-2="CargaAlertas"><polygon fill="#2E4053" points="713.793,272.3906,723.793,276.3906,713.793,280.3906" style="stroke:#2E4053;stroke-width:1;"/><line style="stroke:#2E4053;stroke-width:2.2;" x1="240.6016" x2="719.793" y1="276.3906" y2="276.3906"/><text fill="#000000" font-family="Arial" font-size="12" lengthAdjust="spacing" textLength="115.3711" x="247.6016" y="271.8477">cargaArchivoAlertas()</text></g><g class="message" data-participant-1="CargaAlertas" data-participant-2="Main"><polygon fill="#2E4053" points="251.6016,300.1895,241.6016,304.1895,251.6016,308.1895" style="stroke:#2E4053;stroke-width:1;"/><line style="stroke:#2E4053;stroke-width:2.2;" x1="245.6016" x2="724.793" y1="304.1895" y2="304.1895"/><text fill="#000000" font-family="Arial" font-size="12" lengthAdjust="spacing" textLength="85.377" x="257.6016" y="299.6465">retorna nAlertas</text></g><g class="message" data-participant-1="Main" data-participant-2="CargaAtributos"><polygon fill="#2E4053" points="853.1758,327.9883,863.1758,331.9883,853.1758,335.9883" style="stroke:#2E4053;stroke-width:1;"/><line style="stroke:#2E4053;stroke-width:2.2;" x1="240.6016" x2="859.1758" y1="331.9883" y2="331.9883"/><text fill="#000000" font-family="Arial" font-size="12" lengthAdjust="spacing" textLength="125.3789" x="247.6016" y="327.4453">cargaArchivoAtributos()</text></g><g class="message" data-participant-1="CargaAtributos" data-participant-2="Main"><polygon fill="#2E4053" points="251.6016,355.7871,241.6016,359.7871,251.6016,363.7871" style="stroke:#2E4053;stroke-width:1;"/><line style="stroke:#2E4053;stroke-width:2.2;" x1="245.6016" x2="864.1758" y1="359.7871" y2="359.7871"/><text fill="#000000" font-family="Arial" font-size="12" lengthAdjust="spacing" textLength="95.3848" x="257.6016" y="355.2441">retorna nAtributos</text></g><g class="message" data-participant-1="Main" data-participant-2="PoblarDatos"><polygon fill="#2E4053" points="971.2217,383.5859,981.2217,387.5859,971.2217,391.5859" style="stroke:#2E4053;stroke-width:1;"/><line style="stroke:#2E4053;stroke-width:2.2;" x1="240.6016" x2="977.2217" y1="387.5859" y2="387.5859"/><text fill="#000000" font-family="Arial" font-size="12" lengthAdjust="spacing" textLength="286.1309" x="247.6016" y="383.043">poblarDatos(N, nAlertas, nAtributos, lPeriodo, lEscen)</text></g><g class="message" data-participant-1="PoblarDatos" data-participant-2="Main"><polygon fill="#2E4053" points="251.6016,411.3848,241.6016,415.3848,251.6016,419.3848" style="stroke:#2E4053;stroke-width:1;"/><line style="stroke:#2E4053;stroke-width:2.2;" x1="245.6016" x2="982.2217" y1="415.3848" y2="415.3848"/><text fill="#000000" font-family="Arial" font-size="12" lengthAdjust="spacing" textLength="118.0605" x="257.6016" y="410.8418">Fin del procesamiento</text></g><g class="message" data-participant-1="Main" data-participant-2="NominaAnotar"><polygon fill="#2E4053" points="1067.9307,439.1836,1077.9307,443.1836,1067.9307,447.1836" style="stroke:#2E4053;stroke-width:1;"/><line style="stroke:#2E4053;stroke-width:2.2;" x1="240.6016" x2="1073.9307" y1="443.1836" y2="443.1836"/><text fill="#000000" font-family="Arial" font-size="12" lengthAdjust="spacing" textLength="184.752" x="247.6016" y="438.6406">nominaAnotar(N, lPeriodo, lEscen)</text></g><g class="message" data-participant-1="NominaAnotar" data-participant-2="Main"><polygon fill="#2E4053" points="251.6016,466.9824,241.6016,470.9824,251.6016,474.9824" style="stroke:#2E4053;stroke-width:1;"/><line style="stroke:#2E4053;stroke-width:2.2;" x1="245.6016" x2="1078.9307" y1="470.9824" y2="470.9824"/><text fill="#000000" font-family="Arial" font-size="12" lengthAdjust="spacing" textLength="106.7285" x="257.6016" y="466.4395">Fin de la anotaci&#195;&#179;n</text></g><g class="message" data-participant-1="Main" data-participant-2="Usuario"><polygon fill="#2E4053" points="43.5,494.7813,33.5,498.7813,43.5,502.7813" style="stroke:#2E4053;stroke-width:1;"/><line style="stroke:#2E4053;stroke-width:2.2;" x1="37.5" x2="239.6016" y1="498.7813" y2="498.7813"/><text fill="#000000" font-family="Arial" font-size="12" lengthAdjust="spacing" textLength="100.7109" x="49.5" y="494.2383">Finaliza ejecuci&#195;&#179;n</text></g><!--SRC=[ZPFVJeCm5CRlUOeZDqA2cpgDYHScJ6RYXSlYdojZp5dNp9hIabAMwAsFv1leYzd2W89eTaFQqz_t7JXytTzZWl1YHI7NRvpcewn8kTSKHwEnM_UGQAdW8IzGCUbbg3GZB4EXmK-H2HymXnkpw1uHAIZHE4tAyyjgfwR97zHpSZ_haRRKfN6fQAp82zl8aetRVSyMrHgt9p6dIcDUcPVrgl2FGYksBBHqDNMfgyhaagDAi6ONxRuB2faoWR6GvijASkuKF6yxN3YuA2S9vp1xfQJG29cIQuKfWfaKc3SfKYgiUuaPt1c1KJa32WoyUJn-Yi1NVWZZCTJORQ5pE3izdEngCXamgOUueyN9a4Kpqzga_VV6eub6uDzT9tu4HyR2hi81tcR5rTXzuDjCLJgx2hrMwEJ0odx79GYz3jJ-6KNDTH08eZ-2Rb3wjdMzCMx08UjcD8sx4or3Ei4Bvb7pBf4ZZO0lg0dLIfhLB2TKX9vhqhQzCiyLvJPhXEQOCXknjhCRLKExKRQzVtVf2FfjW2EWFIBi- -FhKxHzwajGaiZPEmArjs0B_W00]--></g></svg>