<svg xmlns="http://www.w3.org/2000/svg" xmlns:xlink="http://www.w3.org/1999/xlink" contentStyleType="text/css" data-diagram-type="ACTIVITY" height="627px" preserveAspectRatio="none" style="width:265px;height:627px;background:#FFFFFF;" version="1.1" viewBox="0 0 265 627" width="265px" zoomAndPan="magnify"><defs/><g><ellipse cx="132.7207" cy="20" fill="#222222" rx="10" ry="10" style="stroke:#222222;stroke-width:1;"/><rect fill="#F1F1F1" height="35.0938" rx="12.5" ry="12.5" style="stroke:#181818;stroke-width:0.5;" width="223.4316" x="21.0049" y="50"/><text fill="#000000" font-family="sans-serif" font-size="12" lengthAdjust="spacing" textLength="203.4316" x="31.0049" y="72.457">Verificar archivos anotados y atributos</text><rect fill="#F1F1F1" height="35.0938" rx="12.5" ry="12.5" style="stroke:#181818;stroke-width:0.5;" width="120.0313" x="72.7051" y="154.0117"/><text fill="#000000" font-family="sans-serif" font-size="12" lengthAdjust="spacing" textLength="100.0313" x="82.7051" y="176.4688">Enviar correo error</text><ellipse cx="132.7207" cy="228.0586" fill="none" rx="11" ry="11" style="stroke:#222222;stroke-width:1;"/><ellipse cx="132.7207" cy="228.0586" fill="#222222" rx="6" ry="6" style="stroke:#222222;stroke-width:1;"/><polygon fill="#F1F1F1" points="103.6765,105.0938,161.7649,105.0938,173.7649,117.0938,161.7649,129.0938,103.6765,129.0938,91.6765,117.0938,103.6765,105.0938" style="stroke:#181818;stroke-width:0.5;"/><text fill="#000000" font-family="sans-serif" font-size="11" lengthAdjust="spacing" textLength="18.3369" x="136.7207" y="140.5127">S&#195;&#173;</text><text fill="#000000" font-family="sans-serif" font-size="11" lengthAdjust="spacing" textLength="58.0884" x="103.6765" y="121.5947">No existen?</text><rect fill="#F1F1F1" height="35.0938" rx="12.5" ry="12.5" style="stroke:#181818;stroke-width:0.5;" width="243.4414" x="11" y="281.0586"/><text fill="#000000" font-family="sans-serif" font-size="12" lengthAdjust="spacing" textLength="223.4414" x="21" y="303.5156">Ejecutar DeclaroF29 ... escenario variable</text><rect fill="#F1F1F1" height="35.0938" rx="12.5" ry="12.5" style="stroke:#181818;stroke-width:0.5;" width="134.0527" x="65.6943" y="385.0703"/><text fill="#000000" font-family="sans-serif" font-size="12" lengthAdjust="spacing" textLength="114.0527" x="75.6943" y="407.5273">Log error DeclaroF29</text><rect fill="#F1F1F1" height="35.0938" rx="12.5" ry="12.5" style="stroke:#181818;stroke-width:0.5;" width="120.0313" x="72.7051" y="440.1641"/><text fill="#000000" font-family="sans-serif" font-size="12" lengthAdjust="spacing" textLength="100.0313" x="82.7051" y="462.6211">Enviar correo error</text><rect fill="#F1F1F1" height="35.0938" rx="12.5" ry="12.5" style="stroke:#181818;stroke-width:0.5;" width="75.0137" x="95.2139" y="495.2578"/><text fill="#000000" font-family="sans-serif" font-size="12" lengthAdjust="spacing" textLength="55.0137" x="105.2139" y="517.7148">swError=1</text><polygon fill="#F1F1F1" points="100.1584,336.1523,165.283,336.1523,177.283,348.1523,165.283,360.1523,100.1584,360.1523,88.1584,348.1523,100.1584,336.1523" style="stroke:#181818;stroke-width:0.5;"/><text fill="#000000" font-family="sans-serif" font-size="11" lengthAdjust="spacing" textLength="18.3369" x="136.7207" y="371.5713">S&#195;&#173;</text><text fill="#000000" font-family="sans-serif" font-size="11" lengthAdjust="spacing" textLength="65.1245" x="100.1584" y="352.6533">CodRet != 0?</text><polygon fill="#F1F1F1" points="132.7207,550.3516,144.7207,562.3516,132.7207,574.3516,120.7207,562.3516,132.7207,550.3516" style="stroke:#181818;stroke-width:0.5;"/><ellipse cx="132.7207" cy="605.3516" fill="none" rx="11" ry="11" style="stroke:#222222;stroke-width:1;"/><ellipse cx="132.7207" cy="605.3516" fill="#222222" rx="6" ry="6" style="stroke:#222222;stroke-width:1;"/><line style="stroke:#181818;stroke-width:1;" x1="132.7207" x2="132.7207" y1="30" y2="50"/><polygon fill="#181818" points="128.7207,40,132.7207,50,136.7207,40,132.7207,44" style="stroke:#181818;stroke-width:1;"/><line style="stroke:#181818;stroke-width:1;" x1="132.7207" x2="132.7207" y1="189.1055" y2="217.0586"/><polygon fill="#181818" points="128.7207,207.0586,132.7207,217.0586,136.7207,207.0586,132.7207,211.0586" style="stroke:#181818;stroke-width:1;"/><line style="stroke:#181818;stroke-width:1;" x1="132.7207" x2="132.7207" y1="129.0938" y2="154.0117"/><polygon fill="#181818" points="128.7207,144.0117,132.7207,154.0117,136.7207,144.0117,132.7207,148.0117" style="stroke:#181818;stroke-width:1;"/><line style="stroke:#181818;stroke-width:1;" x1="173.7649" x2="202.7363" y1="117.0938" y2="117.0938"/><polygon fill="#181818" points="198.7363,187.0586,202.7363,197.0586,206.7363,187.0586,202.7363,191.0586" style="stroke:#181818;stroke-width:1;"/><line style="stroke:#181818;stroke-width:1;" x1="202.7363" x2="202.7363" y1="117.0938" y2="261.0586"/><line style="stroke:#181818;stroke-width:1;" x1="202.7363" x2="132.7207" y1="261.0586" y2="261.0586"/><line style="stroke:#181818;stroke-width:1;" x1="132.7207" x2="132.7207" y1="261.0586" y2="281.0586"/><polygon fill="#181818" points="128.7207,271.0586,132.7207,281.0586,136.7207,271.0586,132.7207,275.0586" style="stroke:#181818;stroke-width:1;"/><line style="stroke:#181818;stroke-width:1;" x1="132.7207" x2="132.7207" y1="85.0938" y2="105.0938"/><polygon fill="#181818" points="128.7207,95.0938,132.7207,105.0938,136.7207,95.0938,132.7207,99.0938" style="stroke:#181818;stroke-width:1;"/><line style="stroke:#181818;stroke-width:1;" x1="132.7207" x2="132.7207" y1="420.1641" y2="440.1641"/><polygon fill="#181818" points="128.7207,430.1641,132.7207,440.1641,136.7207,430.1641,132.7207,434.1641" style="stroke:#181818;stroke-width:1;"/><line style="stroke:#181818;stroke-width:1;" x1="132.7207" x2="132.7207" y1="475.2578" y2="495.2578"/><polygon fill="#181818" points="128.7207,485.2578,132.7207,495.2578,136.7207,485.2578,132.7207,489.2578" style="stroke:#181818;stroke-width:1;"/><line style="stroke:#181818;stroke-width:1;" x1="132.7207" x2="132.7207" y1="360.1523" y2="385.0703"/><polygon fill="#181818" points="128.7207,375.0703,132.7207,385.0703,136.7207,375.0703,132.7207,379.0703" style="stroke:#181818;stroke-width:1;"/><line style="stroke:#181818;stroke-width:1;" x1="177.283" x2="209.7471" y1="348.1523" y2="348.1523"/><polygon fill="#181818" points="205.7471,447.7109,209.7471,457.7109,213.7471,447.7109,209.7471,451.7109" style="stroke:#181818;stroke-width:1;"/><line style="stroke:#181818;stroke-width:1;" x1="209.7471" x2="209.7471" y1="348.1523" y2="562.3516"/><line style="stroke:#181818;stroke-width:1;" x1="209.7471" x2="144.7207" y1="562.3516" y2="562.3516"/><polygon fill="#181818" points="154.7207,558.3516,144.7207,562.3516,154.7207,566.3516,150.7207,562.3516" style="stroke:#181818;stroke-width:1;"/><line style="stroke:#181818;stroke-width:1;" x1="132.7207" x2="132.7207" y1="530.3516" y2="550.3516"/><polygon fill="#181818" points="128.7207,540.3516,132.7207,550.3516,136.7207,540.3516,132.7207,544.3516" style="stroke:#181818;stroke-width:1;"/><line style="stroke:#181818;stroke-width:1;" x1="132.7207" x2="132.7207" y1="316.1523" y2="336.1523"/><polygon fill="#181818" points="128.7207,326.1523,132.7207,336.1523,136.7207,326.1523,132.7207,330.1523" style="stroke:#181818;stroke-width:1;"/><line style="stroke:#181818;stroke-width:1;" x1="132.7207" x2="132.7207" y1="574.3516" y2="594.3516"/><polygon fill="#181818" points="128.7207,584.3516,132.7207,594.3516,136.7207,584.3516,132.7207,588.3516" style="stroke:#181818;stroke-width:1;"/><!--SRC=[VOwn3W5H44NxznMZezcWinjHi2fHaEZ7srb6v8tC6ulQz_W9VimJ2eLe9ZUJctjED5Hp-OgKQ_QeWEgtt4W4369OfN01DENrqIGMZcjepmNepD4eZ3fWMmhGNZwkzrl70UHbQ3ZDU56br5CLBT8_cXmSXOfhv_9oH_wOm30XlqULQNy0MPO1HKy1bGMQT76zfpTmBDM235f3wFuWpcJpvdpD5NzKydWgNtdOApv6Bxad]--></g></svg>