<svg xmlns="http://www.w3.org/2000/svg" xmlns:xlink="http://www.w3.org/1999/xlink" contentStyleType="text/css" data-diagram-type="ACTIVITY" height="627px" preserveAspectRatio="none" style="width:245px;height:627px;background:#FFFFFF;" version="1.1" viewBox="0 0 245 627" width="245px" zoomAndPan="magnify"><defs/><g><ellipse cx="122.7158" cy="20" fill="#222222" rx="10" ry="10" style="stroke:#222222;stroke-width:1;"/><rect fill="#F1F1F1" height="35.0938" rx="12.5" ry="12.5" style="stroke:#181818;stroke-width:0.5;" width="223.4316" x="11" y="50"/><text fill="#000000" font-family="sans-serif" font-size="12" lengthAdjust="spacing" textLength="203.4316" x="21" y="72.457">Verificar archivos anotados y atributos</text><rect fill="#F1F1F1" height="35.0938" rx="12.5" ry="12.5" style="stroke:#181818;stroke-width:0.5;" width="120.0313" x="62.7002" y="154.0117"/><text fill="#000000" font-family="sans-serif" font-size="12" lengthAdjust="spacing" textLength="100.0313" x="72.7002" y="176.4688">Enviar correo error</text><ellipse cx="122.7158" cy="228.0586" fill="none" rx="11" ry="11" style="stroke:#222222;stroke-width:1;"/><ellipse cx="122.7158" cy="228.0586" fill="#222222" rx="6" ry="6" style="stroke:#222222;stroke-width:1;"/><polygon fill="#F1F1F1" points="93.6716,105.0938,151.76,105.0938,163.76,117.0938,151.76,129.0938,93.6716,129.0938,81.6716,117.0938,93.6716,105.0938" style="stroke:#181818;stroke-width:0.5;"/><text fill="#000000" font-family="sans-serif" font-size="11" lengthAdjust="spacing" textLength="18.3369" x="126.7158" y="140.5127">S&#195;&#173;</text><text fill="#000000" font-family="sans-serif" font-size="11" lengthAdjust="spacing" textLength="58.0884" x="93.6716" y="121.5947">No existen?</text><rect fill="#F1F1F1" height="35.0938" rx="12.5" ry="12.5" style="stroke:#181818;stroke-width:0.5;" width="208.0918" x="18.6699" y="281.0586"/><text fill="#000000" font-family="sans-serif" font-size="12" lengthAdjust="spacing" textLength="188.0918" x="28.6699" y="303.5156">Ejecutar DeclaroF29 ... escenario 7</text><rect fill="#F1F1F1" height="35.0938" rx="12.5" ry="12.5" style="stroke:#181818;stroke-width:0.5;" width="134.0527" x="55.6895" y="385.0703"/><text fill="#000000" font-family="sans-serif" font-size="12" lengthAdjust="spacing" textLength="114.0527" x="65.6895" y="407.5273">Log error DeclaroF29</text><rect fill="#F1F1F1" height="35.0938" rx="12.5" ry="12.5" style="stroke:#181818;stroke-width:0.5;" width="120.0313" x="62.7002" y="440.1641"/><text fill="#000000" font-family="sans-serif" font-size="12" lengthAdjust="spacing" textLength="100.0313" x="72.7002" y="462.6211">Enviar correo error</text><rect fill="#F1F1F1" height="35.0938" rx="12.5" ry="12.5" style="stroke:#181818;stroke-width:0.5;" width="75.0137" x="85.209" y="495.2578"/><text fill="#000000" font-family="sans-serif" font-size="12" lengthAdjust="spacing" textLength="55.0137" x="95.209" y="517.7148">swError=1</text><polygon fill="#F1F1F1" points="90.1536,336.1523,155.2781,336.1523,167.2781,348.1523,155.2781,360.1523,90.1536,360.1523,78.1536,348.1523,90.1536,336.1523" style="stroke:#181818;stroke-width:0.5;"/><text fill="#000000" font-family="sans-serif" font-size="11" lengthAdjust="spacing" textLength="18.3369" x="126.7158" y="371.5713">S&#195;&#173;</text><text fill="#000000" font-family="sans-serif" font-size="11" lengthAdjust="spacing" textLength="65.1245" x="90.1536" y="352.6533">CodRet != 0?</text><polygon fill="#F1F1F1" points="122.7158,550.3516,134.7158,562.3516,122.7158,574.3516,110.7158,562.3516,122.7158,550.3516" style="stroke:#181818;stroke-width:0.5;"/><ellipse cx="122.7158" cy="605.3516" fill="none" rx="11" ry="11" style="stroke:#222222;stroke-width:1;"/><ellipse cx="122.7158" cy="605.3516" fill="#222222" rx="6" ry="6" style="stroke:#222222;stroke-width:1;"/><line style="stroke:#181818;stroke-width:1;" x1="122.7158" x2="122.7158" y1="30" y2="50"/><polygon fill="#181818" points="118.7158,40,122.7158,50,126.7158,40,122.7158,44" style="stroke:#181818;stroke-width:1;"/><line style="stroke:#181818;stroke-width:1;" x1="122.7158" x2="122.7158" y1="189.1055" y2="217.0586"/><polygon fill="#181818" points="118.7158,207.0586,122.7158,217.0586,126.7158,207.0586,122.7158,211.0586" style="stroke:#181818;stroke-width:1;"/><line style="stroke:#181818;stroke-width:1;" x1="122.7158" x2="122.7158" y1="129.0938" y2="154.0117"/><polygon fill="#181818" points="118.7158,144.0117,122.7158,154.0117,126.7158,144.0117,122.7158,148.0117" style="stroke:#181818;stroke-width:1;"/><line style="stroke:#181818;stroke-width:1;" x1="163.76" x2="192.7314" y1="117.0938" y2="117.0938"/><polygon fill="#181818" points="188.7314,187.0586,192.7314,197.0586,196.7314,187.0586,192.7314,191.0586" style="stroke:#181818;stroke-width:1;"/><line style="stroke:#181818;stroke-width:1;" x1="192.7314" x2="192.7314" y1="117.0938" y2="261.0586"/><line style="stroke:#181818;stroke-width:1;" x1="192.7314" x2="122.7158" y1="261.0586" y2="261.0586"/><line style="stroke:#181818;stroke-width:1;" x1="122.7158" x2="122.7158" y1="261.0586" y2="281.0586"/><polygon fill="#181818" points="118.7158,271.0586,122.7158,281.0586,126.7158,271.0586,122.7158,275.0586" style="stroke:#181818;stroke-width:1;"/><line style="stroke:#181818;stroke-width:1;" x1="122.7158" x2="122.7158" y1="85.0938" y2="105.0938"/><polygon fill="#181818" points="118.7158,95.0938,122.7158,105.0938,126.7158,95.0938,122.7158,99.0938" style="stroke:#181818;stroke-width:1;"/><line style="stroke:#181818;stroke-width:1;" x1="122.7158" x2="122.7158" y1="420.1641" y2="440.1641"/><polygon fill="#181818" points="118.7158,430.1641,122.7158,440.1641,126.7158,430.1641,122.7158,434.1641" style="stroke:#181818;stroke-width:1;"/><line style="stroke:#181818;stroke-width:1;" x1="122.7158" x2="122.7158" y1="475.2578" y2="495.2578"/><polygon fill="#181818" points="118.7158,485.2578,122.7158,495.2578,126.7158,485.2578,122.7158,489.2578" style="stroke:#181818;stroke-width:1;"/><line style="stroke:#181818;stroke-width:1;" x1="122.7158" x2="122.7158" y1="360.1523" y2="385.0703"/><polygon fill="#181818" points="118.7158,375.0703,122.7158,385.0703,126.7158,375.0703,122.7158,379.0703" style="stroke:#181818;stroke-width:1;"/><line style="stroke:#181818;stroke-width:1;" x1="167.2781" x2="199.7422" y1="348.1523" y2="348.1523"/><polygon fill="#181818" points="195.7422,447.7109,199.7422,457.7109,203.7422,447.7109,199.7422,451.7109" style="stroke:#181818;stroke-width:1;"/><line style="stroke:#181818;stroke-width:1;" x1="199.7422" x2="199.7422" y1="348.1523" y2="562.3516"/><line style="stroke:#181818;stroke-width:1;" x1="199.7422" x2="134.7158" y1="562.3516" y2="562.3516"/><polygon fill="#181818" points="144.7158,558.3516,134.7158,562.3516,144.7158,566.3516,140.7158,562.3516" style="stroke:#181818;stroke-width:1;"/><line style="stroke:#181818;stroke-width:1;" x1="122.7158" x2="122.7158" y1="530.3516" y2="550.3516"/><polygon fill="#181818" points="118.7158,540.3516,122.7158,550.3516,126.7158,540.3516,122.7158,544.3516" style="stroke:#181818;stroke-width:1;"/><line style="stroke:#181818;stroke-width:1;" x1="122.7158" x2="122.7158" y1="316.1523" y2="336.1523"/><polygon fill="#181818" points="118.7158,326.1523,122.7158,336.1523,126.7158,326.1523,122.7158,330.1523" style="stroke:#181818;stroke-width:1;"/><line style="stroke:#181818;stroke-width:1;" x1="122.7158" x2="122.7158" y1="574.3516" y2="594.3516"/><polygon fill="#181818" points="118.7158,584.3516,122.7158,594.3516,126.7158,584.3516,122.7158,588.3516" style="stroke:#181818;stroke-width:1;"/><!--SRC=[VOwn3W5H44NxznMZiyq6ZTYDA5YLA4ZqpzjPHkIDp9jTrBx7J_1ZteP28RgRcvjxJb0hQh8D2bNah80LjwU60rZFQiiOhc1LQ5ihXznG1Tqb0rueAFf90hf73ztry_Qu9mOWAtn3ySQn2CQT24iU-w1yCkXBgep9YWEwEe9XXkveXUU34QHf2XWSUYl4C7oJfbokKA4pXjuFr89tRy3NJ_x78GldeitZVlvHQQrU]--></g></svg>