<svg xmlns="http://www.w3.org/2000/svg" xmlns:xlink="http://www.w3.org/1999/xlink" contentStyleType="text/css" data-diagram-type="ACTIVITY" height="858px" preserveAspectRatio="none" style="width:280px;height:858px;background:#FFFFFF;" version="1.1" viewBox="0 0 280 858" width="280px" zoomAndPan="magnify"><defs/><g><ellipse cx="140.4082" cy="20" fill="#222222" rx="10" ry="10" style="stroke:#222222;stroke-width:1;"/><rect fill="#F1F1F1" height="35.0938" rx="12.5" ry="12.5" style="stroke:#181818;stroke-width:0.5;" width="258.8164" x="11" y="50"/><text fill="#000000" font-family="sans-serif" font-size="12" lengthAdjust="spacing" textLength="238.8164" x="21" y="72.457">Verificar existencia anotados_${nPeriodo}.txt</text><rect fill="#F1F1F1" height="35.0938" rx="12.5" ry="12.5" style="stroke:#181818;stroke-width:0.5;" width="120.0313" x="80.3926" y="154.0117"/><text fill="#000000" font-family="sans-serif" font-size="12" lengthAdjust="spacing" textLength="100.0313" x="90.3926" y="176.4688">Enviar correo error</text><ellipse cx="140.4082" cy="228.0586" fill="none" rx="11" ry="11" style="stroke:#222222;stroke-width:1;"/><ellipse cx="140.4082" cy="228.0586" fill="#222222" rx="6" ry="6" style="stroke:#222222;stroke-width:1;"/><polygon fill="#F1F1F1" points="114.4229,105.0938,166.3936,105.0938,178.3936,117.0938,166.3936,129.0938,114.4229,129.0938,102.4229,117.0938,114.4229,105.0938" style="stroke:#181818;stroke-width:0.5;"/><text fill="#000000" font-family="sans-serif" font-size="11" lengthAdjust="spacing" textLength="18.3369" x="144.4082" y="140.5127">S&#195;&#173;</text><text fill="#000000" font-family="sans-serif" font-size="11" lengthAdjust="spacing" textLength="51.9707" x="114.4229" y="121.5947">No existe?</text><rect fill="#F1F1F1" height="35.0938" rx="12.5" ry="12.5" style="stroke:#181818;stroke-width:0.5;" width="255.4648" x="12.6758" y="281.0586"/><text fill="#000000" font-family="sans-serif" font-size="12" lengthAdjust="spacing" textLength="235.4648" x="22.6758" y="303.5156">Verificar existencia atributos_${nPeriodo}.txt</text><rect fill="#F1F1F1" height="35.0938" rx="12.5" ry="12.5" style="stroke:#181818;stroke-width:0.5;" width="120.0313" x="80.3926" y="385.0703"/><text fill="#000000" font-family="sans-serif" font-size="12" lengthAdjust="spacing" textLength="100.0313" x="90.3926" y="407.5273">Enviar correo error</text><ellipse cx="140.4082" cy="459.1172" fill="none" rx="11" ry="11" style="stroke:#222222;stroke-width:1;"/><ellipse cx="140.4082" cy="459.1172" fill="#222222" rx="6" ry="6" style="stroke:#222222;stroke-width:1;"/><polygon fill="#F1F1F1" points="114.4229,336.1523,166.3936,336.1523,178.3936,348.1523,166.3936,360.1523,114.4229,360.1523,102.4229,348.1523,114.4229,336.1523" style="stroke:#181818;stroke-width:0.5;"/><text fill="#000000" font-family="sans-serif" font-size="11" lengthAdjust="spacing" textLength="18.3369" x="144.4082" y="371.5713">S&#195;&#173;</text><text fill="#000000" font-family="sans-serif" font-size="11" lengthAdjust="spacing" textLength="51.9707" x="114.4229" y="352.6533">No existe?</text><rect fill="#F1F1F1" height="35.0938" rx="12.5" ry="12.5" style="stroke:#181818;stroke-width:0.5;" width="214.7656" x="33.0254" y="512.1172"/><text fill="#000000" font-family="sans-serif" font-size="12" lengthAdjust="spacing" textLength="194.7656" x="43.0254" y="534.5742">Ejecutar DeclaroF29 ... escenario 10</text><rect fill="#F1F1F1" height="35.0938" rx="12.5" ry="12.5" style="stroke:#181818;stroke-width:0.5;" width="134.0527" x="73.3818" y="616.1289"/><text fill="#000000" font-family="sans-serif" font-size="12" lengthAdjust="spacing" textLength="114.0527" x="83.3818" y="638.5859">Log error DeclaroF29</text><rect fill="#F1F1F1" height="35.0938" rx="12.5" ry="12.5" style="stroke:#181818;stroke-width:0.5;" width="120.0313" x="80.3926" y="671.2227"/><text fill="#000000" font-family="sans-serif" font-size="12" lengthAdjust="spacing" textLength="100.0313" x="90.3926" y="693.6797">Enviar correo error</text><rect fill="#F1F1F1" height="35.0938" rx="12.5" ry="12.5" style="stroke:#181818;stroke-width:0.5;" width="75.0137" x="102.9014" y="726.3164"/><text fill="#000000" font-family="sans-serif" font-size="12" lengthAdjust="spacing" textLength="55.0137" x="112.9014" y="748.7734">swError=1</text><polygon fill="#F1F1F1" points="107.8459,567.2109,172.9705,567.2109,184.9705,579.2109,172.9705,591.2109,107.8459,591.2109,95.8459,579.2109,107.8459,567.2109" style="stroke:#181818;stroke-width:0.5;"/><text fill="#000000" font-family="sans-serif" font-size="11" lengthAdjust="spacing" textLength="18.3369" x="144.4082" y="602.6299">S&#195;&#173;</text><text fill="#000000" font-family="sans-serif" font-size="11" lengthAdjust="spacing" textLength="65.1245" x="107.8459" y="583.7119">CodRet != 0?</text><polygon fill="#F1F1F1" points="140.4082,781.4102,152.4082,793.4102,140.4082,805.4102,128.4082,793.4102,140.4082,781.4102" style="stroke:#181818;stroke-width:0.5;"/><ellipse cx="140.4082" cy="836.4102" fill="none" rx="11" ry="11" style="stroke:#222222;stroke-width:1;"/><ellipse cx="140.4082" cy="836.4102" fill="#222222" rx="6" ry="6" style="stroke:#222222;stroke-width:1;"/><line style="stroke:#181818;stroke-width:1;" x1="140.4082" x2="140.4082" y1="30" y2="50"/><polygon fill="#181818" points="136.4082,40,140.4082,50,144.4082,40,140.4082,44" style="stroke:#181818;stroke-width:1;"/><line style="stroke:#181818;stroke-width:1;" x1="140.4082" x2="140.4082" y1="189.1055" y2="217.0586"/><polygon fill="#181818" points="136.4082,207.0586,140.4082,217.0586,144.4082,207.0586,140.4082,211.0586" style="stroke:#181818;stroke-width:1;"/><line style="stroke:#181818;stroke-width:1;" x1="140.4082" x2="140.4082" y1="129.0938" y2="154.0117"/><polygon fill="#181818" points="136.4082,144.0117,140.4082,154.0117,144.4082,144.0117,140.4082,148.0117" style="stroke:#181818;stroke-width:1;"/><line style="stroke:#181818;stroke-width:1;" x1="178.3936" x2="210.4238" y1="117.0938" y2="117.0938"/><polygon fill="#181818" points="206.4238,187.0586,210.4238,197.0586,214.4238,187.0586,210.4238,191.0586" style="stroke:#181818;stroke-width:1;"/><line style="stroke:#181818;stroke-width:1;" x1="210.4238" x2="210.4238" y1="117.0938" y2="261.0586"/><line style="stroke:#181818;stroke-width:1;" x1="210.4238" x2="140.4082" y1="261.0586" y2="261.0586"/><line style="stroke:#181818;stroke-width:1;" x1="140.4082" x2="140.4082" y1="261.0586" y2="281.0586"/><polygon fill="#181818" points="136.4082,271.0586,140.4082,281.0586,144.4082,271.0586,140.4082,275.0586" style="stroke:#181818;stroke-width:1;"/><line style="stroke:#181818;stroke-width:1;" x1="140.4082" x2="140.4082" y1="85.0938" y2="105.0938"/><polygon fill="#181818" points="136.4082,95.0938,140.4082,105.0938,144.4082,95.0938,140.4082,99.0938" style="stroke:#181818;stroke-width:1;"/><line style="stroke:#181818;stroke-width:1;" x1="140.4082" x2="140.4082" y1="420.1641" y2="448.1172"/><polygon fill="#181818" points="136.4082,438.1172,140.4082,448.1172,144.4082,438.1172,140.4082,442.1172" style="stroke:#181818;stroke-width:1;"/><line style="stroke:#181818;stroke-width:1;" x1="140.4082" x2="140.4082" y1="360.1523" y2="385.0703"/><polygon fill="#181818" points="136.4082,375.0703,140.4082,385.0703,144.4082,375.0703,140.4082,379.0703" style="stroke:#181818;stroke-width:1;"/><line style="stroke:#181818;stroke-width:1;" x1="178.3936" x2="210.4238" y1="348.1523" y2="348.1523"/><polygon fill="#181818" points="206.4238,418.1172,210.4238,428.1172,214.4238,418.1172,210.4238,422.1172" style="stroke:#181818;stroke-width:1;"/><line style="stroke:#181818;stroke-width:1;" x1="210.4238" x2="210.4238" y1="348.1523" y2="492.1172"/><line style="stroke:#181818;stroke-width:1;" x1="210.4238" x2="140.4082" y1="492.1172" y2="492.1172"/><line style="stroke:#181818;stroke-width:1;" x1="140.4082" x2="140.4082" y1="492.1172" y2="512.1172"/><polygon fill="#181818" points="136.4082,502.1172,140.4082,512.1172,144.4082,502.1172,140.4082,506.1172" style="stroke:#181818;stroke-width:1;"/><line style="stroke:#181818;stroke-width:1;" x1="140.4082" x2="140.4082" y1="316.1523" y2="336.1523"/><polygon fill="#181818" points="136.4082,326.1523,140.4082,336.1523,144.4082,326.1523,140.4082,330.1523" style="stroke:#181818;stroke-width:1;"/><line style="stroke:#181818;stroke-width:1;" x1="140.4082" x2="140.4082" y1="651.2227" y2="671.2227"/><polygon fill="#181818" points="136.4082,661.2227,140.4082,671.2227,144.4082,661.2227,140.4082,665.2227" style="stroke:#181818;stroke-width:1;"/><line style="stroke:#181818;stroke-width:1;" x1="140.4082" x2="140.4082" y1="706.3164" y2="726.3164"/><polygon fill="#181818" points="136.4082,716.3164,140.4082,726.3164,144.4082,716.3164,140.4082,720.3164" style="stroke:#181818;stroke-width:1;"/><line style="stroke:#181818;stroke-width:1;" x1="140.4082" x2="140.4082" y1="591.2109" y2="616.1289"/><polygon fill="#181818" points="136.4082,606.1289,140.4082,616.1289,144.4082,606.1289,140.4082,610.1289" style="stroke:#181818;stroke-width:1;"/><line style="stroke:#181818;stroke-width:1;" x1="184.9705" x2="217.4346" y1="579.2109" y2="579.2109"/><polygon fill="#181818" points="213.4346,678.7695,217.4346,688.7695,221.4346,678.7695,217.4346,682.7695" style="stroke:#181818;stroke-width:1;"/><line style="stroke:#181818;stroke-width:1;" x1="217.4346" x2="217.4346" y1="579.2109" y2="793.4102"/><line style="stroke:#181818;stroke-width:1;" x1="217.4346" x2="152.4082" y1="793.4102" y2="793.4102"/><polygon fill="#181818" points="162.4082,789.4102,152.4082,793.4102,162.4082,797.4102,158.4082,793.4102" style="stroke:#181818;stroke-width:1;"/><line style="stroke:#181818;stroke-width:1;" x1="140.4082" x2="140.4082" y1="761.4102" y2="781.4102"/><polygon fill="#181818" points="136.4082,771.4102,140.4082,781.4102,144.4082,771.4102,140.4082,775.4102" style="stroke:#181818;stroke-width:1;"/><line style="stroke:#181818;stroke-width:1;" x1="140.4082" x2="140.4082" y1="547.2109" y2="567.2109"/><polygon fill="#181818" points="136.4082,557.2109,140.4082,567.2109,144.4082,557.2109,140.4082,561.2109" style="stroke:#181818;stroke-width:1;"/><line style="stroke:#181818;stroke-width:1;" x1="140.4082" x2="140.4082" y1="805.4102" y2="825.4102"/><polygon fill="#181818" points="136.4082,815.4102,140.4082,825.4102,144.4082,815.4102,140.4082,819.4102" style="stroke:#181818;stroke-width:1;"/><!--SRC=[jO-n3W5148RxVOgHA4vpEJft4GMd4X4IhQozELPaHsO7buZAytW9NimAXGATRlBdp_zzuqMpg7I6R4jhD0DMrWiwOpLeHw8BylFwqOr3WGewnL99fcm9qOXUtMu3P8KEekdjVBqq542QkxqDMuQOCTIOYREGUw6jGbVOKdr32jl5Jlx5pDTeTk5ZwAFPQAP1gmrn70DwWqu76ZIJ9wb7nGG5QXr8Fh26j7mIteQo7nAfF-IFkzFCNYuFhJi0]--></g></svg>