<svg xmlns="http://www.w3.org/2000/svg" xmlns:xlink="http://www.w3.org/1999/xlink" contentStyleType="text/css" data-diagram-type="ACTIVITY" height="1515px" preserveAspectRatio="none" style="width:364px;height:1515px;background:#FFFFFF;" version="1.1" viewBox="0 0 364 1515" width="364px" zoomAndPan="magnify"><title>Flujo del Shell inicial.sh</title><defs><filter height="300%" id="f1c34iahufnpz4" width="300%" x="-1" y="-1"><feGaussianBlur result="blurOut" stdDeviation="2"/><feColorMatrix in="blurOut" result="blurOut2" type="matrix" values="0 0 0 0 0 0 0 0 0 0 0 0 0 0 0 0 0 0 .4 0"/><feOffset dx="4" dy="4" in="blurOut2" result="blurOut3"/><feBlend in="SourceGraphic" in2="blurOut3" mode="normal"/></filter></defs><g><g class="title" data-source-line="4"><text fill="#000000" font-family="Arial" font-size="14" font-weight="bold" lengthAdjust="spacing" textLength="158.6963" x="101.2134" y="33.1318">Flujo del Shell inicial.sh</text></g><ellipse cx="172.7202" cy="57.0986" fill="#222222" filter="url(#f1c34iahufnpz4)" rx="10" ry="10" style="stroke:#222222;stroke-width:1;"/><rect fill="#F1F1F1" filter="url(#f1c34iahufnpz4)" height="33.7988" rx="7.5" ry="7.5" style="stroke:#181818;stroke-width:0.5;" width="163.3965" x="91.022" y="87.0986"/><text fill="#000000" font-family="Arial" font-size="12" lengthAdjust="spacing" textLength="143.3965" x="101.022" y="108.3545">Leer argumento PERIODO</text><rect fill="#F1F1F1" filter="url(#f1c34iahufnpz4)" height="33.7988" rx="7.5" ry="7.5" style="stroke:#181818;stroke-width:0.5;" width="118.0215" x="113.7095" y="189.7969"/><text fill="#000000" font-family="Arial" font-size="12" lengthAdjust="spacing" textLength="98.0215" x="123.7095" y="211.0527">Mostrar uso y salir</text><ellipse cx="172.7202" cy="263.1963" fill="none" filter="url(#f1c34iahufnpz4)" rx="11" ry="11" style="stroke:#222222;stroke-width:1;"/><ellipse cx="172.7202" cy="263.1963" fill="#222222" rx="6" ry="6" style="stroke:#222222;stroke-width:1;"/><polygon fill="#F1F1F1" filter="url(#f1c34iahufnpz4)" points="105.0151,140.8975,240.4253,140.8975,252.4253,152.8975,240.4253,164.8975,105.0151,164.8975,93.0151,152.8975,105.0151,140.8975" style="stroke:#181818;stroke-width:0.5;"/><text fill="#000000" font-family="Arial" font-size="12" lengthAdjust="spacing" textLength="15.3398" x="176.7202" y="176.1533">No</text><text fill="#000000" font-family="Arial" font-size="12" lengthAdjust="spacing" textLength="135.4102" x="105.0151" y="157.2539">&#194;&#191;Parametro entregado?</text><rect fill="#F1F1F1" filter="url(#f1c34iahufnpz4)" height="33.7988" rx="7.5" ry="7.5" style="stroke:#181818;stroke-width:0.5;" width="175.3906" x="85.0249" y="316.1963"/><text fill="#000000" font-family="Arial" font-size="12" lengthAdjust="spacing" textLength="155.3906" x="95.0249" y="337.4521">Detectar servidor (hostname)</text><rect fill="#F1F1F1" filter="url(#f1c34iahufnpz4)" height="33.7988" rx="7.5" ry="7.5" style="stroke:#181818;stroke-width:0.5;" width="298.748" x="23.3462" y="369.9951"/><text fill="#000000" font-family="Arial" font-size="12" lengthAdjust="spacing" textLength="278.748" x="33.3462" y="391.251">Configurar ORACLE_HOME, ORACLE_SID y PATH</text><rect fill="#F1F1F1" filter="url(#f1c34iahufnpz4)" height="33.7988" rx="7.5" ry="7.5" style="stroke:#181818;stroke-width:0.5;" width="212.75" x="66.3452" y="423.7939"/><text fill="#000000" font-family="Arial" font-size="12" lengthAdjust="spacing" textLength="192.75" x="76.3452" y="445.0498">Ir a $HOME/SifmNoDec/bin4310/bin</text><rect fill="#F1F1F1" filter="url(#f1c34iahufnpz4)" height="33.7988" rx="7.5" ry="7.5" style="stroke:#181818;stroke-width:0.5;" width="226.1387" x="59.6509" y="477.5928"/><text fill="#000000" font-family="Arial" font-size="12" lengthAdjust="spacing" textLength="206.1387" x="69.6509" y="498.8486">Leer credenciales de usuario4310.pwd</text><rect fill="#F1F1F1" filter="url(#f1c34iahufnpz4)" height="47.5977" rx="7.5" ry="7.5" style="stroke:#181818;stroke-width:0.5;" width="279.459" x="32.9907" y="531.3916"/><text fill="#000000" font-family="Arial" font-size="12" lengthAdjust="spacing" textLength="259.459" x="42.9907" y="552.6475">Definir variables de fecha y nombres de archivos</text><text fill="#000000" font-family="Arial" font-size="12" lengthAdjust="spacing" textLength="211.4238" x="42.9907" y="566.4463">(atributos.txt, anotados.txt, temporal.txt)</text><rect fill="#F1F1F1" filter="url(#f1c34iahufnpz4)" height="33.7988" rx="7.5" ry="7.5" style="stroke:#181818;stroke-width:0.5;" width="151.3965" x="97.022" y="598.9893"/><text fill="#000000" font-family="Arial" font-size="12" lengthAdjust="spacing" textLength="131.3965" x="107.022" y="620.2451">Inicializar log con LogP()</text><rect fill="#F1F1F1" filter="url(#f1c34iahufnpz4)" height="47.5977" rx="7.5" ry="7.5" style="stroke:#181818;stroke-width:0.5;" width="208.0801" x="68.6802" y="652.7881"/><text fill="#000000" font-family="Arial" font-size="12" lengthAdjust="spacing" textLength="188.0801" x="78.6802" y="674.0439">Ejecutar SQL trunca-nomina-rut.sql</text><text fill="#000000" font-family="Arial" font-size="12" lengthAdjust="spacing" textLength="184.4121" x="78.6802" y="687.8428">-&gt; limpiar tabla temporal en Oracle</text><rect fill="#F1F1F1" filter="url(#f1c34iahufnpz4)" height="47.5977" rx="7.5" ry="7.5" style="stroke:#181818;stroke-width:0.5;" width="201.4121" x="72.0142" y="720.3857"/><text fill="#000000" font-family="Arial" font-size="12" lengthAdjust="spacing" textLength="76.0313" x="82.0142" y="741.6416">Ejecutar sqlldr</text><text fill="#000000" font-family="Arial" font-size="12" lengthAdjust="spacing" textLength="181.4121" x="82.0142" y="755.4404">para cargar tmp_nomina_mas.csv</text><rect fill="#F1F1F1" filter="url(#f1c34iahufnpz4)" height="33.7988" rx="7.5" ry="7.5" style="stroke:#181818;stroke-width:0.5;" width="133.3789" x="106.0308" y="836.8828"/><text fill="#000000" font-family="Arial" font-size="12" lengthAdjust="spacing" textLength="113.3789" x="116.0308" y="858.1387">Registrar error en log</text><rect fill="#F1F1F1" filter="url(#f1c34iahufnpz4)" height="33.7988" rx="7.5" ry="7.5" style="stroke:#181818;stroke-width:0.5;" width="124.7012" x="110.3696" y="890.6816"/><text fill="#000000" font-family="Arial" font-size="12" lengthAdjust="spacing" textLength="104.7012" x="120.3696" y="911.9375">Enviar mail de error</text><ellipse cx="172.7202" cy="955.4805" fill="none" filter="url(#f1c34iahufnpz4)" rx="11" ry="11" style="stroke:#222222;stroke-width:1;"/><ellipse cx="172.7202" cy="955.4805" fill="#222222" rx="6" ry="6" style="stroke:#222222;stroke-width:1;"/><polygon fill="#F1F1F1" filter="url(#f1c34iahufnpz4)" points="142.7056,787.9834,202.7349,787.9834,214.7349,799.9834,202.7349,811.9834,142.7056,811.9834,130.7056,799.9834,142.7056,787.9834" style="stroke:#181818;stroke-width:0.5;"/><text fill="#000000" font-family="Arial" font-size="12" lengthAdjust="spacing" textLength="15.3398" x="176.7202" y="823.2393">No</text><text fill="#000000" font-family="Arial" font-size="12" lengthAdjust="spacing" textLength="60.0293" x="142.7056" y="804.3398">Carga OK?</text><rect fill="#F1F1F1" filter="url(#f1c34iahufnpz4)" height="33.7988" rx="7.5" ry="7.5" style="stroke:#181818;stroke-width:0.5;" width="209.4336" x="68.0034" y="1008.4805"/><text fill="#000000" font-family="Arial" font-size="12" lengthAdjust="spacing" textLength="189.4336" x="78.0034" y="1029.7363">Ejecutar segmento-plan4-AS-03.sql</text><rect fill="#F1F1F1" filter="url(#f1c34iahufnpz4)" height="47.5977" rx="7.5" ry="7.5" style="stroke:#181818;stroke-width:0.5;" width="190.1035" x="77.6685" y="1062.2793"/><text fill="#000000" font-family="Arial" font-size="12" lengthAdjust="spacing" textLength="170.1035" x="87.6685" y="1083.5352">Generar atributos_&lt;periodo&gt;.txt</text><text fill="#000000" font-family="Arial" font-size="12" lengthAdjust="spacing" textLength="156.041" x="87.6685" y="1097.334">(FAEL, FPYM, DS543, CSEI)</text><rect fill="#F1F1F1" filter="url(#f1c34iahufnpz4)" height="47.5977" rx="7.5" ry="7.5" style="stroke:#181818;stroke-width:0.5;" width="166.7598" x="89.3403" y="1129.877"/><text fill="#000000" font-family="Arial" font-size="12" lengthAdjust="spacing" textLength="146.7598" x="99.3403" y="1151.1328">Ejecutar anota-plan2-01.sql</text><text fill="#000000" font-family="Arial" font-size="12" lengthAdjust="spacing" textLength="108.7383" x="99.3403" y="1164.9316">y anota-plan2-02.sql</text><rect fill="#F1F1F1" filter="url(#f1c34iahufnpz4)" height="33.7988" rx="7.5" ry="7.5" style="stroke:#181818;stroke-width:0.5;" width="193.4551" x="75.9927" y="1197.4746"/><text fill="#000000" font-family="Arial" font-size="12" lengthAdjust="spacing" textLength="173.4551" x="85.9927" y="1218.7305">Generar anotados_&lt;periodo&gt;.txt</text><rect fill="#F1F1F1" filter="url(#f1c34iahufnpz4)" height="33.7988" rx="7.5" ry="7.5" style="stroke:#181818;stroke-width:0.5;" width="166.0859" x="89.6772" y="1251.2734"/><text fill="#000000" font-family="Arial" font-size="12" lengthAdjust="spacing" textLength="146.0859" x="99.6772" y="1272.5293">Registrar cantidades en log</text><polygon fill="#F1F1F1" filter="url(#f1c34iahufnpz4)" points="108.1821,1305.0723,237.2583,1305.0723,249.2583,1317.0723,237.2583,1329.0723,108.1821,1329.0723,96.1821,1317.0723,108.1821,1305.0723" style="stroke:#181818;stroke-width:0.5;"/><text fill="#000000" font-family="Arial" font-size="12" lengthAdjust="spacing" textLength="129.0762" x="108.1821" y="1321.4287">&#194;&#191;usuario = omegapro?</text><text fill="#000000" font-family="Arial" font-size="12" lengthAdjust="spacing" textLength="20.0039" x="76.1782" y="1314.5293">S&#195;&#173;</text><rect fill="#F1F1F1" filter="url(#f1c34iahufnpz4)" height="33.7988" rx="7.5" ry="7.5" style="stroke:#181818;stroke-width:0.5;" width="145.3789" x="11" y="1339.0723"/><text fill="#000000" font-family="Arial" font-size="12" lengthAdjust="spacing" textLength="125.3789" x="21" y="1360.3281">Copiar archivos a RIAC</text><rect fill="#F1F1F1" filter="url(#f1c34iahufnpz4)" height="33.7988" rx="7.5" ry="7.5" style="stroke:#181818;stroke-width:0.5;" width="170.7441" x="176.3789" y="1339.0723"/><text fill="#000000" font-family="Arial" font-size="12" lengthAdjust="spacing" textLength="150.7441" x="186.3789" y="1360.3281">Copiar archivos a Obligados</text><polygon fill="#F1F1F1" filter="url(#f1c34iahufnpz4)" points="172.7202,1378.8711,184.7202,1390.8711,172.7202,1402.8711,160.7202,1390.8711,172.7202,1378.8711" style="stroke:#181818;stroke-width:0.5;"/><rect fill="#F1F1F1" filter="url(#f1c34iahufnpz4)" height="33.7988" rx="7.5" ry="7.5" style="stroke:#181818;stroke-width:0.5;" width="162.0664" x="91.687" y="1422.8711"/><text fill="#000000" font-family="Arial" font-size="12" lengthAdjust="spacing" textLength="142.0664" x="101.687" y="1444.127">Fin de ejecuci&#195;&#179;n inicial.sh</text><ellipse cx="172.7202" cy="1487.6699" fill="none" filter="url(#f1c34iahufnpz4)" rx="11" ry="11" style="stroke:#222222;stroke-width:1;"/><ellipse cx="172.7202" cy="1487.6699" fill="#222222" rx="6" ry="6" style="stroke:#222222;stroke-width:1;"/><line style="stroke:#2E4053;stroke-width:2.2;" x1="172.7202" x2="172.7202" y1="67.0986" y2="87.0986"/><polygon fill="#2E4053" points="168.7202,77.0986,176.7202,77.0986,172.7202,87.0986" style="stroke:#2E4053;stroke-width:1;"/><line style="stroke:#2E4053;stroke-width:2.2;" x1="172.7202" x2="172.7202" y1="223.5957" y2="252.1963"/><polygon fill="#2E4053" points="168.7202,242.1963,176.7202,242.1963,172.7202,252.1963" style="stroke:#2E4053;stroke-width:1;"/><line style="stroke:#2E4053;stroke-width:2.2;" x1="172.7202" x2="172.7202" y1="164.8975" y2="189.7969"/><polygon fill="#2E4053" points="168.7202,179.7969,176.7202,179.7969,172.7202,189.7969" style="stroke:#2E4053;stroke-width:1;"/><line style="stroke:#2E4053;stroke-width:2.2;" x1="252.4253" x2="264.4253" y1="152.8975" y2="152.8975"/><polygon fill="#2E4053" points="260.4253,222.1963,268.4253,222.1963,264.4253,232.1963" style="stroke:#2E4053;stroke-width:2.2;"/><line style="stroke:#2E4053;stroke-width:2.2;" x1="264.4253" x2="264.4253" y1="152.8975" y2="296.1963"/><line style="stroke:#2E4053;stroke-width:2.2;" x1="264.4253" x2="172.7202" y1="296.1963" y2="296.1963"/><line style="stroke:#2E4053;stroke-width:2.2;" x1="172.7202" x2="172.7202" y1="296.1963" y2="316.1963"/><polygon fill="#2E4053" points="168.7202,306.1963,176.7202,306.1963,172.7202,316.1963" style="stroke:#2E4053;stroke-width:1;"/><line style="stroke:#2E4053;stroke-width:2.2;" x1="172.7202" x2="172.7202" y1="120.8975" y2="140.8975"/><polygon fill="#2E4053" points="168.7202,130.8975,176.7202,130.8975,172.7202,140.8975" style="stroke:#2E4053;stroke-width:1;"/><line style="stroke:#2E4053;stroke-width:2.2;" x1="172.7202" x2="172.7202" y1="349.9951" y2="369.9951"/><polygon fill="#2E4053" points="168.7202,359.9951,176.7202,359.9951,172.7202,369.9951" style="stroke:#2E4053;stroke-width:1;"/><line style="stroke:#2E4053;stroke-width:2.2;" x1="172.7202" x2="172.7202" y1="403.7939" y2="423.7939"/><polygon fill="#2E4053" points="168.7202,413.7939,176.7202,413.7939,172.7202,423.7939" style="stroke:#2E4053;stroke-width:1;"/><line style="stroke:#2E4053;stroke-width:2.2;" x1="172.7202" x2="172.7202" y1="457.5928" y2="477.5928"/><polygon fill="#2E4053" points="168.7202,467.5928,176.7202,467.5928,172.7202,477.5928" style="stroke:#2E4053;stroke-width:1;"/><line style="stroke:#2E4053;stroke-width:2.2;" x1="172.7202" x2="172.7202" y1="511.3916" y2="531.3916"/><polygon fill="#2E4053" points="168.7202,521.3916,176.7202,521.3916,172.7202,531.3916" style="stroke:#2E4053;stroke-width:1;"/><line style="stroke:#2E4053;stroke-width:2.2;" x1="172.7202" x2="172.7202" y1="578.9893" y2="598.9893"/><polygon fill="#2E4053" points="168.7202,588.9893,176.7202,588.9893,172.7202,598.9893" style="stroke:#2E4053;stroke-width:1;"/><line style="stroke:#2E4053;stroke-width:2.2;" x1="172.7202" x2="172.7202" y1="632.7881" y2="652.7881"/><polygon fill="#2E4053" points="168.7202,642.7881,176.7202,642.7881,172.7202,652.7881" style="stroke:#2E4053;stroke-width:1;"/><line style="stroke:#2E4053;stroke-width:2.2;" x1="172.7202" x2="172.7202" y1="700.3857" y2="720.3857"/><polygon fill="#2E4053" points="168.7202,710.3857,176.7202,710.3857,172.7202,720.3857" style="stroke:#2E4053;stroke-width:1;"/><line style="stroke:#2E4053;stroke-width:2.2;" x1="172.7202" x2="172.7202" y1="870.6816" y2="890.6816"/><polygon fill="#2E4053" points="168.7202,880.6816,176.7202,880.6816,172.7202,890.6816" style="stroke:#2E4053;stroke-width:1;"/><line style="stroke:#2E4053;stroke-width:2.2;" x1="172.7202" x2="172.7202" y1="924.4805" y2="944.4805"/><polygon fill="#2E4053" points="168.7202,934.4805,176.7202,934.4805,172.7202,944.4805" style="stroke:#2E4053;stroke-width:1;"/><line style="stroke:#2E4053;stroke-width:2.2;" x1="172.7202" x2="172.7202" y1="811.9834" y2="836.8828"/><polygon fill="#2E4053" points="168.7202,826.8828,176.7202,826.8828,172.7202,836.8828" style="stroke:#2E4053;stroke-width:1;"/><line style="stroke:#2E4053;stroke-width:2.2;" x1="214.7349" x2="249.4097" y1="799.9834" y2="799.9834"/><polygon fill="#2E4053" points="245.4097,888.6816,253.4097,888.6816,249.4097,898.6816" style="stroke:#2E4053;stroke-width:2.2;"/><line style="stroke:#2E4053;stroke-width:2.2;" x1="249.4097" x2="249.4097" y1="799.9834" y2="988.4805"/><line style="stroke:#2E4053;stroke-width:2.2;" x1="249.4097" x2="172.7202" y1="988.4805" y2="988.4805"/><line style="stroke:#2E4053;stroke-width:2.2;" x1="172.7202" x2="172.7202" y1="988.4805" y2="1008.4805"/><polygon fill="#2E4053" points="168.7202,998.4805,176.7202,998.4805,172.7202,1008.4805" style="stroke:#2E4053;stroke-width:1;"/><line style="stroke:#2E4053;stroke-width:2.2;" x1="172.7202" x2="172.7202" y1="767.9834" y2="787.9834"/><polygon fill="#2E4053" points="168.7202,777.9834,176.7202,777.9834,172.7202,787.9834" style="stroke:#2E4053;stroke-width:1;"/><line style="stroke:#2E4053;stroke-width:2.2;" x1="172.7202" x2="172.7202" y1="1042.2793" y2="1062.2793"/><polygon fill="#2E4053" points="168.7202,1052.2793,176.7202,1052.2793,172.7202,1062.2793" style="stroke:#2E4053;stroke-width:1;"/><line style="stroke:#2E4053;stroke-width:2.2;" x1="172.7202" x2="172.7202" y1="1109.877" y2="1129.877"/><polygon fill="#2E4053" points="168.7202,1119.877,176.7202,1119.877,172.7202,1129.877" style="stroke:#2E4053;stroke-width:1;"/><line style="stroke:#2E4053;stroke-width:2.2;" x1="172.7202" x2="172.7202" y1="1177.4746" y2="1197.4746"/><polygon fill="#2E4053" points="168.7202,1187.4746,176.7202,1187.4746,172.7202,1197.4746" style="stroke:#2E4053;stroke-width:1;"/><line style="stroke:#2E4053;stroke-width:2.2;" x1="172.7202" x2="172.7202" y1="1231.2734" y2="1251.2734"/><polygon fill="#2E4053" points="168.7202,1241.2734,176.7202,1241.2734,172.7202,1251.2734" style="stroke:#2E4053;stroke-width:1;"/><line style="stroke:#2E4053;stroke-width:2.2;" x1="96.1821" x2="83.6895" y1="1317.0723" y2="1317.0723"/><line style="stroke:#2E4053;stroke-width:2.2;" x1="83.6895" x2="83.6895" y1="1317.0723" y2="1339.0723"/><polygon fill="#2E4053" points="79.6895,1329.0723,87.6895,1329.0723,83.6895,1339.0723" style="stroke:#2E4053;stroke-width:1;"/><line style="stroke:#2E4053;stroke-width:2.2;" x1="249.2583" x2="261.751" y1="1317.0723" y2="1317.0723"/><line style="stroke:#2E4053;stroke-width:2.2;" x1="261.751" x2="261.751" y1="1317.0723" y2="1339.0723"/><polygon fill="#2E4053" points="257.751,1329.0723,265.751,1329.0723,261.751,1339.0723" style="stroke:#2E4053;stroke-width:1;"/><line style="stroke:#2E4053;stroke-width:2.2;" x1="83.6895" x2="83.6895" y1="1372.8711" y2="1390.8711"/><line style="stroke:#2E4053;stroke-width:2.2;" x1="83.6895" x2="160.7202" y1="1390.8711" y2="1390.8711"/><polygon fill="#2E4053" points="150.7202,1386.8711,160.7202,1390.8711,150.7202,1394.8711" style="stroke:#2E4053;stroke-width:1;"/><line style="stroke:#2E4053;stroke-width:2.2;" x1="261.751" x2="261.751" y1="1372.8711" y2="1390.8711"/><line style="stroke:#2E4053;stroke-width:2.2;" x1="261.751" x2="184.7202" y1="1390.8711" y2="1390.8711"/><polygon fill="#2E4053" points="194.7202,1386.8711,184.7202,1390.8711,194.7202,1394.8711" style="stroke:#2E4053;stroke-width:1;"/><line style="stroke:#2E4053;stroke-width:2.2;" x1="172.7202" x2="172.7202" y1="1285.0723" y2="1305.0723"/><polygon fill="#2E4053" points="168.7202,1295.0723,176.7202,1295.0723,172.7202,1305.0723" style="stroke:#2E4053;stroke-width:1;"/><line style="stroke:#2E4053;stroke-width:2.2;" x1="172.7202" x2="172.7202" y1="1402.8711" y2="1422.8711"/><polygon fill="#2E4053" points="168.7202,1412.8711,176.7202,1412.8711,172.7202,1422.8711" style="stroke:#2E4053;stroke-width:1;"/><line style="stroke:#2E4053;stroke-width:2.2;" x1="172.7202" x2="172.7202" y1="1456.6699" y2="1476.6699"/><polygon fill="#2E4053" points="168.7202,1466.6699,176.7202,1466.6699,172.7202,1476.6699" style="stroke:#2E4053;stroke-width:1;"/><!--SRC=[RLDDZzCm4BtxLmmIXrPgifzS6bXKjIbRqTsKXWkdodMcgLUE7Modi1pXzt3Y1o3j_Z76wSVIXPDbp_YzcVTcNaWjL5CWnF69y_SANLmtbMBCIwyGnggvCr2WWdoDIe7KKaYkOhTcZ3dFhMUiFqMqm6tPLAYzWLawdsIZB65o1Pt7xm-_Pzpo2hqrG76B9I_CsoxuDMhet9ek0-ZV6ESjjz0u0_VWk98seNVdJSrG5t95D2FqA8WI7DgDB8o5pfg-QSBk9gm_D7ebooQWPFF1S9ekhhERjBU_v9CH8Sy67wyJmffGmV0o99paSbNTcX6AawNKbnTdf-5Czcq9YmNgq3Cwqe4ARBYL9kJ5zPSYQUjQaImMDXJWortU2iMQ4w4srT9kdxWLQxanZdMujtBPUEDY_zNtW6lZIPFTpMDL6qiQqwtRrhhLN7wZpfGfGHWDKrFEEcqqlKFH15No3rFmjj62HqGgDOziusFtMR7e2fIiQab9dWha1mho0pBBXS8Z9FgZ2ijgiWq4-Hh-LVLYYxgek8k5sspj7OOmPE-V-pd7KcuTHMl9AGfHwS7IVgetePAAInLKQUF_UFrK2vRjL4Mruleo6kJHwKLeYWn_Xne3mq7DnUiQoPl2N0NjM6SyIASz6Cy-tVHWbB-wlEZ1C4ydnxAruhVevz7fMQlN_V7Z-NE-dLt7T07qgMl1jPS5ByZvVUk7TTYD4Bm1Kz4orFPf6_B77my_Mm67flLhFpCqhVF9O9WmL0x_7y-MIeRLSib1nR7KhSIXLo49-vV-QuCJ5YJ_0m00]--></g></svg>