<svg xmlns="http://www.w3.org/2000/svg" xmlns:xlink="http://www.w3.org/1999/xlink" contentStyleType="text/css" data-diagram-type="ACTIVITY" height="1715px" preserveAspectRatio="none" style="width:840px;height:1715px;background:#FFFFFF;" version="1.1" viewBox="0 0 840 1715" width="840px" zoomAndPan="magnify"><defs><filter height="300%" id="f1wtnnebh9f4lj" width="300%" x="-1" y="-1"><feGaussianBlur result="blurOut" stdDeviation="2"/><feColorMatrix in="blurOut" result="blurOut2" type="matrix" values="0 0 0 0 0 0 0 0 0 0 0 0 0 0 0 0 0 0 .4 0"/><feOffset dx="4" dy="4" in="blurOut2" result="blurOut3"/><feBlend in="SourceGraphic" in2="blurOut3" mode="normal"/></filter></defs><g><ellipse cx="583.6206" cy="20" fill="#222222" filter="url(#f1wtnnebh9f4lj)" rx="10" ry="10" style="stroke:#222222;stroke-width:1;"/><rect fill="#F1F1F1" filter="url(#f1wtnnebh9f4lj)" height="33.7988" rx="7.5" ry="7.5" style="stroke:#181818;stroke-width:0.5;" width="251.4453" x="457.8979" y="50"/><text fill="#000000" font-family="Arial" font-size="12" lengthAdjust="spacing" textLength="231.4453" x="467.8979" y="71.2559">Validar par&#195;&#161;metros [nPeriodo, nEscenario]</text><polygon fill="#F1F1F1" filter="url(#f1wtnnebh9f4lj)" points="492.5542,103.7988,674.687,103.7988,686.687,115.7988,674.687,127.7988,492.5542,127.7988,480.5542,115.7988,492.5542,103.7988" style="stroke:#181818;stroke-width:0.5;"/><text fill="#000000" font-family="Arial" font-size="12" lengthAdjust="spacing" textLength="182.1328" x="492.5542" y="120.1553">Periodo v&#195;&#161;lido [201401-202412]?</text><text fill="#000000" font-family="Arial" font-size="12" lengthAdjust="spacing" textLength="20.0039" x="460.5503" y="113.2559">S&#195;&#173;</text><text fill="#000000" font-family="Arial" font-size="12" lengthAdjust="spacing" textLength="15.3398" x="686.687" y="113.2559">No</text><polygon fill="#F1F1F1" filter="url(#f1wtnnebh9f4lj)" points="345.9482,137.7988,480.0166,137.7988,492.0166,149.7988,480.0166,161.7988,345.9482,161.7988,333.9482,149.7988,345.9482,137.7988" style="stroke:#181818;stroke-width:0.5;"/><text fill="#000000" font-family="Arial" font-size="12" lengthAdjust="spacing" textLength="134.0684" x="345.9482" y="154.1553">Escenario v&#195;&#161;lido [1-10]?</text><text fill="#000000" font-family="Arial" font-size="12" lengthAdjust="spacing" textLength="20.0039" x="313.9443" y="147.2559">S&#195;&#173;</text><text fill="#000000" font-family="Arial" font-size="12" lengthAdjust="spacing" textLength="15.3398" x="492.0166" y="147.2559">No</text><rect fill="#F1F1F1" filter="url(#f1wtnnebh9f4lj)" height="33.7988" rx="7.5" ry="7.5" style="stroke:#181818;stroke-width:0.5;" width="121.373" x="186.4043" y="171.7988"/><text fill="#000000" font-family="Arial" font-size="12" lengthAdjust="spacing" textLength="101.373" x="196.4043" y="193.0547">Inicializar variables</text><rect fill="#F1F1F1" filter="url(#f1wtnnebh9f4lj)" height="33.7988" rx="7.5" ry="7.5" style="stroke:#181818;stroke-width:0.5;" width="155.2637" x="169.459" y="240.5977"/><text fill="#000000" font-family="Arial" font-size="12" lengthAdjust="spacing" textLength="135.2637" x="179.459" y="261.8535">Log "Configura variables"</text><rect fill="#F1F1F1" filter="url(#f1wtnnebh9f4lj)" height="33.7988" rx="7.5" ry="7.5" style="stroke:#181818;stroke-width:0.5;" width="108.7051" x="192.7383" y="294.3965"/><text fill="#000000" font-family="Arial" font-size="12" lengthAdjust="spacing" textLength="88.7051" x="202.7383" y="315.6523">ejecutaRemoto()</text><rect fill="#F1F1F1" filter="url(#f1wtnnebh9f4lj)" height="33.7988" rx="7.5" ry="7.5" style="stroke:#181818;stroke-width:0.5;" width="120.0313" x="187.0752" y="397.0947"/><text fill="#000000" font-family="Arial" font-size="12" lengthAdjust="spacing" textLength="100.0313" x="197.0752" y="418.3506">Enviar correo error</text><polygon fill="#F1F1F1" filter="url(#f1wtnnebh9f4lj)" points="188.3975,348.1953,305.7842,348.1953,317.7842,360.1953,305.7842,372.1953,188.3975,372.1953,176.3975,360.1953,188.3975,348.1953" style="stroke:#181818;stroke-width:0.5;"/><text fill="#000000" font-family="Arial" font-size="12" lengthAdjust="spacing" textLength="20.0039" x="251.0908" y="383.4512">S&#195;&#173;</text><text fill="#000000" font-family="Arial" font-size="12" lengthAdjust="spacing" textLength="117.3867" x="188.3975" y="364.5518">Error ejecutaRemoto?</text><polygon fill="#F1F1F1" filter="url(#f1wtnnebh9f4lj)" points="247.0908,450.8936,259.0908,462.8936,247.0908,474.8936,235.0908,462.8936,247.0908,450.8936" style="stroke:#181818;stroke-width:0.5;"/><rect fill="#F1F1F1" filter="url(#f1wtnnebh9f4lj)" height="33.7988" rx="7.5" ry="7.5" style="stroke:#181818;stroke-width:0.5;" width="98.6973" x="197.7422" y="494.8936"/><text fill="#000000" font-family="Arial" font-size="12" lengthAdjust="spacing" textLength="78.6973" x="207.7422" y="516.1494">copiaRemota()</text><rect fill="#F1F1F1" filter="url(#f1wtnnebh9f4lj)" height="33.7988" rx="7.5" ry="7.5" style="stroke:#181818;stroke-width:0.5;" width="94.0156" x="200.083" y="548.6924"/><text fill="#000000" font-family="Arial" font-size="12" lengthAdjust="spacing" textLength="74.0156" x="210.083" y="569.9482">mismoLargo()</text><rect fill="#F1F1F1" filter="url(#f1wtnnebh9f4lj)" height="33.7988" rx="7.5" ry="7.5" style="stroke:#181818;stroke-width:0.5;" width="162.7344" x="165.7236" y="602.4912"/><text fill="#000000" font-family="Arial" font-size="12" lengthAdjust="spacing" textLength="142.7344" x="175.7236" y="623.7471">Contar registros Obligados</text><rect fill="#F1F1F1" filter="url(#f1wtnnebh9f4lj)" height="33.7988" rx="7.5" ry="7.5" style="stroke:#181818;stroke-width:0.5;" width="111.3887" x="191.3965" y="656.29"/><text fill="#000000" font-family="Arial" font-size="12" lengthAdjust="spacing" textLength="91.3887" x="201.3965" y="677.5459">obligadoSinF29()</text><rect fill="#F1F1F1" filter="url(#f1wtnnebh9f4lj)" height="33.7988" rx="7.5" ry="7.5" style="stroke:#181818;stroke-width:0.5;" width="190.7773" x="151.7021" y="710.0889"/><text fill="#000000" font-family="Arial" font-size="12" lengthAdjust="spacing" textLength="170.7773" x="161.7021" y="731.3447">Generar SinF29_${nPeriodo}.txt</text><rect fill="#F1F1F1" filter="url(#f1wtnnebh9f4lj)" height="33.7988" rx="7.5" ry="7.5" style="stroke:#181818;stroke-width:0.5;" width="121.3848" x="186.3984" y="763.8877"/><text fill="#000000" font-family="Arial" font-size="12" lengthAdjust="spacing" textLength="101.3848" x="196.3984" y="785.1436">copiaHaciaPluton()</text><rect fill="#F1F1F1" filter="url(#f1wtnnebh9f4lj)" height="33.7988" rx="7.5" ry="7.5" style="stroke:#181818;stroke-width:0.5;" width="120.0313" x="187.0752" y="866.5859"/><text fill="#000000" font-family="Arial" font-size="12" lengthAdjust="spacing" textLength="100.0313" x="197.0752" y="887.8418">Enviar correo error</text><ellipse cx="247.0908" cy="939.9854" fill="none" filter="url(#f1wtnnebh9f4lj)" rx="11" ry="11" style="stroke:#222222;stroke-width:1;"/><ellipse cx="247.0908" cy="939.9854" fill="#222222" rx="6" ry="6" style="stroke:#222222;stroke-width:1;"/><polygon fill="#F1F1F1" filter="url(#f1wtnnebh9f4lj)" points="182.0576,817.6865,312.124,817.6865,324.124,829.6865,312.124,841.6865,182.0576,841.6865,170.0576,829.6865,182.0576,817.6865" style="stroke:#181818;stroke-width:0.5;"/><text fill="#000000" font-family="Arial" font-size="12" lengthAdjust="spacing" textLength="20.0039" x="251.0908" y="852.9424">S&#195;&#173;</text><text fill="#000000" font-family="Arial" font-size="12" lengthAdjust="spacing" textLength="130.0664" x="182.0576" y="834.043">Error copiaHaciaPluton?</text><rect fill="#F1F1F1" filter="url(#f1wtnnebh9f4lj)" height="33.7988" rx="7.5" ry="7.5" style="stroke:#181818;stroke-width:0.5;" width="133.3789" x="180.4014" y="992.9854"/><text fill="#000000" font-family="Arial" font-size="12" lengthAdjust="spacing" textLength="113.3789" x="190.4014" y="1014.2412">ejecutaRemotoAtrib()</text><rect fill="#F1F1F1" filter="url(#f1wtnnebh9f4lj)" height="33.7988" rx="7.5" ry="7.5" style="stroke:#181818;stroke-width:0.5;" width="120.0313" x="187.0752" y="1095.6836"/><text fill="#000000" font-family="Arial" font-size="12" lengthAdjust="spacing" textLength="100.0313" x="197.0752" y="1116.9395">Enviar correo error</text><ellipse cx="247.0908" cy="1169.083" fill="none" filter="url(#f1wtnnebh9f4lj)" rx="11" ry="11" style="stroke:#222222;stroke-width:1;"/><ellipse cx="247.0908" cy="1169.083" fill="#222222" rx="6" ry="6" style="stroke:#222222;stroke-width:1;"/><polygon fill="#F1F1F1" filter="url(#f1wtnnebh9f4lj)" points="176.0605,1046.7842,318.1211,1046.7842,330.1211,1058.7842,318.1211,1070.7842,176.0605,1070.7842,164.0605,1058.7842,176.0605,1046.7842" style="stroke:#181818;stroke-width:0.5;"/><text fill="#000000" font-family="Arial" font-size="12" lengthAdjust="spacing" textLength="20.0039" x="251.0908" y="1082.04">S&#195;&#173;</text><text fill="#000000" font-family="Arial" font-size="12" lengthAdjust="spacing" textLength="142.0605" x="176.0605" y="1063.1406">Error ejecutaRemotoAtrib?</text><rect fill="#F1F1F1" filter="url(#f1wtnnebh9f4lj)" height="33.7988" rx="7.5" ry="7.5" style="stroke:#181818;stroke-width:0.5;" width="126.0605" x="184.0605" y="1222.083"/><text fill="#000000" font-family="Arial" font-size="12" lengthAdjust="spacing" textLength="106.0605" x="194.0605" y="1243.3389">recuperaAnotados()</text><rect fill="#F1F1F1" filter="url(#f1wtnnebh9f4lj)" height="33.7988" rx="7.5" ry="7.5" style="stroke:#181818;stroke-width:0.5;" width="122.709" x="185.7363" y="1275.8818"/><text fill="#000000" font-family="Arial" font-size="12" lengthAdjust="spacing" textLength="102.709" x="195.7363" y="1297.1377">recuperaAtributos()</text><polygon fill="#F1F1F1" filter="url(#f1wtnnebh9f4lj)" points="33.665,1329.6807,127.7314,1329.6807,139.7314,1341.6807,127.7314,1353.6807,33.665,1353.6807,21.665,1341.6807,33.665,1329.6807" style="stroke:#181818;stroke-width:0.5;"/><text fill="#000000" font-family="Arial" font-size="12" lengthAdjust="spacing" textLength="20.0039" x="84.6982" y="1364.9365">S&#195;&#173;</text><text fill="#000000" font-family="Arial" font-size="12" lengthAdjust="spacing" textLength="94.0664" x="33.665" y="1346.0371">nEscenario == 10</text><rect fill="#F1F1F1" filter="url(#f1wtnnebh9f4lj)" height="33.7988" rx="7.5" ry="7.5" style="stroke:#181818;stroke-width:0.5;" width="139.3965" x="11" y="1387.4795"/><text fill="#000000" font-family="Arial" font-size="12" lengthAdjust="spacing" textLength="119.3965" x="21" y="1408.7354">ejecutar escenario10()</text><polygon fill="#F1F1F1" filter="url(#f1wtnnebh9f4lj)" points="193.0615,1329.6807,280.4541,1329.6807,292.4541,1341.6807,280.4541,1353.6807,193.0615,1353.6807,181.0615,1341.6807,193.0615,1329.6807" style="stroke:#181818;stroke-width:0.5;"/><text fill="#000000" font-family="Arial" font-size="12" lengthAdjust="spacing" textLength="20.0039" x="240.7578" y="1364.9365">S&#195;&#173;</text><text fill="#000000" font-family="Arial" font-size="12" lengthAdjust="spacing" textLength="87.3926" x="193.0615" y="1346.0371">nEscenario == 7</text><text fill="#000000" font-family="Arial" font-size="12" lengthAdjust="spacing" textLength="29.3379" x="292.4541" y="1339.1377">Otros</text><rect fill="#F1F1F1" filter="url(#f1wtnnebh9f4lj)" height="33.7988" rx="7.5" ry="7.5" style="stroke:#181818;stroke-width:0.5;" width="132.7227" x="170.3965" y="1387.4795"/><text fill="#000000" font-family="Arial" font-size="12" lengthAdjust="spacing" textLength="112.7227" x="180.3965" y="1408.7354">ejecutar escenario7()</text><rect fill="#F1F1F1" filter="url(#f1wtnnebh9f4lj)" height="33.7988" rx="7.5" ry="7.5" style="stroke:#181818;stroke-width:0.5;" width="160.0625" x="323.1191" y="1383.5801"/><text fill="#000000" font-family="Arial" font-size="12" lengthAdjust="spacing" textLength="140.0625" x="333.1191" y="1404.8359">ejecutar escenarioVarios()</text><rect fill="#F1F1F1" filter="url(#f1wtnnebh9f4lj)" height="33.7988" rx="7.5" ry="7.5" style="stroke:#181818;stroke-width:0.5;" width="255.4531" x="119.3643" y="1461.2783"/><text fill="#000000" font-family="Arial" font-size="12" lengthAdjust="spacing" textLength="235.4531" x="129.3643" y="1482.5342">Generar Anotar_${nPeriodo}.txt y FiltroCSEI</text><rect fill="#F1F1F1" filter="url(#f1wtnnebh9f4lj)" height="33.7988" rx="7.5" ry="7.5" style="stroke:#181818;stroke-width:0.5;" width="114.043" x="190.0693" y="1515.0771"/><text fill="#000000" font-family="Arial" font-size="12" lengthAdjust="spacing" textLength="94.043" x="200.0693" y="1536.333">rcpPlutonAnotar()</text><rect fill="#F1F1F1" filter="url(#f1wtnnebh9f4lj)" height="33.7988" rx="7.5" ry="7.5" style="stroke:#181818;stroke-width:0.5;" width="135.4004" x="179.3906" y="1568.876"/><text fill="#000000" font-family="Arial" font-size="12" lengthAdjust="spacing" textLength="115.4004" x="189.3906" y="1590.1318">Respaldo de archivos</text><rect fill="#F1F1F1" filter="url(#f1wtnnebh9f4lj)" height="33.7988" rx="7.5" ry="7.5" style="stroke:#181818;stroke-width:0.5;" width="164.7031" x="164.7393" y="1622.6748"/><text fill="#000000" font-family="Arial" font-size="12" lengthAdjust="spacing" textLength="144.7031" x="174.7393" y="1643.9307">Enviar correos OK/ERROR</text><ellipse cx="247.0908" cy="1687.4736" fill="none" filter="url(#f1wtnnebh9f4lj)" rx="11" ry="11" style="stroke:#222222;stroke-width:1;"/><ellipse cx="247.0908" cy="1687.4736" fill="#222222" rx="6" ry="6" style="stroke:#222222;stroke-width:1;"/><rect fill="#F1F1F1" filter="url(#f1wtnnebh9f4lj)" height="33.7988" rx="7.5" ry="7.5" style="stroke:#181818;stroke-width:0.5;" width="151.3848" x="503.1816" y="171.7988"/><text fill="#000000" font-family="Arial" font-size="12" lengthAdjust="spacing" textLength="131.3848" x="513.1816" y="193.0547">Error escenario inv&#195;&#161;lido</text><ellipse cx="578.874" cy="251.5977" fill="none" filter="url(#f1wtnnebh9f4lj)" rx="11" ry="11" style="stroke:#222222;stroke-width:1;"/><ellipse cx="578.874" cy="251.5977" fill="#222222" rx="6" ry="6" style="stroke:#222222;stroke-width:1;"/><rect fill="#F1F1F1" filter="url(#f1wtnnebh9f4lj)" height="33.7988" rx="7.5" ry="7.5" style="stroke:#181818;stroke-width:0.5;" width="139.3848" x="684.5664" y="137.7988"/><text fill="#000000" font-family="Arial" font-size="12" lengthAdjust="spacing" textLength="119.3848" x="694.5664" y="159.0547">Error periodo inv&#195;&#161;lido</text><ellipse cx="754.2588" cy="217.5977" fill="none" filter="url(#f1wtnnebh9f4lj)" rx="11" ry="11" style="stroke:#222222;stroke-width:1;"/><ellipse cx="754.2588" cy="217.5977" fill="#222222" rx="6" ry="6" style="stroke:#222222;stroke-width:1;"/><line style="stroke:#2E4053;stroke-width:2.2;" x1="583.6206" x2="583.6206" y1="30" y2="50"/><polygon fill="#2E4053" points="579.6206,40,587.6206,40,583.6206,50" style="stroke:#2E4053;stroke-width:1;"/><line style="stroke:#2E4053;stroke-width:2.2;" x1="247.0908" x2="247.0908" y1="205.5977" y2="240.5977"/><polygon fill="#2E4053" points="243.0908,230.5977,251.0908,230.5977,247.0908,240.5977" style="stroke:#2E4053;stroke-width:1;"/><line style="stroke:#2E4053;stroke-width:2.2;" x1="247.0908" x2="247.0908" y1="274.3965" y2="294.3965"/><polygon fill="#2E4053" points="243.0908,284.3965,251.0908,284.3965,247.0908,294.3965" style="stroke:#2E4053;stroke-width:1;"/><line style="stroke:#2E4053;stroke-width:2.2;" x1="247.0908" x2="247.0908" y1="372.1953" y2="397.0947"/><polygon fill="#2E4053" points="243.0908,387.0947,251.0908,387.0947,247.0908,397.0947" style="stroke:#2E4053;stroke-width:1;"/><line style="stroke:#2E4053;stroke-width:2.2;" x1="317.7842" x2="329.7842" y1="360.1953" y2="360.1953"/><polygon fill="#2E4053" points="325.7842,403.9941,333.7842,403.9941,329.7842,413.9941" style="stroke:#2E4053;stroke-width:2.2;"/><line style="stroke:#2E4053;stroke-width:2.2;" x1="329.7842" x2="329.7842" y1="360.1953" y2="462.8936"/><line style="stroke:#2E4053;stroke-width:2.2;" x1="329.7842" x2="259.0908" y1="462.8936" y2="462.8936"/><polygon fill="#2E4053" points="269.0908,458.8936,259.0908,462.8936,269.0908,466.8936" style="stroke:#2E4053;stroke-width:1;"/><line style="stroke:#2E4053;stroke-width:2.2;" x1="247.0908" x2="247.0908" y1="430.8936" y2="450.8936"/><polygon fill="#2E4053" points="243.0908,440.8936,251.0908,440.8936,247.0908,450.8936" style="stroke:#2E4053;stroke-width:1;"/><line style="stroke:#2E4053;stroke-width:2.2;" x1="247.0908" x2="247.0908" y1="328.1953" y2="348.1953"/><polygon fill="#2E4053" points="243.0908,338.1953,251.0908,338.1953,247.0908,348.1953" style="stroke:#2E4053;stroke-width:1;"/><line style="stroke:#2E4053;stroke-width:2.2;" x1="247.0908" x2="247.0908" y1="474.8936" y2="494.8936"/><polygon fill="#2E4053" points="243.0908,484.8936,251.0908,484.8936,247.0908,494.8936" style="stroke:#2E4053;stroke-width:1;"/><line style="stroke:#2E4053;stroke-width:2.2;" x1="247.0908" x2="247.0908" y1="528.6924" y2="548.6924"/><polygon fill="#2E4053" points="243.0908,538.6924,251.0908,538.6924,247.0908,548.6924" style="stroke:#2E4053;stroke-width:1;"/><line style="stroke:#2E4053;stroke-width:2.2;" x1="247.0908" x2="247.0908" y1="582.4912" y2="602.4912"/><polygon fill="#2E4053" points="243.0908,592.4912,251.0908,592.4912,247.0908,602.4912" style="stroke:#2E4053;stroke-width:1;"/><line style="stroke:#2E4053;stroke-width:2.2;" x1="247.0908" x2="247.0908" y1="636.29" y2="656.29"/><polygon fill="#2E4053" points="243.0908,646.29,251.0908,646.29,247.0908,656.29" style="stroke:#2E4053;stroke-width:1;"/><line style="stroke:#2E4053;stroke-width:2.2;" x1="247.0908" x2="247.0908" y1="690.0889" y2="710.0889"/><polygon fill="#2E4053" points="243.0908,700.0889,251.0908,700.0889,247.0908,710.0889" style="stroke:#2E4053;stroke-width:1;"/><line style="stroke:#2E4053;stroke-width:2.2;" x1="247.0908" x2="247.0908" y1="743.8877" y2="763.8877"/><polygon fill="#2E4053" points="243.0908,753.8877,251.0908,753.8877,247.0908,763.8877" style="stroke:#2E4053;stroke-width:1;"/><line style="stroke:#2E4053;stroke-width:2.2;" x1="247.0908" x2="247.0908" y1="900.3848" y2="928.9854"/><polygon fill="#2E4053" points="243.0908,918.9854,251.0908,918.9854,247.0908,928.9854" style="stroke:#2E4053;stroke-width:1;"/><line style="stroke:#2E4053;stroke-width:2.2;" x1="247.0908" x2="247.0908" y1="841.6865" y2="866.5859"/><polygon fill="#2E4053" points="243.0908,856.5859,251.0908,856.5859,247.0908,866.5859" style="stroke:#2E4053;stroke-width:1;"/><line style="stroke:#2E4053;stroke-width:2.2;" x1="324.124" x2="336.124" y1="829.6865" y2="829.6865"/><polygon fill="#2E4053" points="332.124,898.9854,340.124,898.9854,336.124,908.9854" style="stroke:#2E4053;stroke-width:2.2;"/><line style="stroke:#2E4053;stroke-width:2.2;" x1="336.124" x2="336.124" y1="829.6865" y2="972.9854"/><line style="stroke:#2E4053;stroke-width:2.2;" x1="336.124" x2="247.0908" y1="972.9854" y2="972.9854"/><line style="stroke:#2E4053;stroke-width:2.2;" x1="247.0908" x2="247.0908" y1="972.9854" y2="992.9854"/><polygon fill="#2E4053" points="243.0908,982.9854,251.0908,982.9854,247.0908,992.9854" style="stroke:#2E4053;stroke-width:1;"/><line style="stroke:#2E4053;stroke-width:2.2;" x1="247.0908" x2="247.0908" y1="797.6865" y2="817.6865"/><polygon fill="#2E4053" points="243.0908,807.6865,251.0908,807.6865,247.0908,817.6865" style="stroke:#2E4053;stroke-width:1;"/><line style="stroke:#2E4053;stroke-width:2.2;" x1="247.0908" x2="247.0908" y1="1129.4824" y2="1158.083"/><polygon fill="#2E4053" points="243.0908,1148.083,251.0908,1148.083,247.0908,1158.083" style="stroke:#2E4053;stroke-width:1;"/><line style="stroke:#2E4053;stroke-width:2.2;" x1="247.0908" x2="247.0908" y1="1070.7842" y2="1095.6836"/><polygon fill="#2E4053" points="243.0908,1085.6836,251.0908,1085.6836,247.0908,1095.6836" style="stroke:#2E4053;stroke-width:1;"/><line style="stroke:#2E4053;stroke-width:2.2;" x1="330.1211" x2="342.1211" y1="1058.7842" y2="1058.7842"/><polygon fill="#2E4053" points="338.1211,1128.083,346.1211,1128.083,342.1211,1138.083" style="stroke:#2E4053;stroke-width:2.2;"/><line style="stroke:#2E4053;stroke-width:2.2;" x1="342.1211" x2="342.1211" y1="1058.7842" y2="1202.083"/><line style="stroke:#2E4053;stroke-width:2.2;" x1="342.1211" x2="247.0908" y1="1202.083" y2="1202.083"/><line style="stroke:#2E4053;stroke-width:2.2;" x1="247.0908" x2="247.0908" y1="1202.083" y2="1222.083"/><polygon fill="#2E4053" points="243.0908,1212.083,251.0908,1212.083,247.0908,1222.083" style="stroke:#2E4053;stroke-width:1;"/><line style="stroke:#2E4053;stroke-width:2.2;" x1="247.0908" x2="247.0908" y1="1026.7842" y2="1046.7842"/><polygon fill="#2E4053" points="243.0908,1036.7842,251.0908,1036.7842,247.0908,1046.7842" style="stroke:#2E4053;stroke-width:1;"/><line style="stroke:#2E4053;stroke-width:2.2;" x1="247.0908" x2="247.0908" y1="1255.8818" y2="1275.8818"/><polygon fill="#2E4053" points="243.0908,1265.8818,251.0908,1265.8818,247.0908,1275.8818" style="stroke:#2E4053;stroke-width:1;"/><line style="stroke:#2E4053;stroke-width:2.2;" x1="80.6982" x2="80.6982" y1="1353.6807" y2="1387.4795"/><polygon fill="#2E4053" points="76.6982,1377.4795,84.6982,1377.4795,80.6982,1387.4795" style="stroke:#2E4053;stroke-width:1;"/><line style="stroke:#2E4053;stroke-width:2.2;" x1="80.6982" x2="80.6982" y1="1421.2783" y2="1441.2783"/><polygon fill="#2E4053" points="76.6982,1431.2783,84.6982,1431.2783,80.6982,1441.2783" style="stroke:#2E4053;stroke-width:1;"/><line style="stroke:#2E4053;stroke-width:2.2;" x1="236.7578" x2="236.7578" y1="1353.6807" y2="1387.4795"/><polygon fill="#2E4053" points="232.7578,1377.4795,240.7578,1377.4795,236.7578,1387.4795" style="stroke:#2E4053;stroke-width:1;"/><line style="stroke:#2E4053;stroke-width:2.2;" x1="236.7578" x2="236.7578" y1="1421.2783" y2="1441.2783"/><polygon fill="#2E4053" points="232.7578,1431.2783,240.7578,1431.2783,236.7578,1441.2783" style="stroke:#2E4053;stroke-width:1;"/><line style="stroke:#2E4053;stroke-width:2.2;" x1="139.7314" x2="181.0615" y1="1341.6807" y2="1341.6807"/><polygon fill="#2E4053" points="171.0615,1337.6807,181.0615,1341.6807,171.0615,1345.6807" style="stroke:#2E4053;stroke-width:1;"/><line style="stroke:#2E4053;stroke-width:2.2;" x1="247.0908" x2="247.0908" y1="1309.6807" y2="1314.6807"/><line style="stroke:#2E4053;stroke-width:2.2;" x1="247.0908" x2="80.6982" y1="1314.6807" y2="1314.6807"/><line style="stroke:#2E4053;stroke-width:2.2;" x1="80.6982" x2="80.6982" y1="1314.6807" y2="1329.6807"/><polygon fill="#2E4053" points="76.6982,1319.6807,84.6982,1319.6807,80.6982,1329.6807" style="stroke:#2E4053;stroke-width:1;"/><line style="stroke:#2E4053;stroke-width:2.2;" x1="292.4541" x2="403.1504" y1="1341.6807" y2="1341.6807"/><line style="stroke:#2E4053;stroke-width:2.2;" x1="403.1504" x2="403.1504" y1="1341.6807" y2="1383.5801"/><polygon fill="#2E4053" points="399.1504,1373.5801,407.1504,1373.5801,403.1504,1383.5801" style="stroke:#2E4053;stroke-width:1;"/><line style="stroke:#2E4053;stroke-width:2.2;" x1="403.1504" x2="403.1504" y1="1417.3789" y2="1441.2783"/><polygon fill="#2E4053" points="399.1504,1431.2783,407.1504,1431.2783,403.1504,1441.2783" style="stroke:#2E4053;stroke-width:1;"/><line style="stroke:#2E4053;stroke-width:2.2;" x1="80.6982" x2="403.1504" y1="1441.2783" y2="1441.2783"/><line style="stroke:#2E4053;stroke-width:2.2;" x1="247.0908" x2="247.0908" y1="1441.2783" y2="1461.2783"/><polygon fill="#2E4053" points="243.0908,1451.2783,251.0908,1451.2783,247.0908,1461.2783" style="stroke:#2E4053;stroke-width:1;"/><line style="stroke:#2E4053;stroke-width:2.2;" x1="247.0908" x2="247.0908" y1="1495.0771" y2="1515.0771"/><polygon fill="#2E4053" points="243.0908,1505.0771,251.0908,1505.0771,247.0908,1515.0771" style="stroke:#2E4053;stroke-width:1;"/><line style="stroke:#2E4053;stroke-width:2.2;" x1="247.0908" x2="247.0908" y1="1548.876" y2="1568.876"/><polygon fill="#2E4053" points="243.0908,1558.876,251.0908,1558.876,247.0908,1568.876" style="stroke:#2E4053;stroke-width:1;"/><line style="stroke:#2E4053;stroke-width:2.2;" x1="247.0908" x2="247.0908" y1="1602.6748" y2="1622.6748"/><polygon fill="#2E4053" points="243.0908,1612.6748,251.0908,1612.6748,247.0908,1622.6748" style="stroke:#2E4053;stroke-width:1;"/><line style="stroke:#2E4053;stroke-width:2.2;" x1="247.0908" x2="247.0908" y1="1656.4736" y2="1676.4736"/><polygon fill="#2E4053" points="243.0908,1666.4736,251.0908,1666.4736,247.0908,1676.4736" style="stroke:#2E4053;stroke-width:1;"/><line style="stroke:#2E4053;stroke-width:2.2;" x1="578.874" x2="578.874" y1="205.5977" y2="240.5977"/><polygon fill="#2E4053" points="574.874,230.5977,582.874,230.5977,578.874,240.5977" style="stroke:#2E4053;stroke-width:1;"/><line style="stroke:#2E4053;stroke-width:2.2;" x1="333.9482" x2="247.0908" y1="149.7988" y2="149.7988"/><line style="stroke:#2E4053;stroke-width:2.2;" x1="247.0908" x2="247.0908" y1="149.7988" y2="171.7988"/><polygon fill="#2E4053" points="243.0908,161.7988,251.0908,161.7988,247.0908,171.7988" style="stroke:#2E4053;stroke-width:1;"/><line style="stroke:#2E4053;stroke-width:2.2;" x1="492.0166" x2="578.874" y1="149.7988" y2="149.7988"/><line style="stroke:#2E4053;stroke-width:2.2;" x1="578.874" x2="578.874" y1="149.7988" y2="171.7988"/><polygon fill="#2E4053" points="574.874,161.7988,582.874,161.7988,578.874,171.7988" style="stroke:#2E4053;stroke-width:1;"/><line style="stroke:#2E4053;stroke-width:2.2;" x1="754.2588" x2="754.2588" y1="171.5977" y2="206.5977"/><polygon fill="#2E4053" points="750.2588,196.5977,758.2588,196.5977,754.2588,206.5977" style="stroke:#2E4053;stroke-width:1;"/><line style="stroke:#2E4053;stroke-width:2.2;" x1="480.5542" x2="412.9824" y1="115.7988" y2="115.7988"/><line style="stroke:#2E4053;stroke-width:2.2;" x1="412.9824" x2="412.9824" y1="115.7988" y2="137.7988"/><polygon fill="#2E4053" points="408.9824,127.7988,416.9824,127.7988,412.9824,137.7988" style="stroke:#2E4053;stroke-width:1;"/><line style="stroke:#2E4053;stroke-width:2.2;" x1="686.687" x2="754.2588" y1="115.7988" y2="115.7988"/><line style="stroke:#2E4053;stroke-width:2.2;" x1="754.2588" x2="754.2588" y1="115.7988" y2="137.7988"/><polygon fill="#2E4053" points="750.2588,127.7988,758.2588,127.7988,754.2588,137.7988" style="stroke:#2E4053;stroke-width:1;"/><line style="stroke:#2E4053;stroke-width:2.2;" x1="583.6206" x2="583.6206" y1="83.7988" y2="103.7988"/><polygon fill="#2E4053" points="579.6206,93.7988,587.6206,93.7988,583.6206,103.7988" style="stroke:#2E4053;stroke-width:1;"/><!--SRC=[hLJRQjmm47ttLqn37dQXsTWc4B9BA25isj3G3Lx8ImX5QsiT1LbZ97bfMlhKB-a7z2VQ7ylu8iLx8MqXBmPhvfmvSsQaDqAbiieuZ4Q7nZvARaPbLSWWC9Pf6mJZ6oP5nZIKJF_vyVjdmQr60xVgcck16Ru5DJKfLup-xYQ1MCAWYy2gpYSmmcqSHaTXT127yL4KtxqRWhtd2WPpolWr301gcAVf0wE3ADoH3p2-L28LfEqhQLiHZ2r8-wIDNM4EU-UebYAlD7iExqs2De4_yBIoBE45MXmCMrWZGclKi1RULPqefcebg7IAMdC4NkDQ6guoiUpgf5YAbeQvAkD2c0AlcCvzuJ599RT1yroOnjxPGegSPMYSOEmEva9Tn2SU-9uhhWdP7d_U_-R6ydralzX9JyG7HcvToygYskvtC-D_MmOm5ikjxjTiFBDQBFvYTPFpIiKryPPapfaYyyb9xvaFrCMesoRYLJrlCvoUGXJk5jEf9lakEmfT0IuDtsOw_bUYupuF36RrFhoGVbD_V7Dz0znkD0RepTs0HxWGaiZFvzDBvqnQjlDl8TwnX9kIIRgEz4mmdTwB5RgRjZOLsjkFXzCacILjj9bBu3hvXDtDxGRltH7AN_WUpZNJ1tVGidjWDe0Dh04z0G00]--></g></svg>