<svg xmlns="http://www.w3.org/2000/svg" xmlns:xlink="http://www.w3.org/1999/xlink" contentStyleType="text/css" data-diagram-type="ACTIVITY" height="739px" preserveAspectRatio="none" style="width:450px;height:739px;background:#FFFFFF;" version="1.1" viewBox="0 0 450 739" width="450px" zoomAndPan="magnify"><defs/><g><ellipse cx="225.0059" cy="20" fill="#222222" rx="10" ry="10" style="stroke:#222222;stroke-width:1;"/><rect fill="#F1F1F1" height="35.0938" rx="12.5" ry="12.5" style="stroke:#181818;stroke-width:0.5;" width="260.6738" x="94.6689" y="50"/><text fill="#000000" font-family="sans-serif" font-size="12" lengthAdjust="spacing" textLength="240.6738" x="104.6689" y="72.457">Log "rcp AnotaMensual4310.txt hacia Pluton"</text><rect fill="#F1F1F1" height="35.0938" rx="12.5" ry="12.5" style="stroke:#181818;stroke-width:0.5;" width="428.0117" x="11" y="105.0938"/><text fill="#000000" font-family="sans-serif" font-size="12" lengthAdjust="spacing" textLength="408.0117" x="21" y="127.5508">rcp ${RUTASAL}/AnotaMensual4310.txt &#226;&#8224;&#8217; ${DIR_REMOTO_RSH_ANOTA}</text><rect fill="#F1F1F1" height="35.0938" rx="12.5" ry="12.5" style="stroke:#181818;stroke-width:0.5;" width="120.0313" x="164.9902" y="209.1055"/><text fill="#000000" font-family="sans-serif" font-size="12" lengthAdjust="spacing" textLength="100.0313" x="174.9902" y="231.5625">Enviar correo error</text><rect fill="#F1F1F1" height="35.0938" rx="12.5" ry="12.5" style="stroke:#181818;stroke-width:0.5;" width="75.0137" x="187.499" y="279.1992"/><text fill="#000000" font-family="sans-serif" font-size="12" lengthAdjust="spacing" textLength="55.0137" x="197.499" y="301.6563">swError=1</text><polygon fill="#F1F1F1" points="192.4436,160.1875,257.5681,160.1875,269.5681,172.1875,257.5681,184.1875,192.4436,184.1875,180.4436,172.1875,192.4436,160.1875" style="stroke:#181818;stroke-width:0.5;"/><text fill="#000000" font-family="sans-serif" font-size="11" lengthAdjust="spacing" textLength="18.3369" x="229.0059" y="195.6064">S&#195;&#173;</text><text fill="#000000" font-family="sans-serif" font-size="11" lengthAdjust="spacing" textLength="65.1245" x="192.4436" y="176.6885">CodRet != 0?</text><polygon fill="#F1F1F1" points="225.0059,334.293,237.0059,346.293,225.0059,358.293,213.0059,346.293,225.0059,334.293" style="stroke:#181818;stroke-width:0.5;"/><rect fill="#F1F1F1" height="35.0938" rx="12.5" ry="12.5" style="stroke:#181818;stroke-width:0.5;" width="209.3105" x="120.3506" y="378.293"/><text fill="#000000" font-family="sans-serif" font-size="12" lengthAdjust="spacing" textLength="189.3105" x="130.3506" y="400.75">Log "Ejecuta anotacion procesa.sh"</text><rect fill="#F1F1F1" height="35.0938" rx="12.5" ry="12.5" style="stroke:#181818;stroke-width:0.5;" width="353.4863" x="48.2627" y="433.3867"/><text fill="#000000" font-family="sans-serif" font-size="12" lengthAdjust="spacing" textLength="333.4863" x="58.2627" y="455.8438">rsh ${MAQUINA_REMOTA} procesa.sh AnotaMensual4310.txt</text><rect fill="#F1F1F1" height="35.0938" rx="12.5" ry="12.5" style="stroke:#181818;stroke-width:0.5;" width="120.0313" x="164.9902" y="537.3984"/><text fill="#000000" font-family="sans-serif" font-size="12" lengthAdjust="spacing" textLength="100.0313" x="174.9902" y="559.8555">Enviar correo error</text><rect fill="#F1F1F1" height="35.0938" rx="12.5" ry="12.5" style="stroke:#181818;stroke-width:0.5;" width="75.0137" x="187.499" y="607.4922"/><text fill="#000000" font-family="sans-serif" font-size="12" lengthAdjust="spacing" textLength="55.0137" x="197.499" y="629.9492">swError=1</text><polygon fill="#F1F1F1" points="192.4436,488.4805,257.5681,488.4805,269.5681,500.4805,257.5681,512.4805,192.4436,512.4805,180.4436,500.4805,192.4436,488.4805" style="stroke:#181818;stroke-width:0.5;"/><text fill="#000000" font-family="sans-serif" font-size="11" lengthAdjust="spacing" textLength="18.3369" x="229.0059" y="523.8994">S&#195;&#173;</text><text fill="#000000" font-family="sans-serif" font-size="11" lengthAdjust="spacing" textLength="65.1245" x="192.4436" y="504.9814">CodRet != 0?</text><polygon fill="#F1F1F1" points="225.0059,662.5859,237.0059,674.5859,225.0059,686.5859,213.0059,674.5859,225.0059,662.5859" style="stroke:#181818;stroke-width:0.5;"/><ellipse cx="225.0059" cy="717.5859" fill="none" rx="11" ry="11" style="stroke:#222222;stroke-width:1;"/><ellipse cx="225.0059" cy="717.5859" fill="#222222" rx="6" ry="6" style="stroke:#222222;stroke-width:1;"/><line style="stroke:#181818;stroke-width:1;" x1="225.0059" x2="225.0059" y1="30" y2="50"/><polygon fill="#181818" points="221.0059,40,225.0059,50,229.0059,40,225.0059,44" style="stroke:#181818;stroke-width:1;"/><line style="stroke:#181818;stroke-width:1;" x1="225.0059" x2="225.0059" y1="85.0938" y2="105.0938"/><polygon fill="#181818" points="221.0059,95.0938,225.0059,105.0938,229.0059,95.0938,225.0059,99.0938" style="stroke:#181818;stroke-width:1;"/><line style="stroke:#181818;stroke-width:1;" x1="225.0059" x2="225.0059" y1="244.1992" y2="279.1992"/><polygon fill="#181818" points="221.0059,269.1992,225.0059,279.1992,229.0059,269.1992,225.0059,273.1992" style="stroke:#181818;stroke-width:1;"/><line style="stroke:#181818;stroke-width:1;" x1="225.0059" x2="225.0059" y1="184.1875" y2="209.1055"/><polygon fill="#181818" points="221.0059,199.1055,225.0059,209.1055,229.0059,199.1055,225.0059,203.1055" style="stroke:#181818;stroke-width:1;"/><line style="stroke:#181818;stroke-width:1;" x1="269.5681" x2="295.0215" y1="172.1875" y2="172.1875"/><polygon fill="#181818" points="291.0215,251.6992,295.0215,261.6992,299.0215,251.6992,295.0215,255.6992" style="stroke:#181818;stroke-width:1;"/><line style="stroke:#181818;stroke-width:1;" x1="295.0215" x2="295.0215" y1="172.1875" y2="346.293"/><line style="stroke:#181818;stroke-width:1;" x1="295.0215" x2="237.0059" y1="346.293" y2="346.293"/><polygon fill="#181818" points="247.0059,342.293,237.0059,346.293,247.0059,350.293,243.0059,346.293" style="stroke:#181818;stroke-width:1;"/><line style="stroke:#181818;stroke-width:1;" x1="225.0059" x2="225.0059" y1="314.293" y2="334.293"/><polygon fill="#181818" points="221.0059,324.293,225.0059,334.293,229.0059,324.293,225.0059,328.293" style="stroke:#181818;stroke-width:1;"/><line style="stroke:#181818;stroke-width:1;" x1="225.0059" x2="225.0059" y1="140.1875" y2="160.1875"/><polygon fill="#181818" points="221.0059,150.1875,225.0059,160.1875,229.0059,150.1875,225.0059,154.1875" style="stroke:#181818;stroke-width:1;"/><line style="stroke:#181818;stroke-width:1;" x1="225.0059" x2="225.0059" y1="358.293" y2="378.293"/><polygon fill="#181818" points="221.0059,368.293,225.0059,378.293,229.0059,368.293,225.0059,372.293" style="stroke:#181818;stroke-width:1;"/><line style="stroke:#181818;stroke-width:1;" x1="225.0059" x2="225.0059" y1="413.3867" y2="433.3867"/><polygon fill="#181818" points="221.0059,423.3867,225.0059,433.3867,229.0059,423.3867,225.0059,427.3867" style="stroke:#181818;stroke-width:1;"/><line style="stroke:#181818;stroke-width:1;" x1="225.0059" x2="225.0059" y1="572.4922" y2="607.4922"/><polygon fill="#181818" points="221.0059,597.4922,225.0059,607.4922,229.0059,597.4922,225.0059,601.4922" style="stroke:#181818;stroke-width:1;"/><line style="stroke:#181818;stroke-width:1;" x1="225.0059" x2="225.0059" y1="512.4805" y2="537.3984"/><polygon fill="#181818" points="221.0059,527.3984,225.0059,537.3984,229.0059,527.3984,225.0059,531.3984" style="stroke:#181818;stroke-width:1;"/><line style="stroke:#181818;stroke-width:1;" x1="269.5681" x2="295.0215" y1="500.4805" y2="500.4805"/><polygon fill="#181818" points="291.0215,579.9922,295.0215,589.9922,299.0215,579.9922,295.0215,583.9922" style="stroke:#181818;stroke-width:1;"/><line style="stroke:#181818;stroke-width:1;" x1="295.0215" x2="295.0215" y1="500.4805" y2="674.5859"/><line style="stroke:#181818;stroke-width:1;" x1="295.0215" x2="237.0059" y1="674.5859" y2="674.5859"/><polygon fill="#181818" points="247.0059,670.5859,237.0059,674.5859,247.0059,678.5859,243.0059,674.5859" style="stroke:#181818;stroke-width:1;"/><line style="stroke:#181818;stroke-width:1;" x1="225.0059" x2="225.0059" y1="642.5859" y2="662.5859"/><polygon fill="#181818" points="221.0059,652.5859,225.0059,662.5859,229.0059,652.5859,225.0059,656.5859" style="stroke:#181818;stroke-width:1;"/><line style="stroke:#181818;stroke-width:1;" x1="225.0059" x2="225.0059" y1="468.4805" y2="488.4805"/><polygon fill="#181818" points="221.0059,478.4805,225.0059,488.4805,229.0059,478.4805,225.0059,482.4805" style="stroke:#181818;stroke-width:1;"/><line style="stroke:#181818;stroke-width:1;" x1="225.0059" x2="225.0059" y1="686.5859" y2="706.5859"/><polygon fill="#181818" points="221.0059,696.5859,225.0059,706.5859,229.0059,696.5859,225.0059,700.5859" style="stroke:#181818;stroke-width:1;"/><!--SRC=[hO_1IiD054NtynNFugBTr1PT9HGPD62XQNIIhiDZEZKZPLwOUL510WM_mfsuzoVid_HBsgWB5rswkrpEXNC3esSHpUWUUbxN81qnfiQ51jSNv-FHa9yPAjGMuNRTCBbUBA8EF7rHYqBcSjQU7TriFtQRzztcxG1UJrMfaZGhibBbDwMSPuLiOs5NqB-YfJ8C9nCONGw0A-EWdszVlpu70Y1AtAD53vgyDmJ6U_9nruUdfCkJSIoCMzgL-3sGF1ZTC09sGjgIWzgJDW67eVhs3jL19vLtY-bS_YZ9zWzpzFs_YWQcUWy0]--></g></svg>