<svg xmlns="http://www.w3.org/2000/svg" xmlns:xlink="http://www.w3.org/1999/xlink" contentStyleType="text/css" data-diagram-type="SEQUENCE" height="527px" preserveAspectRatio="none" style="width:1124px;height:527px;background:#FFFFFF;" version="1.1" viewBox="0 0 1124 527" width="1124px" zoomAndPan="magnify"><title>Secuencia del Proceso 4310</title><defs><filter height="300%" id="f1cclh76er2izm" width="300%" x="-1" y="-1"><feGaussianBlur result="blurOut" stdDeviation="2"/><feColorMatrix in="blurOut" result="blurOut2" type="matrix" values="0 0 0 0 0 0 0 0 0 0 0 0 0 0 0 0 0 0 .4 0"/><feOffset dx="4" dy="4" in="blurOut2" result="blurOut3"/><feBlend in="SourceGraphic" in2="blurOut3" mode="normal"/></filter></defs><g><text fill="#000000" font-family="Arial" font-size="14" font-weight="bold" lengthAdjust="spacing" textLength="187.5508" x="466.1045" y="28.1318">Secuencia del Proceso 4310</text><g><title>Operaciones</title><rect fill="#000000" fill-opacity="0.00000" height="403.1836" width="8" x="38.0195" y="116.8975"/><line style="stroke:#154360;stroke-width:0.5;stroke-dasharray:5,5;" x1="42" x2="42" y1="116.8975" y2="520.0811"/></g><g><title>proce4310.sh</title><rect fill="#000000" fill-opacity="0.00000" height="403.1836" width="8" x="322.1172" y="116.8975"/><line style="stroke:#154360;stroke-width:0.5;stroke-dasharray:5,5;" x1="325.2568" x2="325.2568" y1="116.8975" y2="520.0811"/></g><g><title>Procesa4310</title><rect fill="#000000" fill-opacity="0.00000" height="403.1836" width="8" x="608.9043" y="116.8975"/><line style="stroke:#154360;stroke-width:0.5;stroke-dasharray:5,5;" x1="612.0459" x2="612.0459" y1="116.8975" y2="520.0811"/></g><g><title>Oracle DB</title><rect fill="#000000" fill-opacity="0.00000" height="403.1836" width="8" x="818.3359" y="116.8975"/><line style="stroke:#154360;stroke-width:0.5;stroke-dasharray:5,5;" x1="821.6621" x2="821.6621" y1="116.8975" y2="520.0811"/></g><g><title>Archivos TXT.Logs</title><rect fill="#000000" fill-opacity="0.00000" height="403.1836" width="8" x="920.1934" y="116.8975"/><line style="stroke:#154360;stroke-width:0.5;stroke-dasharray:5,5;" x1="924.0098" x2="924.0098" y1="116.8975" y2="520.0811"/></g><g><title>..cloud..</title><rect fill="#000000" fill-opacity="0.00000" height="403.1836" width="8" x="1051.5684" y="116.8975"/><line style="stroke:#154360;stroke-width:0.5;stroke-dasharray:5,5;" x1="1055.377" x2="1055.377" y1="116.8975" y2="520.0811"/></g><g class="participant participant-head" data-participant="user"><text fill="#154360" font-family="Arial" font-size="12" lengthAdjust="spacing" textLength="68.0391" x="5" y="114.3545">Operaciones</text><ellipse cx="42.0195" cy="58.5986" fill="#D4E6F1" filter="url(#f1cclh76er2izm)" rx="16" ry="16" style="stroke:#2874A6;stroke-width:0.5;"/><path d="M42.0195,78.5986 C46.0195,78.5986 49.0195,78.5986 53.0195,74.5986 C61.0195,74.5986 69.0195,82.5986 69.0195,90.5986 L69.0195,94.5986 C69.0195,98.5986 65.0195,102.5986 61.0195,102.5986 L23.0195,102.5986 C19.0195,102.5986 15.0195,98.5986 15.0195,94.5986 L15.0195,90.5986 C15.0195,82.5986 23.0195,74.5986 31.0195,74.5986 C35.0195,78.5986 38.0195,78.5986 42.0195,78.5986" fill="#D4E6F1" filter="url(#f1cclh76er2izm)" style="stroke:#2874A6;stroke-width:0.5;"/></g><g class="participant participant-head" data-participant="shell"><rect fill="#EBF5FB" filter="url(#f1cclh76er2izm)" height="27.7988" rx="7.5" ry="7.5" style="stroke:#1B4F72;stroke-width:0.5;" width="86.7207" x="281.2568" y="85.0986"/><text fill="#000000" font-family="Arial" font-size="12" lengthAdjust="spacing" textLength="72.7207" x="288.2568" y="103.3545">proce4310.sh</text></g><g class="participant participant-head" data-participant="proc"><rect fill="#EBF5FB" filter="url(#f1cclh76er2izm)" height="27.7988" rx="7.5" ry="7.5" style="stroke:#1B4F72;stroke-width:0.5;" width="84.7168" x="569.0459" y="85.0986"/><text fill="#000000" font-family="Arial" font-size="12" lengthAdjust="spacing" textLength="70.7168" x="576.0459" y="103.3545">Procesa4310</text></g><g class="participant participant-head" data-participant="db"><text fill="#000000" font-family="Arial" font-size="12" lengthAdjust="spacing" textLength="55.3477" x="791.6621" y="114.3545">Oracle DB</text><path d="M804.3359,67.0986 C804.3359,57.0986 822.3359,57.0986 822.3359,57.0986 C822.3359,57.0986 840.3359,57.0986 840.3359,67.0986 L840.3359,93.0986 C840.3359,103.0986 822.3359,103.0986 822.3359,103.0986 C822.3359,103.0986 804.3359,103.0986 804.3359,93.0986 L804.3359,67.0986" fill="#FADBD8" filter="url(#f1cclh76er2izm)" style="stroke:#7B241C;stroke-width:0.5;"/><path d="M804.3359,67.0986 C804.3359,77.0986 822.3359,77.0986 822.3359,77.0986 C822.3359,77.0986 840.3359,77.0986 840.3359,67.0986" fill="none" style="stroke:#7B241C;stroke-width:0.5;"/></g><g class="participant participant-head" data-participant="files"><rect fill="#E2E2F0" filter="url(#f1cclh76er2izm)" height="27.7988" rx="7.5" ry="7.5" style="stroke:#181818;stroke-width:0.5;" width="115.3672" x="867.0098" y="81.0986"/><rect fill="#E2E2F0" filter="url(#f1cclh76er2izm)" height="27.7988" rx="7.5" ry="7.5" style="stroke:#181818;stroke-width:0.5;" width="115.3672" x="863.0098" y="85.0986"/><text fill="#000000" font-family="Arial" font-size="12" lengthAdjust="spacing" textLength="101.3672" x="870.0098" y="103.3545">Archivos TXT/Logs</text></g><g class="participant participant-head" data-participant="mail"><rect fill="#EBF5FB" filter="url(#f1cclh76er2izm)" height="41.5977" rx="7.5" ry="7.5" style="stroke:#1B4F72;stroke-width:0.5;" width="117.3828" x="995.377" y="71.2998"/><text fill="#000000" font-family="Arial" font-size="12" font-style="italic" lengthAdjust="spacing" textLength="42.0352" x="1033.0508" y="89.5557">&#171;cloud&#187;</text><text fill="#000000" font-family="Arial" font-size="12" lengthAdjust="spacing" textLength="103.3828" x="1002.377" y="103.3545">Correo Institucional</text></g><g class="message" data-participant-1="user" data-participant-2="shell"><polygon fill="#2E4053" points="314.1172,142.6963,324.1172,146.6963,314.1172,150.6963" style="stroke:#2E4053;stroke-width:1;"/><line style="stroke:#2E4053;stroke-width:2.2;" x1="42.0195" x2="320.1172" y1="146.6963" y2="146.6963"/><text fill="#000000" font-family="Arial" font-size="12" lengthAdjust="spacing" textLength="260.0977" x="49.0195" y="142.1533">Ejecuta proce4310.sh (PERIODO, ESCENARIO)</text></g><g class="message" data-participant-1="shell" data-participant-2="proc"><polygon fill="#2E4053" points="600.9043,170.4951,610.9043,174.4951,600.9043,178.4951" style="stroke:#2E4053;stroke-width:1;"/><line style="stroke:#2E4053;stroke-width:2.2;" x1="326.1172" x2="606.9043" y1="174.4951" y2="174.4951"/><text fill="#000000" font-family="Arial" font-size="12" lengthAdjust="spacing" textLength="262.7871" x="333.1172" y="169.9521">Invocar Procesa4310 con par&#195;&#161;metros y archivos</text></g><g class="message" data-participant-1="proc" data-participant-2="db"><polygon fill="#2E4053" points="810.3359,198.2939,820.3359,202.2939,810.3359,206.2939" style="stroke:#2E4053;stroke-width:1;"/><line style="stroke:#2E4053;stroke-width:2.2;" x1="612.9043" x2="816.3359" y1="202.2939" y2="202.2939"/><text fill="#000000" font-family="Arial" font-size="12" lengthAdjust="spacing" textLength="100.7051" x="619.9043" y="197.751">Conectar (sid.pwd)</text></g><g class="message" data-participant-1="proc" data-participant-2="db"><polygon fill="#2E4053" points="810.3359,226.0928,820.3359,230.0928,810.3359,234.0928" style="stroke:#2E4053;stroke-width:1;"/><line style="stroke:#2E4053;stroke-width:2.2;" x1="612.9043" x2="816.3359" y1="230.0928" y2="230.0928"/><text fill="#000000" font-family="Arial" font-size="12" lengthAdjust="spacing" textLength="185.4316" x="619.9043" y="225.5498">Leer insumos (atributos, anotados)</text></g><g class="message" data-participant-1="proc" data-participant-2="proc"><line style="stroke:#2E4053;stroke-width:2.2;" x1="612.9043" x2="654.9043" y1="257.8916" y2="257.8916"/><line style="stroke:#2E4053;stroke-width:2.2;" x1="654.9043" x2="654.9043" y1="257.8916" y2="270.8916"/><line style="stroke:#2E4053;stroke-width:2.2;" x1="613.9043" x2="654.9043" y1="270.8916" y2="270.8916"/><polygon fill="#2E4053" points="623.9043,266.8916,613.9043,270.8916,623.9043,274.8916" style="stroke:#2E4053;stroke-width:1;"/><text fill="#000000" font-family="Arial" font-size="12" lengthAdjust="spacing" textLength="129.3984" x="619.9043" y="253.3486">Procesar contribuyentes</text></g><path d="M617,291.3916 L617,327.3916 A7.5,7.5 0 0 0 624.5,334.8916 L788.5,334.8916 A7.5,7.5 0 0 0 796,327.3916 L796,293.8916 L786,283.8916 L624.5,283.8916 A7.5,7.5 0 0 0 617,291.3916" fill="#FEFFDD" filter="url(#f1cclh76er2izm)" style="stroke:#181818;stroke-width:0.5;"/><path d="M786,283.8916 L786,290.1416 A3.75,3.75 0 0 0 789.75,293.8916 L796,293.8916 L786,283.8916" fill="#FEFFDD" style="stroke:#181818;stroke-width:0.5;"/><text fill="#000000" font-family="Arial" font-size="12" lengthAdjust="spacing" textLength="118.0313" x="623" y="300.1475">- marcaConAtributos()</text><text fill="#000000" font-family="Arial" font-size="12" lengthAdjust="spacing" textLength="158.1094" x="623" y="313.9463">- marcaAnotados7503/73/543</text><text fill="#000000" font-family="Arial" font-size="12" lengthAdjust="spacing" textLength="68.6777" x="623" y="327.7451">- marcaCSEI</text><g class="message" data-participant-1="proc" data-participant-2="db"><polygon fill="#2E4053" points="810.3359,359.0869,820.3359,363.0869,810.3359,367.0869" style="stroke:#2E4053;stroke-width:1;"/><line style="stroke:#2E4053;stroke-width:2.2;" x1="612.9043" x2="816.3359" y1="363.0869" y2="363.0869"/><text fill="#000000" font-family="Arial" font-size="12" lengthAdjust="spacing" textLength="172.7754" x="619.9043" y="358.5439">Actualizar tablas de anotaciones</text></g><g class="message" data-participant-1="proc" data-participant-2="files"><polygon fill="#2E4053" points="912.1934,386.8857,922.1934,390.8857,912.1934,394.8857" style="stroke:#2E4053;stroke-width:1;"/><line style="stroke:#2E4053;stroke-width:2.2;" x1="612.9043" x2="918.1934" y1="390.8857" y2="390.8857"/><text fill="#000000" font-family="Arial" font-size="12" lengthAdjust="spacing" textLength="248.7949" x="619.9043" y="386.3428">Generar Revision_xxx.txt y Anota4310_xxx.log</text></g><g class="message" data-participant-1="proc" data-participant-2="db"><polygon fill="#2E4053" points="810.3359,414.6846,820.3359,418.6846,810.3359,422.6846" style="stroke:#2E4053;stroke-width:1;"/><line style="stroke:#2E4053;stroke-width:2.2;" x1="612.9043" x2="816.3359" y1="418.6846" y2="418.6846"/><text fill="#000000" font-family="Arial" font-size="12" lengthAdjust="spacing" textLength="116.6836" x="619.9043" y="414.1416">COMMIT y RELEASE</text></g><g class="message" data-participant-1="proc" data-participant-2="mail"><polygon fill="#2E4053" points="1043.5684,442.4834,1053.5684,446.4834,1043.5684,450.4834" style="stroke:#2E4053;stroke-width:1;"/><line style="stroke:#2E4053;stroke-width:2.2;" x1="612.9043" x2="1049.5684" y1="446.4834" y2="446.4834"/><text fill="#000000" font-family="Arial" font-size="12" lengthAdjust="spacing" textLength="152.7305" x="619.9043" y="441.9404">Enviar notificaci&#195;&#179;n resumen</text></g><g class="message" data-participant-1="proc" data-participant-2="shell"><polygon fill="#2E4053" points="337.1172,470.2822,327.1172,474.2822,337.1172,478.2822" style="stroke:#2E4053;stroke-width:1;"/><line style="stroke:#2E4053;stroke-width:2.2;stroke-dasharray:2,2;" x1="331.1172" x2="611.9043" y1="474.2822" y2="474.2822"/><text fill="#000000" font-family="Arial" font-size="12" lengthAdjust="spacing" textLength="133.4063" x="343.1172" y="469.7393">C&#195;&#179;digo de retorno / logs</text></g><g class="message" data-participant-1="shell" data-participant-2="user"><polygon fill="#2E4053" points="53.0195,498.0811,43.0195,502.0811,53.0195,506.0811" style="stroke:#2E4053;stroke-width:1;"/><line style="stroke:#2E4053;stroke-width:2.2;stroke-dasharray:2,2;" x1="47.0195" x2="325.1172" y1="502.0811" y2="502.0811"/><text fill="#000000" font-family="Arial" font-size="12" lengthAdjust="spacing" textLength="109.3828" x="59.0195" y="497.5381">Verifica salida y logs</text></g><!--SRC=[TLF1RXen4BtxAwRqK2A59Gc98bLHf2tPLaX9Y0AgUgi6Um0tnbxPNWAvzalw3Vs3ziSwtWKAhN9SptlpthoPZJeQWX79YgpK28eCF7WdAJWuxvsU2F56MsagHP1btH3NXa9MLWiZnBlmf6s97XSmIkyGejSofjfUwOQcM9duqTbuZmk2t6jy3J3IBmIdPwzLQv69CseVa7lldiTpBPyiXG1dsTb_rRuppiFRcSSrkouiK8W4IYE_B12iWq1GLiGpLW4zS0G9uSb5NJgGnbKAX40PkKrhM997gHtBjG03KyWBLejQwX9jX5QPyalXPM5UGyASZ3d4D1bZGjMGn14A8qwGpRI6BC73tdoeYseYf3E6P6JP0AtSoxbUkW3ZB-FkhPirHgQQTtEeqdUUfu213L77Afb6KsCNg0rSNTMZNLyBaOQ0pdNZ5Dv3yOql8YBiZmBjX-9nCBmP7aCnwXVtENySYOR1r0Hbvi0kdUGGzmO4wIomhz_VV_rOKFHiV0sucK68ciWDr8JfVSvLHkQtWrPP-QoE3kktn4Qr3TM2kxIHBsvIHHUE0QsBg5puYzyOsXZnoKKDNvED71JZ2RoUpIEuQPD_XtFn4jb3lctSFjg-vXk1oukJNlUorxqux-q8es8Wo2f8FG_zvln3eD4lhC-xDMcPr7XjJcY7hhV7X4za-RuyFD9I1uPyNQrMMLn5Zgnsa0AjtuoR_HFTyEvkC6RSOt5RvADYLwsNpJkrIysDkOcUQidwl8-V5Znnc6J5PfDNdSuskNu2A3rpoRCdldx-LRh0mg4vc8JTNindydLR23okGhPHu_u0]--></g></svg>