<svg xmlns="http://www.w3.org/2000/svg" xmlns:xlink="http://www.w3.org/1999/xlink" contentStyleType="text/css" data-diagram-type="ACTIVITY" height="286px" preserveAspectRatio="none" style="width:258px;height:286px;background:#FFFFFF;" version="1.1" viewBox="0 0 258 286" width="258px" zoomAndPan="magnify"><title>Subflujo: Logs(mensaje, detalle)</title><defs/><g><g class="title" data-source-line="54"><text fill="#000000" font-family="sans-serif" font-size="14" font-weight="bold" lengthAdjust="spacing" textLength="215.4688" x="20" y="34.5332">Subflujo: Logs(mensaje, detalle)</text></g><ellipse cx="129.2344" cy="58.6094" fill="#222222" rx="10" ry="10" style="stroke:#222222;stroke-width:1;"/><rect fill="#F1F1F1" height="35.0938" rx="12.5" ry="12.5" style="stroke:#181818;stroke-width:0.5;" width="158.7559" x="49.8564" y="88.6094"/><text fill="#000000" font-family="sans-serif" font-size="12" lengthAdjust="spacing" textLength="138.7559" x="59.8564" y="111.0664">Obtener fecha/hora actual</text><rect fill="#F1F1F1" height="35.0938" rx="12.5" ry="12.5" style="stroke:#181818;stroke-width:0.5;" width="170.0703" x="44.1992" y="143.7031"/><text fill="#000000" font-family="sans-serif" font-size="12" lengthAdjust="spacing" textLength="150.0703" x="54.1992" y="166.1602">Escribir mensaje en consola</text><rect fill="#F1F1F1" height="35.0938" rx="12.5" ry="12.5" style="stroke:#181818;stroke-width:0.5;" width="223.4668" x="17.501" y="198.7969"/><text fill="#000000" font-family="sans-serif" font-size="12" lengthAdjust="spacing" textLength="203.4668" x="27.501" y="221.2539">Append mensaje en archivo LogDatos</text><ellipse cx="129.2344" cy="264.8906" fill="none" rx="11" ry="11" style="stroke:#222222;stroke-width:1;"/><ellipse cx="129.2344" cy="264.8906" fill="#222222" rx="6" ry="6" style="stroke:#222222;stroke-width:1;"/><line style="stroke:#181818;stroke-width:1;" x1="129.2344" x2="129.2344" y1="68.6094" y2="88.6094"/><polygon fill="#181818" points="125.2344,78.6094,129.2344,88.6094,133.2344,78.6094,129.2344,82.6094" style="stroke:#181818;stroke-width:1;"/><line style="stroke:#181818;stroke-width:1;" x1="129.2344" x2="129.2344" y1="123.7031" y2="143.7031"/><polygon fill="#181818" points="125.2344,133.7031,129.2344,143.7031,133.2344,133.7031,129.2344,137.7031" style="stroke:#181818;stroke-width:1;"/><line style="stroke:#181818;stroke-width:1;" x1="129.2344" x2="129.2344" y1="178.7969" y2="198.7969"/><polygon fill="#181818" points="125.2344,188.7969,129.2344,198.7969,133.2344,188.7969,129.2344,192.7969" style="stroke:#181818;stroke-width:1;"/><line style="stroke:#181818;stroke-width:1;" x1="129.2344" x2="129.2344" y1="233.8906" y2="253.8906"/><polygon fill="#181818" points="125.2344,243.8906,129.2344,253.8906,133.2344,243.8906,129.2344,247.8906" style="stroke:#181818;stroke-width:1;"/><!--SRC=[JSsn2W8n383XlK-HKK5mxqs2ReA3Jv3sShP7R4gItlDxWeFpny_lrPdWETB2OvK8TtdPuKtDSAKJpEJ8JCTWZkeXFf9J8uM5Si5p4KN0x0Dv2l5cMMkg2hyQg46MPiAuwwLtQlE_eUPID_aUh-XYqpwH_W40]--></g></svg>