<svg xmlns="http://www.w3.org/2000/svg" xmlns:xlink="http://www.w3.org/1999/xlink" contentStyleType="text/css" data-diagram-type="ACTIVITY" height="1035px" preserveAspectRatio="none" style="width:319px;height:1035px;background:#FFFFFF;" version="1.1" viewBox="0 0 319 1035" width="319px" zoomAndPan="magnify"><title>Subflujo: Proceso</title><defs/><g><g class="title" data-source-line="93"><text fill="#000000" font-family="sans-serif" font-size="14" font-weight="bold" lengthAdjust="spacing" textLength="119.7861" x="98.3364" y="34.5332">Subflujo: Proceso</text></g><ellipse cx="159.7295" cy="58.6094" fill="#222222" rx="10" ry="10" style="stroke:#222222;stroke-width:1;"/><rect fill="#F1F1F1" height="35.0938" rx="12.5" ry="12.5" style="stroke:#181818;stroke-width:0.5;" width="207.4297" x="56.0146" y="88.6094"/><text fill="#000000" font-family="sans-serif" font-size="12" lengthAdjust="spacing" textLength="187.4297" x="66.0146" y="111.0664">Leer archivo select_djr_vigentes.lst</text><rect fill="#F1F1F1" height="35.0938" rx="12.5" ry="12.5" style="stroke:#181818;stroke-width:0.5;" width="196.7422" x="61.3584" y="143.7031"/><text fill="#000000" font-family="sans-serif" font-size="12" lengthAdjust="spacing" textLength="176.7422" x="71.3584" y="166.1602">Filtrar registros con c&#195;&#179;digo 7503</text><rect fill="#F1F1F1" height="35.0938" rx="12.5" ry="12.5" style="stroke:#181818;stroke-width:0.5;" width="230.123" x="44.668" y="198.7969"/><text fill="#000000" font-family="sans-serif" font-size="12" lengthAdjust="spacing" textLength="210.123" x="54.668" y="221.2539">Generar archivo Anotados_&lt;Fecha&gt;.txt</text><rect fill="#F1F1F1" height="35.0938" rx="12.5" ry="12.5" style="stroke:#181818;stroke-width:0.5;" width="110.3691" x="104.5449" y="302.8086"/><text fill="#000000" font-family="sans-serif" font-size="12" lengthAdjust="spacing" textLength="90.3691" x="114.5449" y="325.2656">Logs + mail error</text><ellipse cx="159.7295" cy="376.8555" fill="none" rx="11" ry="11" style="stroke:#222222;stroke-width:1;"/><ellipse cx="159.7295" cy="376.8555" fill="#222222" rx="6" ry="6" style="stroke:#222222;stroke-width:1;"/><polygon fill="#F1F1F1" points="112.3484,253.8906,207.1106,253.8906,219.1106,265.8906,207.1106,277.8906,112.3484,277.8906,100.3484,265.8906,112.3484,253.8906" style="stroke:#181818;stroke-width:0.5;"/><text fill="#000000" font-family="sans-serif" font-size="11" lengthAdjust="spacing" textLength="18.3369" x="163.7295" y="289.3096">S&#195;&#173;</text><text fill="#000000" font-family="sans-serif" font-size="11" lengthAdjust="spacing" textLength="94.7622" x="112.3484" y="270.3916">&#194;&#191;Error awk 7503?</text><rect fill="#F1F1F1" height="35.0938" rx="12.5" ry="12.5" style="stroke:#181818;stroke-width:0.5;" width="183.3945" x="68.0322" y="429.8555"/><text fill="#000000" font-family="sans-serif" font-size="12" lengthAdjust="spacing" textLength="163.3945" x="78.0322" y="452.3125">Filtrar registros con c&#195;&#179;digo 73</text><rect fill="#F1F1F1" height="35.0938" rx="12.5" ry="12.5" style="stroke:#181818;stroke-width:0.5;" width="243.4707" x="37.9941" y="484.9492"/><text fill="#000000" font-family="sans-serif" font-size="12" lengthAdjust="spacing" textLength="223.4707" x="47.9941" y="507.4063">Generar archivo Anotados73_&lt;Fecha&gt;.txt</text><rect fill="#F1F1F1" height="35.0938" rx="12.5" ry="12.5" style="stroke:#181818;stroke-width:0.5;" width="110.3691" x="104.5449" y="588.9609"/><text fill="#000000" font-family="sans-serif" font-size="12" lengthAdjust="spacing" textLength="90.3691" x="114.5449" y="611.418">Logs + mail error</text><ellipse cx="159.7295" cy="663.0078" fill="none" rx="11" ry="11" style="stroke:#222222;stroke-width:1;"/><ellipse cx="159.7295" cy="663.0078" fill="#222222" rx="6" ry="6" style="stroke:#222222;stroke-width:1;"/><polygon fill="#F1F1F1" points="118.4661,540.043,200.9929,540.043,212.9929,552.043,200.9929,564.043,118.4661,564.043,106.4661,552.043,118.4661,540.043" style="stroke:#181818;stroke-width:0.5;"/><text fill="#000000" font-family="sans-serif" font-size="11" lengthAdjust="spacing" textLength="18.3369" x="163.7295" y="575.4619">S&#195;&#173;</text><text fill="#000000" font-family="sans-serif" font-size="11" lengthAdjust="spacing" textLength="82.5269" x="118.4661" y="556.5439">&#194;&#191;Error awk 73?</text><rect fill="#F1F1F1" height="35.0938" rx="12.5" ry="12.5" style="stroke:#181818;stroke-width:0.5;" width="297.459" x="11" y="716.0078"/><text fill="#000000" font-family="sans-serif" font-size="12" lengthAdjust="spacing" textLength="277.459" x="21" y="738.4648">Leer archivo INT_ATRIBUTODS543_&lt;nPeriodo&gt;.txt</text><rect fill="#F1F1F1" height="35.0938" rx="12.5" ry="12.5" style="stroke:#181818;stroke-width:0.5;" width="250.1445" x="34.6572" y="771.1016"/><text fill="#000000" font-family="sans-serif" font-size="12" lengthAdjust="spacing" textLength="230.1445" x="44.6572" y="793.5586">Generar archivo Anotados543_&lt;Fecha&gt;.txt</text><rect fill="#F1F1F1" height="35.0938" rx="12.5" ry="12.5" style="stroke:#181818;stroke-width:0.5;" width="110.3691" x="104.5449" y="875.1133"/><text fill="#000000" font-family="sans-serif" font-size="12" lengthAdjust="spacing" textLength="90.3691" x="114.5449" y="897.5703">Logs + mail error</text><ellipse cx="159.7295" cy="949.1602" fill="none" rx="11" ry="11" style="stroke:#222222;stroke-width:1;"/><ellipse cx="159.7295" cy="949.1602" fill="#222222" rx="6" ry="6" style="stroke:#222222;stroke-width:1;"/><polygon fill="#F1F1F1" points="126.7161,826.1953,192.7429,826.1953,204.7429,838.1953,192.7429,850.1953,126.7161,850.1953,114.7161,838.1953,126.7161,826.1953" style="stroke:#181818;stroke-width:0.5;"/><text fill="#000000" font-family="sans-serif" font-size="11" lengthAdjust="spacing" textLength="18.3369" x="163.7295" y="861.6143">S&#195;&#173;</text><text fill="#000000" font-family="sans-serif" font-size="11" lengthAdjust="spacing" textLength="66.0269" x="126.7161" y="842.6963">&#194;&#191;Error 543?</text><ellipse cx="159.7295" cy="1013.1602" fill="none" rx="11" ry="11" style="stroke:#222222;stroke-width:1;"/><ellipse cx="159.7295" cy="1013.1602" fill="#222222" rx="6" ry="6" style="stroke:#222222;stroke-width:1;"/><line style="stroke:#181818;stroke-width:1;" x1="159.7295" x2="159.7295" y1="68.6094" y2="88.6094"/><polygon fill="#181818" points="155.7295,78.6094,159.7295,88.6094,163.7295,78.6094,159.7295,82.6094" style="stroke:#181818;stroke-width:1;"/><line style="stroke:#181818;stroke-width:1;" x1="159.7295" x2="159.7295" y1="123.7031" y2="143.7031"/><polygon fill="#181818" points="155.7295,133.7031,159.7295,143.7031,163.7295,133.7031,159.7295,137.7031" style="stroke:#181818;stroke-width:1;"/><line style="stroke:#181818;stroke-width:1;" x1="159.7295" x2="159.7295" y1="178.7969" y2="198.7969"/><polygon fill="#181818" points="155.7295,188.7969,159.7295,198.7969,163.7295,188.7969,159.7295,192.7969" style="stroke:#181818;stroke-width:1;"/><line style="stroke:#181818;stroke-width:1;" x1="159.7295" x2="159.7295" y1="337.9023" y2="365.8555"/><polygon fill="#181818" points="155.7295,355.8555,159.7295,365.8555,163.7295,355.8555,159.7295,359.8555" style="stroke:#181818;stroke-width:1;"/><line style="stroke:#181818;stroke-width:1;" x1="159.7295" x2="159.7295" y1="277.8906" y2="302.8086"/><polygon fill="#181818" points="155.7295,292.8086,159.7295,302.8086,163.7295,292.8086,159.7295,296.8086" style="stroke:#181818;stroke-width:1;"/><line style="stroke:#181818;stroke-width:1;" x1="219.1106" x2="231.1106" y1="265.8906" y2="265.8906"/><polygon fill="#181818" points="227.1106,335.8555,231.1106,345.8555,235.1106,335.8555,231.1106,339.8555" style="stroke:#181818;stroke-width:1;"/><line style="stroke:#181818;stroke-width:1;" x1="231.1106" x2="231.1106" y1="265.8906" y2="409.8555"/><line style="stroke:#181818;stroke-width:1;" x1="231.1106" x2="159.7295" y1="409.8555" y2="409.8555"/><line style="stroke:#181818;stroke-width:1;" x1="159.7295" x2="159.7295" y1="409.8555" y2="429.8555"/><polygon fill="#181818" points="155.7295,419.8555,159.7295,429.8555,163.7295,419.8555,159.7295,423.8555" style="stroke:#181818;stroke-width:1;"/><line style="stroke:#181818;stroke-width:1;" x1="159.7295" x2="159.7295" y1="233.8906" y2="253.8906"/><polygon fill="#181818" points="155.7295,243.8906,159.7295,253.8906,163.7295,243.8906,159.7295,247.8906" style="stroke:#181818;stroke-width:1;"/><line style="stroke:#181818;stroke-width:1;" x1="159.7295" x2="159.7295" y1="464.9492" y2="484.9492"/><polygon fill="#181818" points="155.7295,474.9492,159.7295,484.9492,163.7295,474.9492,159.7295,478.9492" style="stroke:#181818;stroke-width:1;"/><line style="stroke:#181818;stroke-width:1;" x1="159.7295" x2="159.7295" y1="624.0547" y2="652.0078"/><polygon fill="#181818" points="155.7295,642.0078,159.7295,652.0078,163.7295,642.0078,159.7295,646.0078" style="stroke:#181818;stroke-width:1;"/><line style="stroke:#181818;stroke-width:1;" x1="159.7295" x2="159.7295" y1="564.043" y2="588.9609"/><polygon fill="#181818" points="155.7295,578.9609,159.7295,588.9609,163.7295,578.9609,159.7295,582.9609" style="stroke:#181818;stroke-width:1;"/><line style="stroke:#181818;stroke-width:1;" x1="212.9929" x2="224.9929" y1="552.043" y2="552.043"/><polygon fill="#181818" points="220.9929,622.0078,224.9929,632.0078,228.9929,622.0078,224.9929,626.0078" style="stroke:#181818;stroke-width:1;"/><line style="stroke:#181818;stroke-width:1;" x1="224.9929" x2="224.9929" y1="552.043" y2="696.0078"/><line style="stroke:#181818;stroke-width:1;" x1="224.9929" x2="159.7295" y1="696.0078" y2="696.0078"/><line style="stroke:#181818;stroke-width:1;" x1="159.7295" x2="159.7295" y1="696.0078" y2="716.0078"/><polygon fill="#181818" points="155.7295,706.0078,159.7295,716.0078,163.7295,706.0078,159.7295,710.0078" style="stroke:#181818;stroke-width:1;"/><line style="stroke:#181818;stroke-width:1;" x1="159.7295" x2="159.7295" y1="520.043" y2="540.043"/><polygon fill="#181818" points="155.7295,530.043,159.7295,540.043,163.7295,530.043,159.7295,534.043" style="stroke:#181818;stroke-width:1;"/><line style="stroke:#181818;stroke-width:1;" x1="159.7295" x2="159.7295" y1="751.1016" y2="771.1016"/><polygon fill="#181818" points="155.7295,761.1016,159.7295,771.1016,163.7295,761.1016,159.7295,765.1016" style="stroke:#181818;stroke-width:1;"/><line style="stroke:#181818;stroke-width:1;" x1="159.7295" x2="159.7295" y1="910.207" y2="938.1602"/><polygon fill="#181818" points="155.7295,928.1602,159.7295,938.1602,163.7295,928.1602,159.7295,932.1602" style="stroke:#181818;stroke-width:1;"/><line style="stroke:#181818;stroke-width:1;" x1="159.7295" x2="159.7295" y1="850.1953" y2="875.1133"/><polygon fill="#181818" points="155.7295,865.1133,159.7295,875.1133,163.7295,865.1133,159.7295,869.1133" style="stroke:#181818;stroke-width:1;"/><line style="stroke:#181818;stroke-width:1;" x1="204.7429" x2="224.9141" y1="838.1953" y2="838.1953"/><polygon fill="#181818" points="220.9141,908.1602,224.9141,918.1602,228.9141,908.1602,224.9141,912.1602" style="stroke:#181818;stroke-width:1;"/><line style="stroke:#181818;stroke-width:1;" x1="224.9141" x2="224.9141" y1="838.1953" y2="982.1602"/><line style="stroke:#181818;stroke-width:1;" x1="224.9141" x2="159.7295" y1="982.1602" y2="982.1602"/><line style="stroke:#181818;stroke-width:1;" x1="159.7295" x2="159.7295" y1="982.1602" y2="1002.1602"/><polygon fill="#181818" points="155.7295,992.1602,159.7295,1002.1602,163.7295,992.1602,159.7295,996.1602" style="stroke:#181818;stroke-width:1;"/><line style="stroke:#181818;stroke-width:1;" x1="159.7295" x2="159.7295" y1="806.1953" y2="826.1953"/><polygon fill="#181818" points="155.7295,816.1953,159.7295,826.1953,163.7295,816.1953,159.7295,820.1953" style="stroke:#181818;stroke-width:1;"/><!--SRC=[dP31IWD138RlynGvjWX5gAMm5QMYbKBHugxdPPp9xauT9v99gsTz7ay-WD2-cBD53nwgqbj8llpvY3Zn2FdohlBB1MKmPp8OIKNHB2gR8J9eDerR4KJqQAIq2ovNhiOW67i-oaXb4-U5DGDZxQ8mHJ0Km6nUr-_MrGJ3mM4_OPSOiCM-0yU1H5kAvV44JQDFUlASqbm5dStB-kE2cHBxTBzTF-s2D1YWawVKjwu2o6PKHpY01-qyO0kFKZSAFIeCrbNg7rw_MGtxVthjP_NZgTEheXmNDzEps-BwF1ySfQDXZkp8qjVTdO9RUBTX6k-ZrzQV]--></g></svg>