<svg xmlns="http://www.w3.org/2000/svg" xmlns:xlink="http://www.w3.org/1999/xlink" contentStyleType="text/css" data-diagram-type="ACTIVITY" height="1252px" preserveAspectRatio="none" style="width:464px;height:1252px;background:#FFFFFF;" version="1.1" viewBox="0 0 464 1252" width="464px" zoomAndPan="magnify"><title>Flujo principal - Proceso Batch proce4310.sh</title><defs><filter height="300%" id="fo7au4ljj6lfv" width="300%" x="-1" y="-1"><feGaussianBlur result="blurOut" stdDeviation="2"/><feColorMatrix in="blurOut" result="blurOut2" type="matrix" values="0 0 0 0 0 0 0 0 0 0 0 0 0 0 0 0 0 0 .4 0"/><feOffset dx="4" dy="4" in="blurOut2" result="blurOut3"/><feBlend in="SourceGraphic" in2="blurOut3" mode="normal"/></filter></defs><g><g class="title" data-source-line="4"><text fill="#000000" font-family="Arial" font-size="14" font-weight="bold" lengthAdjust="spacing" textLength="299.5303" x="80.9578" y="33.3608">Flujo principal - Proceso Batch proce4310.sh</text></g><ellipse cx="189.9819" cy="57.0986" fill="#222222" filter="url(#fo7au4ljj6lfv)" rx="10" ry="10" style="stroke:#222222;stroke-width:1;"/><rect fill="#F1F1F1" filter="url(#fo7au4ljj6lfv)" height="33.7988" rx="7.5" ry="7.5" style="stroke:#181818;stroke-width:0.5;" width="252.7695" x="63.5972" y="87.0986"/><text fill="#000000" font-family="Arial" font-size="12" lengthAdjust="spacing" textLength="232.7695" x="73.5972" y="108.5508">Validar par&#195;&#161;metros (nPeriodo, nEscenario)</text><polygon fill="#F1F1F1" filter="url(#fo7au4ljj6lfv)" points="104.936,140.8975,275.0278,140.8975,287.0278,152.8975,275.0278,164.8975,104.936,164.8975,92.936,152.8975,104.936,140.8975" style="stroke:#181818;stroke-width:0.5;"/><text fill="#000000" font-family="Arial" font-size="12" lengthAdjust="spacing" textLength="170.0918" x="104.936" y="157.4502">&#194;&#191;Existen archivos de entrada?</text><text fill="#000000" font-family="Arial" font-size="12" lengthAdjust="spacing" textLength="15.3398" x="77.5962" y="150.5508">No</text><text fill="#000000" font-family="Arial" font-size="12" lengthAdjust="spacing" textLength="20.0039" x="287.0278" y="150.5508">S&#195;&#173;</text><rect fill="#F1F1F1" filter="url(#fo7au4ljj6lfv)" height="33.7988" rx="7.5" ry="7.5" style="stroke:#181818;stroke-width:0.5;" width="140.3867" x="11" y="174.8975"/><text fill="#000000" font-family="Arial" font-size="12" lengthAdjust="spacing" textLength="120.3867" x="21" y="196.3496">Log + enviar mail error</text><ellipse cx="81.1934" cy="239.6963" fill="none" filter="url(#fo7au4ljj6lfv)" rx="11" ry="11" style="stroke:#222222;stroke-width:1;"/><ellipse cx="81.1934" cy="239.6963" fill="#222222" rx="6" ry="6" style="stroke:#222222;stroke-width:1;"/><rect fill="#F1F1F1" filter="url(#fo7au4ljj6lfv)" height="33.7988" rx="7.5" ry="7.5" style="stroke:#181818;stroke-width:0.5;" width="254.7676" x="171.3867" y="174.8975"/><text fill="#000000" font-family="Arial" font-size="12" lengthAdjust="spacing" textLength="234.7676" x="181.3867" y="196.3496">Configurar entorno (Producci&#195;&#179;n/Desarrollo)</text><rect fill="#F1F1F1" filter="url(#fo7au4ljj6lfv)" height="33.7988" rx="7.5" ry="7.5" style="stroke:#181818;stroke-width:0.5;" width="95.3633" x="251.0889" y="228.6963"/><text fill="#000000" font-family="Arial" font-size="12" lengthAdjust="spacing" textLength="75.3633" x="261.0889" y="250.1484">Inicializar logs</text><rect fill="#F1F1F1" filter="url(#fo7au4ljj6lfv)" height="33.7988" rx="7.5" ry="7.5" style="stroke:#181818;stroke-width:0.5;" width="142.0273" x="118.9683" y="282.4951"/><text fill="#000000" font-family="Arial" font-size="12" lengthAdjust="spacing" textLength="122.0273" x="128.9683" y="303.9473">Revisa_SID_ULTIMA()</text><polygon fill="#F1F1F1" filter="url(#fo7au4ljj6lfv)" points="115.272,336.2939,264.6919,336.2939,276.6919,348.2939,264.6919,360.2939,115.272,360.2939,103.272,348.2939,115.272,336.2939" style="stroke:#181818;stroke-width:0.5;"/><text fill="#000000" font-family="Arial" font-size="12" lengthAdjust="spacing" textLength="149.4199" x="115.272" y="352.8467">&#194;&#191;nObligados &gt;= nNotNull?</text><text fill="#000000" font-family="Arial" font-size="12" lengthAdjust="spacing" textLength="15.3398" x="87.9321" y="345.9473">No</text><text fill="#000000" font-family="Arial" font-size="12" lengthAdjust="spacing" textLength="20.0039" x="276.6919" y="345.9473">S&#195;&#173;</text><rect fill="#F1F1F1" filter="url(#fo7au4ljj6lfv)" height="33.7988" rx="7.5" ry="7.5" style="stroke:#181818;stroke-width:0.5;" width="140.3867" x="23.0786" y="370.2939"/><text fill="#000000" font-family="Arial" font-size="12" lengthAdjust="spacing" textLength="120.3867" x="33.0786" y="391.7461">Log + enviar mail error</text><ellipse cx="93.272" cy="435.0928" fill="none" filter="url(#fo7au4ljj6lfv)" rx="11" ry="11" style="stroke:#222222;stroke-width:1;"/><ellipse cx="93.272" cy="435.0928" fill="#222222" rx="6" ry="6" style="stroke:#222222;stroke-width:1;"/><rect fill="#F1F1F1" filter="url(#fo7au4ljj6lfv)" height="33.7988" rx="7.5" ry="7.5" style="stroke:#181818;stroke-width:0.5;" width="72.0313" x="250.6763" y="370.2939"/><text fill="#000000" font-family="Arial" font-size="12" lengthAdjust="spacing" textLength="52.0313" x="260.6763" y="391.7461">Continuar</text><rect fill="#F1F1F1" filter="url(#fo7au4ljj6lfv)" height="33.7988" rx="7.5" ry="7.5" style="stroke:#181818;stroke-width:0.5;" width="119.3691" x="130.2974" y="466.0928"/><text fill="#000000" font-family="Arial" font-size="12" lengthAdjust="spacing" textLength="99.3691" x="140.2974" y="487.5449">Ejecutar Proceso()</text><rect fill="#F1F1F1" filter="url(#fo7au4ljj6lfv)" height="33.7988" rx="7.5" ry="7.5" style="stroke:#181818;stroke-width:0.5;" width="188.0762" x="95.9438" y="519.8916"/><text fill="#000000" font-family="Arial" font-size="12" lengthAdjust="spacing" textLength="168.0762" x="105.9438" y="541.3438">Forzar anotaci&#195;&#179;n 7503 dummy</text><rect fill="#F1F1F1" filter="url(#fo7au4ljj6lfv)" height="33.7988" rx="7.5" ry="7.5" style="stroke:#181818;stroke-width:0.5;" width="190.0918" x="94.936" y="573.6904"/><text fill="#000000" font-family="Arial" font-size="12" lengthAdjust="spacing" textLength="170.0918" x="104.936" y="595.1426">Contar registros (7503, 73, 543)</text><rect fill="#F1F1F1" filter="url(#fo7au4ljj6lfv)" height="33.7988" rx="7.5" ry="7.5" style="stroke:#181818;stroke-width:0.5;" width="268.8184" x="55.5728" y="627.4893"/><text fill="#000000" font-family="Arial" font-size="12" lengthAdjust="spacing" textLength="248.8184" x="65.5728" y="648.9414">Ejecutar Procesa4310 con archivos generados</text><polygon fill="#F1F1F1" filter="url(#fo7au4ljj6lfv)" points="120.2788,681.2881,259.6851,681.2881,271.6851,693.2881,259.6851,705.2881,120.2788,705.2881,108.2788,693.2881,120.2788,681.2881" style="stroke:#181818;stroke-width:0.5;"/><text fill="#000000" font-family="Arial" font-size="12" lengthAdjust="spacing" textLength="139.4063" x="120.2788" y="697.8408">&#194;&#191;Error en Procesa4310?</text><text fill="#000000" font-family="Arial" font-size="12" lengthAdjust="spacing" textLength="20.0039" x="88.2749" y="690.9414">S&#195;&#173;</text><text fill="#000000" font-family="Arial" font-size="12" lengthAdjust="spacing" textLength="15.3398" x="271.6851" y="690.9414">No</text><rect fill="#F1F1F1" filter="url(#fo7au4ljj6lfv)" height="33.7988" rx="7.5" ry="7.5" style="stroke:#181818;stroke-width:0.5;" width="104.3691" x="27.9146" y="715.2881"/><text fill="#000000" font-family="Arial" font-size="12" lengthAdjust="spacing" textLength="84.3691" x="37.9146" y="736.7402">Log + mail error</text><ellipse cx="80.0991" cy="780.0869" fill="none" filter="url(#fo7au4ljj6lfv)" rx="11" ry="11" style="stroke:#222222;stroke-width:1;"/><ellipse cx="80.0991" cy="780.0869" fill="#222222" rx="6" ry="6" style="stroke:#222222;stroke-width:1;"/><rect fill="#F1F1F1" filter="url(#fo7au4ljj6lfv)" height="33.7988" rx="7.5" ry="7.5" style="stroke:#181818;stroke-width:0.5;" width="295.1621" x="152.2837" y="715.2881"/><text fill="#000000" font-family="Arial" font-size="12" lengthAdjust="spacing" textLength="275.1621" x="162.2837" y="736.7402">Generar archivo AnotaMensual4310 si Escenario=2</text><rect fill="#F1F1F1" filter="url(#fo7au4ljj6lfv)" height="33.7988" rx="7.5" ry="7.5" style="stroke:#181818;stroke-width:0.5;" width="220.0684" x="189.8306" y="769.0869"/><text fill="#000000" font-family="Arial" font-size="12" lengthAdjust="spacing" textLength="200.0684" x="199.8306" y="790.5391">Copiar y comprimir archivos de salida</text><rect fill="#F1F1F1" filter="url(#fo7au4ljj6lfv)" height="33.7988" rx="7.5" ry="7.5" style="stroke:#181818;stroke-width:0.5;" width="198.0898" x="90.937" y="822.8857"/><text fill="#000000" font-family="Arial" font-size="12" lengthAdjust="spacing" textLength="178.0898" x="100.937" y="844.3379">Enviar correo final con resultados</text><rect fill="#F1F1F1" filter="url(#fo7au4ljj6lfv)" height="33.7988" rx="7.5" ry="7.5" style="stroke:#181818;stroke-width:0.5;" width="152.041" x="113.9614" y="876.6846"/><text fill="#000000" font-family="Arial" font-size="12" lengthAdjust="spacing" textLength="132.041" x="123.9614" y="898.1367">MarcaUltPerProcesado()</text><rect fill="#F1F1F1" filter="url(#fo7au4ljj6lfv)" height="33.7988" rx="7.5" ry="7.5" style="stroke:#181818;stroke-width:0.5;" width="104.3691" x="137.7974" y="979.3828"/><text fill="#000000" font-family="Arial" font-size="12" lengthAdjust="spacing" textLength="84.3691" x="147.7974" y="1000.835">Log + mail error</text><ellipse cx="189.9819" cy="1052.7822" fill="none" filter="url(#fo7au4ljj6lfv)" rx="11" ry="11" style="stroke:#222222;stroke-width:1;"/><ellipse cx="189.9819" cy="1052.7822" fill="#222222" rx="6" ry="6" style="stroke:#222222;stroke-width:1;"/><polygon fill="#F1F1F1" filter="url(#fo7au4ljj6lfv)" points="93.6128,930.4834,286.3511,930.4834,298.3511,942.4834,286.3511,954.4834,93.6128,954.4834,81.6128,942.4834,93.6128,930.4834" style="stroke:#181818;stroke-width:0.5;"/><text fill="#000000" font-family="Arial" font-size="12" lengthAdjust="spacing" textLength="20.0039" x="193.9819" y="965.9355">S&#195;&#173;</text><text fill="#000000" font-family="Arial" font-size="12" lengthAdjust="spacing" textLength="192.7383" x="93.6128" y="947.0361">&#194;&#191;Error en MarcaUltPerProcesado?</text><rect fill="#F1F1F1" filter="url(#fo7au4ljj6lfv)" height="33.7988" rx="7.5" ry="7.5" style="stroke:#181818;stroke-width:0.5;" width="298.127" x="40.9185" y="1105.7822"/><text fill="#000000" font-family="Arial" font-size="12" lengthAdjust="spacing" textLength="278.127" x="50.9185" y="1127.2344">Generar CTLFILE para proceso de revisi&#195;&#179;n diferida</text><rect fill="#F1F1F1" filter="url(#fo7au4ljj6lfv)" height="33.7988" rx="7.5" ry="7.5" style="stroke:#181818;stroke-width:0.5;" width="262.291" x="58.8364" y="1159.5811"/><text fill="#000000" font-family="Arial" font-size="12" lengthAdjust="spacing" textLength="242.291" x="68.8364" y="1181.0332">Programar ejecuci&#195;&#179;n con at (20h despu&#195;&#169;s)</text><ellipse cx="189.9819" cy="1224.3799" fill="none" filter="url(#fo7au4ljj6lfv)" rx="11" ry="11" style="stroke:#222222;stroke-width:1;"/><ellipse cx="189.9819" cy="1224.3799" fill="#222222" rx="6" ry="6" style="stroke:#222222;stroke-width:1;"/><line style="stroke:#2E4053;stroke-width:2.2;" x1="189.9819" x2="189.9819" y1="67.0986" y2="87.0986"/><polygon fill="#2E4053" points="185.9819,77.0986,193.9819,77.0986,189.9819,87.0986" style="stroke:#2E4053;stroke-width:1;"/><line style="stroke:#2E4053;stroke-width:2.2;" x1="81.1934" x2="81.1934" y1="208.6963" y2="228.6963"/><polygon fill="#2E4053" points="77.1934,218.6963,85.1934,218.6963,81.1934,228.6963" style="stroke:#2E4053;stroke-width:1;"/><line style="stroke:#2E4053;stroke-width:2.2;" x1="298.7705" x2="298.7705" y1="208.6963" y2="228.6963"/><polygon fill="#2E4053" points="294.7705,218.6963,302.7705,218.6963,298.7705,228.6963" style="stroke:#2E4053;stroke-width:1;"/><line style="stroke:#2E4053;stroke-width:2.2;" x1="92.936" x2="81.1934" y1="152.8975" y2="152.8975"/><line style="stroke:#2E4053;stroke-width:2.2;" x1="81.1934" x2="81.1934" y1="152.8975" y2="174.8975"/><polygon fill="#2E4053" points="77.1934,164.8975,85.1934,164.8975,81.1934,174.8975" style="stroke:#2E4053;stroke-width:1;"/><line style="stroke:#2E4053;stroke-width:2.2;" x1="287.0278" x2="298.7705" y1="152.8975" y2="152.8975"/><line style="stroke:#2E4053;stroke-width:2.2;" x1="298.7705" x2="298.7705" y1="152.8975" y2="174.8975"/><polygon fill="#2E4053" points="294.7705,164.8975,302.7705,164.8975,298.7705,174.8975" style="stroke:#2E4053;stroke-width:1;"/><line style="stroke:#2E4053;stroke-width:2.2;" x1="298.7705" x2="298.7705" y1="262.4951" y2="267.4951"/><line style="stroke:#2E4053;stroke-width:2.2;" x1="298.7705" x2="189.9819" y1="267.4951" y2="267.4951"/><line style="stroke:#2E4053;stroke-width:2.2;" x1="189.9819" x2="189.9819" y1="267.4951" y2="282.4951"/><polygon fill="#2E4053" points="185.9819,272.4951,193.9819,272.4951,189.9819,282.4951" style="stroke:#2E4053;stroke-width:1;"/><line style="stroke:#2E4053;stroke-width:2.2;" x1="189.9819" x2="189.9819" y1="120.8975" y2="140.8975"/><polygon fill="#2E4053" points="185.9819,130.8975,193.9819,130.8975,189.9819,140.8975" style="stroke:#2E4053;stroke-width:1;"/><line style="stroke:#2E4053;stroke-width:2.2;" x1="93.272" x2="93.272" y1="404.0928" y2="424.0928"/><polygon fill="#2E4053" points="89.272,414.0928,97.272,414.0928,93.272,424.0928" style="stroke:#2E4053;stroke-width:1;"/><line style="stroke:#2E4053;stroke-width:2.2;" x1="103.272" x2="93.272" y1="348.2939" y2="348.2939"/><line style="stroke:#2E4053;stroke-width:2.2;" x1="93.272" x2="93.272" y1="348.2939" y2="370.2939"/><polygon fill="#2E4053" points="89.272,360.2939,97.272,360.2939,93.272,370.2939" style="stroke:#2E4053;stroke-width:1;"/><line style="stroke:#2E4053;stroke-width:2.2;" x1="276.6919" x2="286.6919" y1="348.2939" y2="348.2939"/><line style="stroke:#2E4053;stroke-width:2.2;" x1="286.6919" x2="286.6919" y1="348.2939" y2="370.2939"/><polygon fill="#2E4053" points="282.6919,360.2939,290.6919,360.2939,286.6919,370.2939" style="stroke:#2E4053;stroke-width:1;"/><line style="stroke:#2E4053;stroke-width:2.2;" x1="286.6919" x2="286.6919" y1="404.0928" y2="451.0928"/><line style="stroke:#2E4053;stroke-width:2.2;" x1="286.6919" x2="189.9819" y1="451.0928" y2="451.0928"/><line style="stroke:#2E4053;stroke-width:2.2;" x1="189.9819" x2="189.9819" y1="451.0928" y2="466.0928"/><polygon fill="#2E4053" points="185.9819,456.0928,193.9819,456.0928,189.9819,466.0928" style="stroke:#2E4053;stroke-width:1;"/><line style="stroke:#2E4053;stroke-width:2.2;" x1="189.9819" x2="189.9819" y1="316.2939" y2="336.2939"/><polygon fill="#2E4053" points="185.9819,326.2939,193.9819,326.2939,189.9819,336.2939" style="stroke:#2E4053;stroke-width:1;"/><line style="stroke:#2E4053;stroke-width:2.2;" x1="189.9819" x2="189.9819" y1="499.8916" y2="519.8916"/><polygon fill="#2E4053" points="185.9819,509.8916,193.9819,509.8916,189.9819,519.8916" style="stroke:#2E4053;stroke-width:1;"/><line style="stroke:#2E4053;stroke-width:2.2;" x1="189.9819" x2="189.9819" y1="553.6904" y2="573.6904"/><polygon fill="#2E4053" points="185.9819,563.6904,193.9819,563.6904,189.9819,573.6904" style="stroke:#2E4053;stroke-width:1;"/><line style="stroke:#2E4053;stroke-width:2.2;" x1="189.9819" x2="189.9819" y1="607.4893" y2="627.4893"/><polygon fill="#2E4053" points="185.9819,617.4893,193.9819,617.4893,189.9819,627.4893" style="stroke:#2E4053;stroke-width:1;"/><line style="stroke:#2E4053;stroke-width:2.2;" x1="80.0991" x2="80.0991" y1="749.0869" y2="769.0869"/><polygon fill="#2E4053" points="76.0991,759.0869,84.0991,759.0869,80.0991,769.0869" style="stroke:#2E4053;stroke-width:1;"/><line style="stroke:#2E4053;stroke-width:2.2;" x1="299.8647" x2="299.8647" y1="749.0869" y2="769.0869"/><polygon fill="#2E4053" points="295.8647,759.0869,303.8647,759.0869,299.8647,769.0869" style="stroke:#2E4053;stroke-width:1;"/><line style="stroke:#2E4053;stroke-width:2.2;" x1="108.2788" x2="80.0991" y1="693.2881" y2="693.2881"/><line style="stroke:#2E4053;stroke-width:2.2;" x1="80.0991" x2="80.0991" y1="693.2881" y2="715.2881"/><polygon fill="#2E4053" points="76.0991,705.2881,84.0991,705.2881,80.0991,715.2881" style="stroke:#2E4053;stroke-width:1;"/><line style="stroke:#2E4053;stroke-width:2.2;" x1="271.6851" x2="299.8647" y1="693.2881" y2="693.2881"/><line style="stroke:#2E4053;stroke-width:2.2;" x1="299.8647" x2="299.8647" y1="693.2881" y2="715.2881"/><polygon fill="#2E4053" points="295.8647,705.2881,303.8647,705.2881,299.8647,715.2881" style="stroke:#2E4053;stroke-width:1;"/><line style="stroke:#2E4053;stroke-width:2.2;" x1="299.8647" x2="299.8647" y1="802.8857" y2="807.8857"/><line style="stroke:#2E4053;stroke-width:2.2;" x1="299.8647" x2="189.9819" y1="807.8857" y2="807.8857"/><line style="stroke:#2E4053;stroke-width:2.2;" x1="189.9819" x2="189.9819" y1="807.8857" y2="822.8857"/><polygon fill="#2E4053" points="185.9819,812.8857,193.9819,812.8857,189.9819,822.8857" style="stroke:#2E4053;stroke-width:1;"/><line style="stroke:#2E4053;stroke-width:2.2;" x1="189.9819" x2="189.9819" y1="661.2881" y2="681.2881"/><polygon fill="#2E4053" points="185.9819,671.2881,193.9819,671.2881,189.9819,681.2881" style="stroke:#2E4053;stroke-width:1;"/><line style="stroke:#2E4053;stroke-width:2.2;" x1="189.9819" x2="189.9819" y1="856.6846" y2="876.6846"/><polygon fill="#2E4053" points="185.9819,866.6846,193.9819,866.6846,189.9819,876.6846" style="stroke:#2E4053;stroke-width:1;"/><line style="stroke:#2E4053;stroke-width:2.2;" x1="189.9819" x2="189.9819" y1="1013.1816" y2="1041.7822"/><polygon fill="#2E4053" points="185.9819,1031.7822,193.9819,1031.7822,189.9819,1041.7822" style="stroke:#2E4053;stroke-width:1;"/><line style="stroke:#2E4053;stroke-width:2.2;" x1="189.9819" x2="189.9819" y1="954.4834" y2="979.3828"/><polygon fill="#2E4053" points="185.9819,969.3828,193.9819,969.3828,189.9819,979.3828" style="stroke:#2E4053;stroke-width:1;"/><line style="stroke:#2E4053;stroke-width:2.2;" x1="298.3511" x2="310.3511" y1="942.4834" y2="942.4834"/><polygon fill="#2E4053" points="306.3511,1011.7822,314.3511,1011.7822,310.3511,1021.7822" style="stroke:#2E4053;stroke-width:2.2;"/><line style="stroke:#2E4053;stroke-width:2.2;" x1="310.3511" x2="310.3511" y1="942.4834" y2="1085.7822"/><line style="stroke:#2E4053;stroke-width:2.2;" x1="310.3511" x2="189.9819" y1="1085.7822" y2="1085.7822"/><line style="stroke:#2E4053;stroke-width:2.2;" x1="189.9819" x2="189.9819" y1="1085.7822" y2="1105.7822"/><polygon fill="#2E4053" points="185.9819,1095.7822,193.9819,1095.7822,189.9819,1105.7822" style="stroke:#2E4053;stroke-width:1;"/><line style="stroke:#2E4053;stroke-width:2.2;" x1="189.9819" x2="189.9819" y1="910.4834" y2="930.4834"/><polygon fill="#2E4053" points="185.9819,920.4834,193.9819,920.4834,189.9819,930.4834" style="stroke:#2E4053;stroke-width:1;"/><line style="stroke:#2E4053;stroke-width:2.2;" x1="189.9819" x2="189.9819" y1="1139.5811" y2="1159.5811"/><polygon fill="#2E4053" points="185.9819,1149.5811,193.9819,1149.5811,189.9819,1159.5811" style="stroke:#2E4053;stroke-width:1;"/><line style="stroke:#2E4053;stroke-width:2.2;" x1="189.9819" x2="189.9819" y1="1193.3799" y2="1213.3799"/><polygon fill="#2E4053" points="185.9819,1203.3799,193.9819,1203.3799,189.9819,1213.3799" style="stroke:#2E4053;stroke-width:1;"/><!--SRC=[hPFDRXCn4CVlVehXjX4b3KshIXiLLDe4HKf2HLkkrU1rDgwyzcfiHuGZF0b73fnu0AJsnHXllXO41oGEEMpcw_-R__Y9jjB4Ga6tU-Z3oYZVhMDbX0Ww60KZ4-yTrCHPkaO3p-2Ad5JUmIiCSi4H_ZhkF-zr_K887v22oD-XqGKIr4YFdn- -L2gGyv3PAqNQ5Uu0xD1BPP6_EWEXvv0zVdhuCVoWVL0MaEH2Bxc0HIaR20jysO6mu50sSnq1a4zS2KyvkDGyfK9jG14v6d3C1rSBPRo2x9g7VsloBvoTwp8IPtD7HzP1nXn5b59pqdTxUAaySWjZaYAk65ijDMDyv1BZIZyGoXPwBaJ-LYsrnxlhyUNTxUHcF3tFMWpspNkZIonO_Oipi3CNPj6O_o0_Q1kHzYg6zqf6tlRMZYGY7pbAUj6wW1imE3tfzQ68LRNYXDI84qYLlEh6anG-W5F-dHptKu_V6cFo5gHhsL8ggoWX3iJUkwIVYTfLE-ezo1hyhyIRzRnk1j1s8fmddgcoFg9fv7WDkmCwEngiLrIdPQvOQiNNMcdwvOvySv6jzQrtBnsHSZ3NbayxGPBoqOGrN3xb3dXh0f_j1gjmRRDtq7zA_2VwZQej-CNDP3IU3DFxmVKBu_V659HER-ChL_1hIamvpom9gtJSoRojyurf0RAZteABVHtvxw-UzOiqz2S0]--></g></svg>