<svg xmlns="http://www.w3.org/2000/svg" xmlns:xlink="http://www.w3.org/1999/xlink" contentStyleType="text/css" data-diagram-type="SEQUENCE" height="551px" preserveAspectRatio="none" style="width:1145px;height:551px;background:#FFFFFF;" version="1.1" viewBox="0 0 1145 551" width="1145px" zoomAndPan="magnify"><defs><filter height="300%" id="fk9um8f0euk4w" width="300%" x="-1" y="-1"><feGaussianBlur result="blurOut" stdDeviation="2"/><feColorMatrix in="blurOut" result="blurOut2" type="matrix" values="0 0 0 0 0 0 0 0 0 0 0 0 0 0 0 0 0 0 .4 0"/><feOffset dx="4" dy="4" in="blurOut2" result="blurOut3"/><feBlend in="SourceGraphic" in2="blurOut3" mode="normal"/></filter></defs><g><g><title>Usuario</title><rect fill="#000000" fill-opacity="0.00000" height="464.7813" width="8" x="28.5" y="79.7988"/><line style="stroke:#154360;stroke-width:0.5;stroke-dasharray:5,5;" x1="32" x2="32" y1="79.7988" y2="544.5801"/></g><g><title>main</title><rect fill="#000000" fill-opacity="0.00000" height="464.7813" width="8" x="236.6016" y="79.7988"/><line style="stroke:#154360;stroke-width:0.5;stroke-dasharray:5,5;" x1="240.0967" x2="240.0967" y1="79.7988" y2="544.5801"/></g><g><title>abreArchivo</title><rect fill="#000000" fill-opacity="0.00000" height="464.7813" width="8" x="499.8809" y="79.7988"/><line style="stroke:#154360;stroke-width:0.5;stroke-dasharray:5,5;" x1="503.3652" x2="503.3652" y1="79.7988" y2="544.5801"/></g><g><title>conectaBD</title><rect fill="#000000" fill-opacity="0.00000" height="464.7813" width="8" x="588.2461" y="79.7988"/><line style="stroke:#154360;stroke-width:0.5;stroke-dasharray:5,5;" x1="591.3965" x2="591.3965" y1="79.7988" y2="544.5801"/></g><g><title>sqlObligadoRut</title><rect fill="#000000" fill-opacity="0.00000" height="464.7813" width="8" x="685.6201" y="79.7988"/><line style="stroke:#154360;stroke-width:0.5;stroke-dasharray:5,5;" x1="689.0957" x2="689.0957" y1="79.7988" y2="544.5801"/></g><g><title>sqlExisteF29</title><rect fill="#000000" fill-opacity="0.00000" height="464.7813" width="8" x="787.9922" y="79.7988"/><line style="stroke:#154360;stroke-width:0.5;stroke-dasharray:5,5;" x1="791.1445" x2="791.1445" y1="79.7988" y2="544.5801"/></g><g><title>sqlExisteGiro21</title><rect fill="#000000" fill-opacity="0.00000" height="464.7813" width="8" x="891.3574" y="79.7988"/><line style="stroke:#154360;stroke-width:0.5;stroke-dasharray:5,5;" x1="894.8398" x2="894.8398" y1="79.7988" y2="544.5801"/></g><g><title>Debe_anotar</title><rect fill="#000000" fill-opacity="0.00000" height="464.7813" width="8" x="995.0684" y="79.7988"/><line style="stroke:#154360;stroke-width:0.5;stroke-dasharray:5,5;" x1="998.875" x2="998.875" y1="79.7988" y2="544.5801"/></g><g><title>Filtra_anotar</title><rect fill="#000000" fill-opacity="0.00000" height="464.7813" width="8" x="1090.4443" y="79.7988"/><line style="stroke:#154360;stroke-width:0.5;stroke-dasharray:5,5;" x1="1094.2617" x2="1094.2617" y1="79.7988" y2="544.5801"/></g><g class="participant participant-head" data-participant="Usuario"><text fill="#154360" font-family="Arial" font-size="12" lengthAdjust="spacing" textLength="41.3496" x="8.8252" y="77.2559">Usuario</text><ellipse cx="32.5" cy="21.5" fill="#D4E6F1" filter="url(#fk9um8f0euk4w)" rx="16" ry="16" style="stroke:#2874A6;stroke-width:0.5;"/><path d="M32.5,41.5 C36.5,41.5 39.5,41.5 43.5,37.5 C51.5,37.5 59.5,45.5 59.5,53.5 L59.5,57.5 C59.5,61.5 55.5,65.5 51.5,65.5 L13.5,65.5 C9.5,65.5 5.5,61.5 5.5,57.5 L5.5,53.5 C5.5,45.5 13.5,37.5 21.5,37.5 C25.5,41.5 28.5,41.5 32.5,41.5" fill="#D4E6F1" filter="url(#fk9um8f0euk4w)" style="stroke:#2874A6;stroke-width:0.5;"/></g><g class="participant participant-head" data-participant="Main"><rect fill="#EBF5FB" filter="url(#fk9um8f0euk4w)" height="27.7988" rx="7.5" ry="7.5" style="stroke:#1B4F72;stroke-width:0.5;" width="40.0098" x="219.0967" y="48"/><text fill="#000000" font-family="Arial" font-size="12" lengthAdjust="spacing" textLength="26.0098" x="226.0967" y="66.2559">main</text></g><g class="participant participant-head" data-participant="AbreArchivo"><rect fill="#EBF5FB" filter="url(#fk9um8f0euk4w)" height="27.7988" rx="7.5" ry="7.5" style="stroke:#1B4F72;stroke-width:0.5;" width="78.0313" x="463.3652" y="48"/><text fill="#000000" font-family="Arial" font-size="12" lengthAdjust="spacing" textLength="64.0313" x="470.3652" y="66.2559">abreArchivo</text></g><g class="participant participant-head" data-participant="ConectarBD"><rect fill="#EBF5FB" filter="url(#fk9um8f0euk4w)" height="27.7988" rx="7.5" ry="7.5" style="stroke:#1B4F72;stroke-width:0.5;" width="72.6992" x="554.3965" y="48"/><text fill="#000000" font-family="Arial" font-size="12" lengthAdjust="spacing" textLength="58.6992" x="561.3965" y="66.2559">conectaBD</text></g><g class="participant participant-head" data-participant="ObligadoRut"><rect fill="#EBF5FB" filter="url(#fk9um8f0euk4w)" height="27.7988" rx="7.5" ry="7.5" style="stroke:#1B4F72;stroke-width:0.5;" width="96.0488" x="640.0957" y="48"/><text fill="#000000" font-family="Arial" font-size="12" lengthAdjust="spacing" textLength="82.0488" x="647.0957" y="66.2559">sqlObligadoRut</text></g><g class="participant participant-head" data-participant="ExisteF29"><rect fill="#EBF5FB" filter="url(#fk9um8f0euk4w)" height="27.7988" rx="7.5" ry="7.5" style="stroke:#1B4F72;stroke-width:0.5;" width="82.6953" x="749.1445" y="48"/><text fill="#000000" font-family="Arial" font-size="12" lengthAdjust="spacing" textLength="68.6953" x="756.1445" y="66.2559">sqlExisteF29</text></g><g class="participant participant-head" data-participant="ExisteGiro"><rect fill="#EBF5FB" filter="url(#fk9um8f0euk4w)" height="27.7988" rx="7.5" ry="7.5" style="stroke:#1B4F72;stroke-width:0.5;" width="98.0352" x="844.8398" y="48"/><text fill="#000000" font-family="Arial" font-size="12" lengthAdjust="spacing" textLength="84.0352" x="851.8398" y="66.2559">sqlExisteGiro21</text></g><g class="participant participant-head" data-participant="DebeAnotar"><rect fill="#EBF5FB" filter="url(#fk9um8f0euk4w)" height="27.7988" rx="7.5" ry="7.5" style="stroke:#1B4F72;stroke-width:0.5;" width="83.3867" x="955.875" y="48"/><text fill="#000000" font-family="Arial" font-size="12" lengthAdjust="spacing" textLength="69.3867" x="962.875" y="66.2559">Debe_anotar</text></g><g class="participant participant-head" data-participant="FiltraAnotar"><rect fill="#EBF5FB" filter="url(#fk9um8f0euk4w)" height="27.7988" rx="7.5" ry="7.5" style="stroke:#1B4F72;stroke-width:0.5;" width="81.3652" x="1052.2617" y="48"/><text fill="#000000" font-family="Arial" font-size="12" lengthAdjust="spacing" textLength="67.3652" x="1059.2617" y="66.2559">Filtra_anotar</text></g><g class="message" data-participant-1="Usuario" data-participant-2="Main"><polygon fill="#2E4053" points="228.6016,105.5977,238.6016,109.5977,228.6016,113.5977" style="stroke:#2E4053;stroke-width:1;"/><line style="stroke:#2E4053;stroke-width:2.2;" x1="32.5" x2="234.6016" y1="109.5977" y2="109.5977"/><text fill="#000000" font-family="Arial" font-size="12" lengthAdjust="spacing" textLength="184.1016" x="39.5" y="105.0547">Ejecuta programa con argumentos</text></g><g class="message" data-participant-1="Main" data-participant-2="AbreArchivo"><polygon fill="#2E4053" points="491.8809,133.3965,501.8809,137.3965,491.8809,141.3965" style="stroke:#2E4053;stroke-width:1;"/><line style="stroke:#2E4053;stroke-width:2.2;" x1="240.6016" x2="497.8809" y1="137.3965" y2="137.3965"/><text fill="#000000" font-family="Arial" font-size="12" lengthAdjust="spacing" textLength="239.2793" x="247.6016" y="132.8535">abreArchivo(argv[2], "r") // Archivo Ruts 7503</text></g><g class="message" data-participant-1="Main" data-participant-2="AbreArchivo"><polygon fill="#2E4053" points="491.8809,161.1953,501.8809,165.1953,491.8809,169.1953" style="stroke:#2E4053;stroke-width:1;"/><line style="stroke:#2E4053;stroke-width:2.2;" x1="240.6016" x2="497.8809" y1="165.1953" y2="165.1953"/><text fill="#000000" font-family="Arial" font-size="12" lengthAdjust="spacing" textLength="225.9316" x="247.6016" y="160.6523">abreArchivo(argv[3], "r") // Archivo Ruts 73</text></g><g class="message" data-participant-1="Main" data-participant-2="AbreArchivo"><polygon fill="#2E4053" points="491.8809,188.9941,501.8809,192.9941,491.8809,196.9941" style="stroke:#2E4053;stroke-width:1;"/><line style="stroke:#2E4053;stroke-width:2.2;" x1="240.6016" x2="497.8809" y1="192.9941" y2="192.9941"/><text fill="#000000" font-family="Arial" font-size="12" lengthAdjust="spacing" textLength="232.6055" x="247.6016" y="188.4512">abreArchivo(argv[4], "r") // Archivo Ruts 543</text></g><g class="message" data-participant-1="Main" data-participant-2="ConectarBD"><polygon fill="#2E4053" points="580.2461,216.793,590.2461,220.793,580.2461,224.793" style="stroke:#2E4053;stroke-width:1;"/><line style="stroke:#2E4053;stroke-width:2.2;" x1="240.6016" x2="586.2461" y1="220.793" y2="220.793"/><text fill="#000000" font-family="Arial" font-size="12" lengthAdjust="spacing" textLength="143.748" x="247.6016" y="216.25">conectaBD("SID", 1, "SID")</text></g><g class="message" data-participant-1="Main" data-participant-2="ObligadoRut"><polygon fill="#2E4053" points="677.6201,244.5918,687.6201,248.5918,677.6201,252.5918" style="stroke:#2E4053;stroke-width:1;"/><line style="stroke:#2E4053;stroke-width:2.2;" x1="240.6016" x2="683.6201" y1="248.5918" y2="248.5918"/><text fill="#000000" font-family="Arial" font-size="12" lengthAdjust="spacing" textLength="245.7422" x="247.6016" y="244.0488">sqlObligadoRut(dat[x]-&gt;v_UIID_RUT, &amp;sError)</text></g><g class="message" data-participant-1="ObligadoRut" data-participant-2="Main"><polygon fill="#2E4053" points="251.6016,272.3906,241.6016,276.3906,251.6016,280.3906" style="stroke:#2E4053;stroke-width:1;"/><line style="stroke:#2E4053;stroke-width:2.2;" x1="245.6016" x2="688.6201" y1="276.3906" y2="276.3906"/><text fill="#000000" font-family="Arial" font-size="12" lengthAdjust="spacing" textLength="90.7207" x="257.6016" y="271.8477">retorna resultado</text></g><g class="message" data-participant-1="Main" data-participant-2="ExisteF29"><polygon fill="#2E4053" points="779.9922,300.1895,789.9922,304.1895,779.9922,308.1895" style="stroke:#2E4053;stroke-width:1;"/><line style="stroke:#2E4053;stroke-width:2.2;" x1="240.6016" x2="785.9922" y1="304.1895" y2="304.1895"/><text fill="#000000" font-family="Arial" font-size="12" lengthAdjust="spacing" textLength="180.7207" x="247.6016" y="299.6465">sqlExisteF29(x, lPeriodo, &amp;sError)</text></g><g class="message" data-participant-1="ExisteF29" data-participant-2="Main"><polygon fill="#2E4053" points="251.6016,327.9883,241.6016,331.9883,251.6016,335.9883" style="stroke:#2E4053;stroke-width:1;"/><line style="stroke:#2E4053;stroke-width:2.2;" x1="245.6016" x2="790.9922" y1="331.9883" y2="331.9883"/><text fill="#000000" font-family="Arial" font-size="12" lengthAdjust="spacing" textLength="90.7207" x="257.6016" y="327.4453">retorna resultado</text></g><g class="message" data-participant-1="Main" data-participant-2="ExisteGiro"><polygon fill="#2E4053" points="883.3574,355.7871,893.3574,359.7871,883.3574,363.7871" style="stroke:#2E4053;stroke-width:1;"/><line style="stroke:#2E4053;stroke-width:2.2;" x1="240.6016" x2="889.3574" y1="359.7871" y2="359.7871"/><text fill="#000000" font-family="Arial" font-size="12" lengthAdjust="spacing" textLength="196.0605" x="247.6016" y="355.2441">sqlExisteGiro21(x, lPeriodo, &amp;sError)</text></g><g class="message" data-participant-1="ExisteGiro" data-participant-2="Main"><polygon fill="#2E4053" points="251.6016,383.5859,241.6016,387.5859,251.6016,391.5859" style="stroke:#2E4053;stroke-width:1;"/><line style="stroke:#2E4053;stroke-width:2.2;" x1="245.6016" x2="894.3574" y1="387.5859" y2="387.5859"/><text fill="#000000" font-family="Arial" font-size="12" lengthAdjust="spacing" textLength="90.7207" x="257.6016" y="383.043">retorna resultado</text></g><g class="message" data-participant-1="Main" data-participant-2="DebeAnotar"><polygon fill="#2E4053" points="987.0684,411.3848,997.0684,415.3848,987.0684,419.3848" style="stroke:#2E4053;stroke-width:1;"/><line style="stroke:#2E4053;stroke-width:2.2;" x1="240.6016" x2="993.0684" y1="415.3848" y2="415.3848"/><text fill="#000000" font-family="Arial" font-size="12" lengthAdjust="spacing" textLength="184.0781" x="247.6016" y="410.8418">Debe_anotar(N, lPeriodo, &amp;sError)</text></g><g class="message" data-participant-1="DebeAnotar" data-participant-2="Main"><polygon fill="#2E4053" points="251.6016,439.1836,241.6016,443.1836,251.6016,447.1836" style="stroke:#2E4053;stroke-width:1;"/><line style="stroke:#2E4053;stroke-width:2.2;" x1="245.6016" x2="998.0684" y1="443.1836" y2="443.1836"/><text fill="#000000" font-family="Arial" font-size="12" lengthAdjust="spacing" textLength="90.7207" x="257.6016" y="438.6406">retorna resultado</text></g><g class="message" data-participant-1="Main" data-participant-2="FiltraAnotar"><polygon fill="#2E4053" points="1082.4443,466.9824,1092.4443,470.9824,1082.4443,474.9824" style="stroke:#2E4053;stroke-width:1;"/><line style="stroke:#2E4053;stroke-width:2.2;" x1="240.6016" x2="1088.4443" y1="470.9824" y2="470.9824"/><text fill="#000000" font-family="Arial" font-size="12" lengthAdjust="spacing" textLength="228.0879" x="247.6016" y="466.4395">Filtra_anotar(N, lPeriodo, J, n543, &amp;sError)</text></g><g class="message" data-participant-1="FiltraAnotar" data-participant-2="Main"><polygon fill="#2E4053" points="251.6016,494.7813,241.6016,498.7813,251.6016,502.7813" style="stroke:#2E4053;stroke-width:1;"/><line style="stroke:#2E4053;stroke-width:2.2;" x1="245.6016" x2="1093.4443" y1="498.7813" y2="498.7813"/><text fill="#000000" font-family="Arial" font-size="12" lengthAdjust="spacing" textLength="90.7207" x="257.6016" y="494.2383">retorna resultado</text></g><g class="message" data-participant-1="Main" data-participant-2="Usuario"><polygon fill="#2E4053" points="43.5,522.5801,33.5,526.5801,43.5,530.5801" style="stroke:#2E4053;stroke-width:1;"/><line style="stroke:#2E4053;stroke-width:2.2;" x1="37.5" x2="239.6016" y1="526.5801" y2="526.5801"/><text fill="#000000" font-family="Arial" font-size="12" lengthAdjust="spacing" textLength="100.7109" x="49.5" y="522.0371">Finaliza ejecuci&#195;&#179;n</text></g><!--SRC=[bPF1Jkim44Nt-OeX2vHAeOK2Gh10AgIW8i5x0hf2g9gcLZ5oxM8xLM7B9_47l1zx4nSIMr0KLl7OP-wDnjSRNEQYc31ejpl6FWjcslDY9g88Swiq34s1cgjeZjhodCzHMeXdo6KCQE2I5k4HZZNhwVo1BvGZUdKTWhcIBBTuaZdiT5Nfaooap9FuCnPyYXDrNLY7UlKNjh_anhApxg4ZgseDTywrwkvuQBaHiXaRin5AHR_ckBBkkJBaphYm6drojVF1HXzZXArZDpCuWluZomkBCDTggd66G0C1rDDYngHL9d8OuTu0gSiRRqBmugvxdqAiunPqEl29qMGC7EnlxpOLsLqhqbXYRvt4_bwjKTyoILG1IEARGHQdi4CAvQeLLGtUNLD768PaWlPkURzrl1WD1uDiT3syJM7JzBLMkXNvdVNGDQDCIwIlAOIbuzgg2ilAg2gJPGhYBwFBcoXFlyP_eLxcovTV1V171zVIoAAE9d5URfEhR-Kzl96ydsSYWy275XSfIBfrpoleRUJs-LvA8uc2lo2myi7a_D_h-vly3m00]--></g></svg>