<svg xmlns="http://www.w3.org/2000/svg" xmlns:xlink="http://www.w3.org/1999/xlink" contentStyleType="text/css" data-diagram-type="ACTIVITY" height="1255px" preserveAspectRatio="none" style="width:514px;height:1255px;background:#FFFFFF;" version="1.1" viewBox="0 0 514 1255" width="514px" zoomAndPan="magnify"><title>Flujo principal - Proceso Batch proce4310.sh</title><defs><filter height="300%" id="f1ngkdq05y4adr" width="300%" x="-1" y="-1"><feGaussianBlur result="blurOut" stdDeviation="2"/><feColorMatrix in="blurOut" result="blurOut2" type="matrix" values="0 0 0 0 0 0 0 0 0 0 0 0 0 0 0 0 0 0 .4 0"/><feOffset dx="4" dy="4" in="blurOut2" result="blurOut3"/><feBlend in="SourceGraphic" in2="blurOut3" mode="normal"/></filter></defs><g><g class="title" data-source-line="106"><text fill="#000000" font-family="Arial" font-size="14" font-weight="bold" lengthAdjust="spacing" textLength="352.5088" x="79.5173" y="32.9951">Flujo principal - Proceso Batch proce4310.sh</text></g><ellipse cx="210.6626" cy="57.2969" fill="#222222" filter="url(#f1ngkdq05y4adr)" rx="10" ry="10" style="stroke:#222222;stroke-width:1;"/><rect fill="#F1F1F1" filter="url(#f1ngkdq05y4adr)" height="33.9688" rx="7.5" ry="7.5" style="stroke:#181818;stroke-width:0.5;" width="275.0996" x="73.1128" y="87.2969"/><text fill="#000000" font-family="Arial" font-size="12" lengthAdjust="spacing" textLength="255.0996" x="83.1128" y="108.4355">Validar par&#225;metros (nPeriodo, nEscenario)</text><polygon fill="#F1F1F1" filter="url(#f1ngkdq05y4adr)" points="120.355,141.2656,300.9702,141.2656,312.9702,153.2656,300.9702,165.2656,120.355,165.2656,108.355,153.2656,120.355,141.2656" style="stroke:#181818;stroke-width:0.5;"/><text fill="#000000" font-family="Arial" font-size="12" lengthAdjust="spacing" textLength="180.6152" x="120.355" y="157.4199">&#191;Existen archivos de entrada?</text><text fill="#000000" font-family="Arial" font-size="12" lengthAdjust="spacing" textLength="16.3184" x="92.0366" y="150.4355">No</text><text fill="#000000" font-family="Arial" font-size="12" lengthAdjust="spacing" textLength="10.9512" x="312.9702" y="150.4355">S&#237;</text><rect fill="#F1F1F1" filter="url(#f1ngkdq05y4adr)" height="33.9688" rx="7.5" ry="7.5" style="stroke:#181818;stroke-width:0.5;" width="159.9043" x="11" y="175.2656"/><text fill="#000000" font-family="Arial" font-size="12" lengthAdjust="spacing" textLength="139.9043" x="21" y="196.4043">Log + enviar mail error</text><ellipse cx="90.9521" cy="240.2344" fill="none" filter="url(#f1ngkdq05y4adr)" rx="11" ry="11" style="stroke:#222222;stroke-width:1;"/><ellipse cx="90.9521" cy="240.2344" fill="#222222" rx="6" ry="6" style="stroke:#222222;stroke-width:1;"/><rect fill="#F1F1F1" filter="url(#f1ngkdq05y4adr)" height="33.9688" rx="7.5" ry="7.5" style="stroke:#181818;stroke-width:0.5;" width="278.9375" x="190.9043" y="175.2656"/><text fill="#000000" font-family="Arial" font-size="12" lengthAdjust="spacing" textLength="258.9375" x="200.9043" y="196.4043">Configurar entorno (Producci&#243;n/Desarrollo)</text><rect fill="#F1F1F1" filter="url(#f1ngkdq05y4adr)" height="33.9688" rx="7.5" ry="7.5" style="stroke:#181818;stroke-width:0.5;" width="105.377" x="277.6846" y="229.2344"/><text fill="#000000" font-family="Arial" font-size="12" lengthAdjust="spacing" textLength="85.377" x="287.6846" y="250.373">Inicializar logs</text><rect fill="#F1F1F1" filter="url(#f1ngkdq05y4adr)" height="33.9688" rx="7.5" ry="7.5" style="stroke:#181818;stroke-width:0.5;" width="146.4219" x="137.4517" y="283.2031"/><text fill="#000000" font-family="Arial" font-size="12" lengthAdjust="spacing" textLength="126.4219" x="147.4517" y="304.3418">Revisa_SID_ULTIMA()</text><polygon fill="#F1F1F1" filter="url(#f1ngkdq05y4adr)" points="130.7261,337.1719,290.5991,337.1719,302.5991,349.1719,290.5991,361.1719,130.7261,361.1719,118.7261,349.1719,130.7261,337.1719" style="stroke:#181818;stroke-width:0.5;"/><text fill="#000000" font-family="Arial" font-size="12" lengthAdjust="spacing" textLength="159.873" x="130.7261" y="353.3262">&#191;nObligados &gt;= nNotNull?</text><text fill="#000000" font-family="Arial" font-size="12" lengthAdjust="spacing" textLength="16.3184" x="102.4077" y="346.3418">No</text><text fill="#000000" font-family="Arial" font-size="12" lengthAdjust="spacing" textLength="10.9512" x="302.5991" y="346.3418">S&#237;</text><rect fill="#F1F1F1" filter="url(#f1ngkdq05y4adr)" height="33.9688" rx="7.5" ry="7.5" style="stroke:#181818;stroke-width:0.5;" width="159.9043" x="28.7739" y="371.1719"/><text fill="#000000" font-family="Arial" font-size="12" lengthAdjust="spacing" textLength="139.9043" x="38.7739" y="392.3105">Log + enviar mail error</text><ellipse cx="108.7261" cy="436.1406" fill="none" filter="url(#f1ngkdq05y4adr)" rx="11" ry="11" style="stroke:#222222;stroke-width:1;"/><ellipse cx="108.7261" cy="436.1406" fill="#222222" rx="6" ry="6" style="stroke:#222222;stroke-width:1;"/><rect fill="#F1F1F1" filter="url(#f1ngkdq05y4adr)" height="33.9688" rx="7.5" ry="7.5" style="stroke:#181818;stroke-width:0.5;" width="78.8633" x="273.1675" y="371.1719"/><text fill="#000000" font-family="Arial" font-size="12" lengthAdjust="spacing" textLength="58.8633" x="283.1675" y="392.3105">Continuar</text><rect fill="#F1F1F1" filter="url(#f1ngkdq05y4adr)" height="33.9688" rx="7.5" ry="7.5" style="stroke:#181818;stroke-width:0.5;" width="129.7578" x="145.7837" y="467.1406"/><text fill="#000000" font-family="Arial" font-size="12" lengthAdjust="spacing" textLength="109.7578" x="155.7837" y="488.2793">Ejecutar Proceso()</text><rect fill="#F1F1F1" filter="url(#f1ngkdq05y4adr)" height="33.9688" rx="7.5" ry="7.5" style="stroke:#181818;stroke-width:0.5;" width="204.6875" x="108.3188" y="521.1094"/><text fill="#000000" font-family="Arial" font-size="12" lengthAdjust="spacing" textLength="184.6875" x="118.3188" y="542.248">Forzar anotaci&#243;n 7503 dummy</text><rect fill="#F1F1F1" filter="url(#f1ngkdq05y4adr)" height="33.9688" rx="7.5" ry="7.5" style="stroke:#181818;stroke-width:0.5;" width="214.0332" x="103.646" y="575.0781"/><text fill="#000000" font-family="Arial" font-size="12" lengthAdjust="spacing" textLength="194.0332" x="113.646" y="596.2168">Contar registros (7503, 73, 543)</text><rect fill="#F1F1F1" filter="url(#f1ngkdq05y4adr)" height="33.9688" rx="7.5" ry="7.5" style="stroke:#181818;stroke-width:0.5;" width="297.9395" x="61.6929" y="629.0469"/><text fill="#000000" font-family="Arial" font-size="12" lengthAdjust="spacing" textLength="277.9395" x="71.6929" y="650.1855">Ejecutar Procesa4310 con archivos generados</text><polygon fill="#F1F1F1" filter="url(#f1ngkdq05y4adr)" points="139.3042,683.0156,282.021,683.0156,294.021,695.0156,282.021,707.0156,139.3042,707.0156,127.3042,695.0156,139.3042,683.0156" style="stroke:#181818;stroke-width:0.5;"/><text fill="#000000" font-family="Arial" font-size="12" lengthAdjust="spacing" textLength="142.7168" x="139.3042" y="699.1699">&#191;Error en Procesa4310?</text><text fill="#000000" font-family="Arial" font-size="12" lengthAdjust="spacing" textLength="10.9512" x="116.353" y="692.1855">S&#237;</text><text fill="#000000" font-family="Arial" font-size="12" lengthAdjust="spacing" textLength="16.3184" x="294.021" y="692.1855">No</text><rect fill="#F1F1F1" filter="url(#f1ngkdq05y4adr)" height="33.9688" rx="7.5" ry="7.5" style="stroke:#181818;stroke-width:0.5;" width="118.3789" x="29.4497" y="717.0156"/><text fill="#000000" font-family="Arial" font-size="12" lengthAdjust="spacing" textLength="98.3789" x="39.4497" y="738.1543">Log + mail error</text><ellipse cx="88.6392" cy="781.9844" fill="none" filter="url(#f1ngkdq05y4adr)" rx="11" ry="11" style="stroke:#222222;stroke-width:1;"/><ellipse cx="88.6392" cy="781.9844" fill="#222222" rx="6" ry="6" style="stroke:#222222;stroke-width:1;"/><rect fill="#F1F1F1" filter="url(#f1ngkdq05y4adr)" height="33.9688" rx="7.5" ry="7.5" style="stroke:#181818;stroke-width:0.5;" width="329.7148" x="167.8286" y="717.0156"/><text fill="#000000" font-family="Arial" font-size="12" lengthAdjust="spacing" textLength="309.7148" x="177.8286" y="738.1543">Generar archivo AnotaMensual4310 si Escenario=2</text><rect fill="#F1F1F1" filter="url(#f1ngkdq05y4adr)" height="33.9688" rx="7.5" ry="7.5" style="stroke:#181818;stroke-width:0.5;" width="247.3672" x="209.0024" y="770.9844"/><text fill="#000000" font-family="Arial" font-size="12" lengthAdjust="spacing" textLength="227.3672" x="219.0024" y="792.123">Copiar y comprimir archivos de salida</text><rect fill="#F1F1F1" filter="url(#f1ngkdq05y4adr)" height="33.9688" rx="7.5" ry="7.5" style="stroke:#181818;stroke-width:0.5;" width="221.873" x="99.7261" y="824.9531"/><text fill="#000000" font-family="Arial" font-size="12" lengthAdjust="spacing" textLength="201.873" x="109.7261" y="846.0918">Enviar correo final con resultados</text><rect fill="#F1F1F1" filter="url(#f1ngkdq05y4adr)" height="33.9688" rx="7.5" ry="7.5" style="stroke:#181818;stroke-width:0.5;" width="164.3867" x="128.4692" y="878.9219"/><text fill="#000000" font-family="Arial" font-size="12" lengthAdjust="spacing" textLength="144.3867" x="138.4692" y="900.0605">MarcaUltPerProcesado()</text><rect fill="#F1F1F1" filter="url(#f1ngkdq05y4adr)" height="33.9688" rx="7.5" ry="7.5" style="stroke:#181818;stroke-width:0.5;" width="118.3789" x="151.4731" y="981.875"/><text fill="#000000" font-family="Arial" font-size="12" lengthAdjust="spacing" textLength="98.3789" x="161.4731" y="1003.0137">Log + mail error</text><ellipse cx="210.6626" cy="1055.3594" fill="none" filter="url(#f1ngkdq05y4adr)" rx="11" ry="11" style="stroke:#222222;stroke-width:1;"/><ellipse cx="210.6626" cy="1055.3594" fill="#222222" rx="6" ry="6" style="stroke:#222222;stroke-width:1;"/><polygon fill="#F1F1F1" filter="url(#f1ngkdq05y4adr)" points="110.6108,932.8906,310.7144,932.8906,322.7144,944.8906,310.7144,956.8906,110.6108,956.8906,98.6108,944.8906,110.6108,932.8906" style="stroke:#181818;stroke-width:0.5;"/><text fill="#000000" font-family="Arial" font-size="12" lengthAdjust="spacing" textLength="10.9512" x="214.6626" y="968.0293">S&#237;</text><text fill="#000000" font-family="Arial" font-size="12" lengthAdjust="spacing" textLength="200.1035" x="110.6108" y="949.0449">&#191;Error en MarcaUltPerProcesado?</text><rect fill="#F1F1F1" filter="url(#f1ngkdq05y4adr)" height="33.9688" rx="7.5" ry="7.5" style="stroke:#181818;stroke-width:0.5;" width="321.6875" x="49.8188" y="1108.3594"/><text fill="#000000" font-family="Arial" font-size="12" lengthAdjust="spacing" textLength="301.6875" x="59.8188" y="1129.498">Generar CTLFILE para proceso de revisi&#243;n diferida</text><rect fill="#F1F1F1" filter="url(#f1ngkdq05y4adr)" height="33.9688" rx="7.5" ry="7.5" style="stroke:#181818;stroke-width:0.5;" width="275.5977" x="72.8638" y="1162.3281"/><text fill="#000000" font-family="Arial" font-size="12" lengthAdjust="spacing" textLength="255.5977" x="82.8638" y="1183.4668">Programar ejecuci&#243;n con at (20h despu&#233;s)</text><ellipse cx="210.6626" cy="1227.2969" fill="none" filter="url(#f1ngkdq05y4adr)" rx="11" ry="11" style="stroke:#222222;stroke-width:1;"/><ellipse cx="210.6626" cy="1227.2969" fill="#222222" rx="6" ry="6" style="stroke:#222222;stroke-width:1;"/><line style="stroke:#2E4053;stroke-width:2.2;" x1="210.6626" x2="210.6626" y1="67.2969" y2="87.2969"/><polygon fill="#2E4053" points="206.6626,77.2969,214.6626,77.2969,210.6626,87.2969" style="stroke:#2E4053;stroke-width:1;"/><line style="stroke:#2E4053;stroke-width:2.2;" x1="90.9521" x2="90.9521" y1="209.2344" y2="229.2344"/><polygon fill="#2E4053" points="86.9521,219.2344,94.9521,219.2344,90.9521,229.2344" style="stroke:#2E4053;stroke-width:1;"/><line style="stroke:#2E4053;stroke-width:2.2;" x1="330.373" x2="330.373" y1="209.2344" y2="229.2344"/><polygon fill="#2E4053" points="326.373,219.2344,334.373,219.2344,330.373,229.2344" style="stroke:#2E4053;stroke-width:1;"/><line style="stroke:#2E4053;stroke-width:2.2;" x1="108.355" x2="90.9521" y1="153.2656" y2="153.2656"/><line style="stroke:#2E4053;stroke-width:2.2;" x1="90.9521" x2="90.9521" y1="153.2656" y2="175.2656"/><polygon fill="#2E4053" points="86.9521,165.2656,94.9521,165.2656,90.9521,175.2656" style="stroke:#2E4053;stroke-width:1;"/><line style="stroke:#2E4053;stroke-width:2.2;" x1="312.9702" x2="330.373" y1="153.2656" y2="153.2656"/><line style="stroke:#2E4053;stroke-width:2.2;" x1="330.373" x2="330.373" y1="153.2656" y2="175.2656"/><polygon fill="#2E4053" points="326.373,165.2656,334.373,165.2656,330.373,175.2656" style="stroke:#2E4053;stroke-width:1;"/><line style="stroke:#2E4053;stroke-width:2.2;" x1="330.373" x2="330.373" y1="263.2031" y2="268.2031"/><line style="stroke:#2E4053;stroke-width:2.2;" x1="330.373" x2="210.6626" y1="268.2031" y2="268.2031"/><line style="stroke:#2E4053;stroke-width:2.2;" x1="210.6626" x2="210.6626" y1="268.2031" y2="283.2031"/><polygon fill="#2E4053" points="206.6626,273.2031,214.6626,273.2031,210.6626,283.2031" style="stroke:#2E4053;stroke-width:1;"/><line style="stroke:#2E4053;stroke-width:2.2;" x1="210.6626" x2="210.6626" y1="121.2656" y2="141.2656"/><polygon fill="#2E4053" points="206.6626,131.2656,214.6626,131.2656,210.6626,141.2656" style="stroke:#2E4053;stroke-width:1;"/><line style="stroke:#2E4053;stroke-width:2.2;" x1="108.7261" x2="108.7261" y1="405.1406" y2="425.1406"/><polygon fill="#2E4053" points="104.7261,415.1406,112.7261,415.1406,108.7261,425.1406" style="stroke:#2E4053;stroke-width:1;"/><line style="stroke:#2E4053;stroke-width:2.2;" x1="118.7261" x2="108.7261" y1="349.1719" y2="349.1719"/><line style="stroke:#2E4053;stroke-width:2.2;" x1="108.7261" x2="108.7261" y1="349.1719" y2="371.1719"/><polygon fill="#2E4053" points="104.7261,361.1719,112.7261,361.1719,108.7261,371.1719" style="stroke:#2E4053;stroke-width:1;"/><line style="stroke:#2E4053;stroke-width:2.2;" x1="302.5991" x2="312.5991" y1="349.1719" y2="349.1719"/><line style="stroke:#2E4053;stroke-width:2.2;" x1="312.5991" x2="312.5991" y1="349.1719" y2="371.1719"/><polygon fill="#2E4053" points="308.5991,361.1719,316.5991,361.1719,312.5991,371.1719" style="stroke:#2E4053;stroke-width:1;"/><line style="stroke:#2E4053;stroke-width:2.2;" x1="312.5991" x2="312.5991" y1="405.1406" y2="452.1406"/><line style="stroke:#2E4053;stroke-width:2.2;" x1="312.5991" x2="210.6626" y1="452.1406" y2="452.1406"/><line style="stroke:#2E4053;stroke-width:2.2;" x1="210.6626" x2="210.6626" y1="452.1406" y2="467.1406"/><polygon fill="#2E4053" points="206.6626,457.1406,214.6626,457.1406,210.6626,467.1406" style="stroke:#2E4053;stroke-width:1;"/><line style="stroke:#2E4053;stroke-width:2.2;" x1="210.6626" x2="210.6626" y1="317.1719" y2="337.1719"/><polygon fill="#2E4053" points="206.6626,327.1719,214.6626,327.1719,210.6626,337.1719" style="stroke:#2E4053;stroke-width:1;"/><line style="stroke:#2E4053;stroke-width:2.2;" x1="210.6626" x2="210.6626" y1="501.1094" y2="521.1094"/><polygon fill="#2E4053" points="206.6626,511.1094,214.6626,511.1094,210.6626,521.1094" style="stroke:#2E4053;stroke-width:1;"/><line style="stroke:#2E4053;stroke-width:2.2;" x1="210.6626" x2="210.6626" y1="555.0781" y2="575.0781"/><polygon fill="#2E4053" points="206.6626,565.0781,214.6626,565.0781,210.6626,575.0781" style="stroke:#2E4053;stroke-width:1;"/><line style="stroke:#2E4053;stroke-width:2.2;" x1="210.6626" x2="210.6626" y1="609.0469" y2="629.0469"/><polygon fill="#2E4053" points="206.6626,619.0469,214.6626,619.0469,210.6626,629.0469" style="stroke:#2E4053;stroke-width:1;"/><line style="stroke:#2E4053;stroke-width:2.2;" x1="88.6392" x2="88.6392" y1="750.9844" y2="770.9844"/><polygon fill="#2E4053" points="84.6392,760.9844,92.6392,760.9844,88.6392,770.9844" style="stroke:#2E4053;stroke-width:1;"/><line style="stroke:#2E4053;stroke-width:2.2;" x1="332.686" x2="332.686" y1="750.9844" y2="770.9844"/><polygon fill="#2E4053" points="328.686,760.9844,336.686,760.9844,332.686,770.9844" style="stroke:#2E4053;stroke-width:1;"/><line style="stroke:#2E4053;stroke-width:2.2;" x1="127.3042" x2="88.6392" y1="695.0156" y2="695.0156"/><line style="stroke:#2E4053;stroke-width:2.2;" x1="88.6392" x2="88.6392" y1="695.0156" y2="717.0156"/><polygon fill="#2E4053" points="84.6392,707.0156,92.6392,707.0156,88.6392,717.0156" style="stroke:#2E4053;stroke-width:1;"/><line style="stroke:#2E4053;stroke-width:2.2;" x1="294.021" x2="332.686" y1="695.0156" y2="695.0156"/><line style="stroke:#2E4053;stroke-width:2.2;" x1="332.686" x2="332.686" y1="695.0156" y2="717.0156"/><polygon fill="#2E4053" points="328.686,707.0156,336.686,707.0156,332.686,717.0156" style="stroke:#2E4053;stroke-width:1;"/><line style="stroke:#2E4053;stroke-width:2.2;" x1="332.686" x2="332.686" y1="804.9531" y2="809.9531"/><line style="stroke:#2E4053;stroke-width:2.2;" x1="332.686" x2="210.6626" y1="809.9531" y2="809.9531"/><line style="stroke:#2E4053;stroke-width:2.2;" x1="210.6626" x2="210.6626" y1="809.9531" y2="824.9531"/><polygon fill="#2E4053" points="206.6626,814.9531,214.6626,814.9531,210.6626,824.9531" style="stroke:#2E4053;stroke-width:1;"/><line style="stroke:#2E4053;stroke-width:2.2;" x1="210.6626" x2="210.6626" y1="663.0156" y2="683.0156"/><polygon fill="#2E4053" points="206.6626,673.0156,214.6626,673.0156,210.6626,683.0156" style="stroke:#2E4053;stroke-width:1;"/><line style="stroke:#2E4053;stroke-width:2.2;" x1="210.6626" x2="210.6626" y1="858.9219" y2="878.9219"/><polygon fill="#2E4053" points="206.6626,868.9219,214.6626,868.9219,210.6626,878.9219" style="stroke:#2E4053;stroke-width:1;"/><line style="stroke:#2E4053;stroke-width:2.2;" x1="210.6626" x2="210.6626" y1="1015.8438" y2="1044.3594"/><polygon fill="#2E4053" points="206.6626,1034.3594,214.6626,1034.3594,210.6626,1044.3594" style="stroke:#2E4053;stroke-width:1;"/><line style="stroke:#2E4053;stroke-width:2.2;" x1="210.6626" x2="210.6626" y1="956.8906" y2="981.875"/><polygon fill="#2E4053" points="206.6626,971.875,214.6626,971.875,210.6626,981.875" style="stroke:#2E4053;stroke-width:1;"/><line style="stroke:#2E4053;stroke-width:2.2;" x1="322.7144" x2="334.7144" y1="944.8906" y2="944.8906"/><polygon fill="#2E4053" points="330.7144,1014.3594,338.7144,1014.3594,334.7144,1024.3594" style="stroke:#2E4053;stroke-width:2.2;"/><line style="stroke:#2E4053;stroke-width:2.2;" x1="334.7144" x2="334.7144" y1="944.8906" y2="1088.3594"/><line style="stroke:#2E4053;stroke-width:2.2;" x1="334.7144" x2="210.6626" y1="1088.3594" y2="1088.3594"/><line style="stroke:#2E4053;stroke-width:2.2;" x1="210.6626" x2="210.6626" y1="1088.3594" y2="1108.3594"/><polygon fill="#2E4053" points="206.6626,1098.3594,214.6626,1098.3594,210.6626,1108.3594" style="stroke:#2E4053;stroke-width:1;"/><line style="stroke:#2E4053;stroke-width:2.2;" x1="210.6626" x2="210.6626" y1="912.8906" y2="932.8906"/><polygon fill="#2E4053" points="206.6626,922.8906,214.6626,922.8906,210.6626,932.8906" style="stroke:#2E4053;stroke-width:1;"/><line style="stroke:#2E4053;stroke-width:2.2;" x1="210.6626" x2="210.6626" y1="1142.3281" y2="1162.3281"/><polygon fill="#2E4053" points="206.6626,1152.3281,214.6626,1152.3281,210.6626,1162.3281" style="stroke:#2E4053;stroke-width:1;"/><line style="stroke:#2E4053;stroke-width:2.2;" x1="210.6626" x2="210.6626" y1="1196.2969" y2="1216.2969"/><polygon fill="#2E4053" points="206.6626,1206.2969,214.6626,1206.2969,210.6626,1216.2969" style="stroke:#2E4053;stroke-width:1;"/><!--SRC=[fLRDRkCs4BxhAGZqi5uqJILPybysAVHR172oGPFqkg0bMkQ69bsIIkej-Z1xxA6dVO02zOjrADbPIOcm2HeWGABXV3FppJT3la6dt_Yntg10PYjwBsP8wIqZwdXJhXby_gQdkgDyWoLUeslZ2EwIPhfsJWNF1TeYeZHb0XM44ubPmsM1ixj2YfBdaM12ek_IwgTnGgrmBXueBv2M9MaOzbuI897ZDmmnMUAIQOYjB_6QG66q5RDXlwQV27BS7cDLpaAml64Ff1GFDokQtN6Y57AFtQvnNqWXyTPw2N_0VAQ590fuYh0I2kK4tIhnEkwnmQWpnWz4YJNf6j4V5a9Xb-_OIqQfOon2vaJklxgJiHUCuAlXOV_DyRtXoBR-RE2MYcHOaUUHqoWTHcaNEHnFVJji8u_ZqSYU0FBBw8ef1dBNk2BgccGbuHd5hwDBaT-CMvrwisrkujd-43xEwPBCAIUjxFSSDAnF-1mbGJg14rTOQfhH3UQw3H5wwTZj7EYY967gfuQb66ky08fR4EFGzPoeQNt2VH27iM7qHOH6332C_DulFX8jrEkepC1RzKXWceH9q9N0r7L3rsbBOEGvYJDgYKj0Cfdk0NPJB_MwmBxZ1tvGwoZXckej6gn5Jc3pW59o3AMzxIR-xXsfJfwTFHyfcQIZTDYDv0HXD8tgIA4vZIN4ebmJkSGPgPHPgX9BAfw9kDXxzCLCuoHEecxCo1vEtR2E6G5pKZ0qOBil1SsmYST98R9dusNrwTvm2VHft0qNUq5anuTmZ44lgE0AGbAbiJf2M4fIC05_PLZlFZDHjEcj-sUY7vnxEJwelRs3fXCxdBvuAqHYlH4ScbafEIPgmoWfuCPudPWFABrgcAJ-4pKuuyd8QmlQ3lsXvxS4dJ5HvdqCn4bgTt57qT2R35iOIxYDYEoLJHW_0Oa2sEz92mHMNzcpj6C_zPEdSeyda4aB8z-ldfvKwltJWTdlBUYePS7CmLMLilAZG1j9kLc43Fs0hgI0-H40gRCLME0_R-ZOnsfbMQ0xgQtPhvXH61y4YUm-hmb86rJ9hmWCMowE44zKHdWrUYSMNQB1l_yaluDc2GV9La-SQZoXnnBd-AUtIA_0DBY4oK5eDXS5-XwCznGYh35bYC3j84_0fhJOM8H1pOFhtT_LQPZ39IrA2MS13zuY0WsWWhpCChhxmdy46SAOm02ONE3yEOUD3-b_0WSO67LY4PxJfMNDVY7tLE4Fr-VnXzlvpVb5C7ZCdhzVC5h0AqYXirF4BuM-B1dxtubhoc51VSqWWN4jWU532qm2irH8aolcGkEg93JsxI7Ao_Lw2sO30sPO141mrGTZFa9Z-8MhqY1qOB7f9enPendrgn3AEx4E_JAPGorDdyTw3oNK1VTMkgVbvmfS7gAXm5HoGJWiPrQbeYXw5CofUrAJip4aRgjj8EcQofPoLAM_1d4rvvc0XIZGad8GiYaGddJmagmBcrq00hvb6cIwBoeNNrlyMF1pnrvH-JwZGz7HpJmzdoTcKd0zIwgw2gKHMzLDE0zpOwgPGRpgMGLvc9RLtQuQfT70jLVWg3RbxYy5MLict7y0]--></g></svg>